<?xml version="1.0" encoding="utf-8"?>
<!-- Generator: Adobe Illustrator 22.0.1, SVG Export Plug-In . SVG Version: 6.00 Build 0)  -->
<svg version="1.1" id="圖層_1" xmlns="http://www.w3.org/2000/svg" xmlns:xlink="http://www.w3.org/1999/xlink" x="0px" y="0px"
	 viewBox="0 0 212 60" style="enable-background:new 0 0 212 60;" xml:space="preserve">
<style type="text/css">
	.st0{fill:#FFFFFF;}
</style>
<g>
	<path class="st0" d="M30.6,0.2C14.3,0.2,1,13.5,1,29.8c0,16.3,13.3,29.6,29.6,29.6c16.3,0,29.6-13.3,29.6-29.6
		C60.2,13.5,47,0.2,30.6,0.2z M30.6,58.6c-15.9,0-28.8-12.9-28.8-28.8S14.7,1,30.6,1c15.9,0,28.8,12.9,28.8,28.8
		S46.5,58.6,30.6,58.6z"/>
	<path class="st0" d="M30.6,2.1C15.4,2.1,2.9,14.6,2.9,29.8s12.4,27.7,27.7,27.7s27.7-12.4,27.7-27.7S45.9,2.1,30.6,2.1z M48.4,30.6
		c0,0.3-0.2,0.6-0.5,0.8l-16.2,7.3c-0.2,0.1-0.5,0.1-0.7,0l-15-6.8v1.8l15.3,6.9l9.8-4.5V38l-9.5,4.3c-0.1,0-0.2,0.1-0.3,0.1
		s-0.2,0-0.3-0.1L14.9,35c-0.3-0.1-0.5-0.4-0.5-0.8v-3.6c0-0.3,0.1-0.5,0.4-0.7c0.2-0.2,0.5-0.2,0.8-0.1L31.4,37l15.3-6.9v-1.8
		l-15,6.8c-0.2,0.1-0.5,0.1-0.7,0l-16.2-7.3c-0.3-0.1-0.5-0.4-0.5-0.8s0.2-0.6,0.5-0.8l9.5-4.5v1.8L17.3,27l7.1,3.2l0,0v-4.3H26v5
		l1.4,0.7V20.8h1.7v11.5l1.4,0.6V16.3h1.7V33l1.4-0.6V20.8h1.7v10.8l1.4-0.7v-5h1.7v4.3l8.8-4c0.3-0.1,0.6-0.1,0.8,0.1
		c0.2,0.2,0.4,0.4,0.4,0.7V30.6z"/>
	<path class="st0" d="M107.6,16.4h-6.7c-0.4,0-0.8,0.2-1,0.6L93,29c0,0,0-8,0-10.1c0-2.1-2.1-2.4-2.1-2.4H84c-0.4,0-0.8,0.2-1,0.6
		L69,41.6H75c0.3,0,0.7-0.2,0.8-0.5l9.8-16.9c0,0,0,13.9,0.2,15.5c0.2,1.7,1.8,1.8,1.8,1.8h4.8c0.4,0,0.8-0.2,1-0.6l8.9-16v16.7h7.5
		c0,0,0-20.4,0-22.6C109.9,16.8,107.6,16.4,107.6,16.4z"/>
	<path class="st0" d="M122.3,15.5c0-2.3-2.6-4.2-5.7-4.2c-3.2,0-5.7,1.9-5.7,4.2c0,2.3,2.6,4.2,5.7,4.2
		C119.7,19.7,122.3,17.8,122.3,15.5z"/>
	<path class="st0" d="M142.4,16.3h-7.7c-0.4,0-0.8,0.2-1,0.6L120.1,40V21.8h-6.4c-0.3,0-0.6,0.3-0.6,0.6v19.2h7h5.7
		c0.3,0,0.5-0.2,0.7-0.4l2.3-4.3h7.3l2.5-4.3l0.5,9.1h7.4l-1.6-23.1C144.8,17.3,143.7,16.3,142.4,16.3z M137.9,30.3h-5.1l5.1-8.4
		l0.6,8.4H137.9z"/>
	<path class="st0" d="M154.8,16.3h-4.7c-0.3,0-0.6,0.3-0.6,0.6v24.6h7.5V18.7C157.2,17.4,156.1,16.3,154.8,16.3z"/>
	<path class="st0" d="M181.9,19.6c-0.2-0.2-0.5-0.5-0.7-0.7c-0.4-0.4-0.8-0.7-1.3-1c-2.2-1.4-4.2-1.5-4.2-1.5h-6.2
		c0,0-2,0.1-4.2,1.5c-0.4,0.3-0.8,0.6-1.3,1c-0.2,0.2-0.5,0.4-0.7,0.7c-0.8,0.8-1.6,1.9-2.2,3.3c-2.6,5.7-1.5,12.5,2.4,16.2
		c0.3,0.3,0.6,0.5,0.9,0.7c0.4,0.3,0.8,0.6,1.2,0.8c1.2,0.7,2.1,0.9,2.4,1h0c0.1,0,0.2,0,0.2,0h8.9c0,0,0,0,0,0c0,0,0.1,0,0.1,0
		c0,0,0,0,0,0c0.4-0.1,1.3-0.4,2.4-1c0.4-0.2,0.7-0.4,1.1-0.7c0.3-0.2,0.6-0.5,0.9-0.7c4-3.7,5-10.4,2.4-16.1
		C183.5,21.6,182.8,20.5,181.9,19.6z M173.4,36.1c-0.1,0-0.1,0-0.1,0h-0.1c-0.1,0-0.3,0-0.4,0s-0.3,0-0.4,0H172c0,0-0.2,0-0.5-0.1
		c-3.2-0.6-5.6-3.4-5.6-6.8c0-3.8,3.1-6.9,6.9-6.9c3.8,0,6.9,3.1,6.9,6.9C179.6,32.8,176.9,35.8,173.4,36.1z"/>
	<rect x="194.8" y="22.4" class="st0" width="7.2" height="19.3"/>
	<path class="st0" d="M209.7,16.3h-22.9c0,0-0.1,0-0.1,0.1v6H210v-5.7C210,16.5,209.9,16.3,209.7,16.3z"/>
</g>
</svg>
