<?xml version="1.0" encoding="utf-8"?>
<!-- Generator: Adobe Illustrator 22.0.1, SVG Export Plug-In . SVG Version: 6.00 Build 0)  -->
<svg version="1.1" id="Australia" xmlns="http://www.w3.org/2000/svg" xmlns:xlink="http://www.w3.org/1999/xlink" x="0px" y="0px"
	 viewBox="0 0 720 540" style="enable-background:new 0 0 720 540;" xml:space="preserve">
<style type="text/css">
	.st0{fill:#6699FF;}
	.st1{fill:#99CC33;}
	.st2{fill:#FFCC00;}
	.st3{fill:#FF6600;}
	.st4{fill:#FFFFFF;}
	.st5{font-family:'Arial-BoldMT';}
	.st6{font-size:12px;}
	.st7{font-size:8px;}
</style>
<g>
	<path class="st0" d="M606.4,276.7l-0.4,0l-0.3-0.4l-1.9,1.4l-2,0.1l-1.1,1.3l-3.1-0.4l-1.2,0.5l-1.8-0.9l-0.3,0.5l-0.2,0l-0.3-0.2
		l-0.1-0.4l-0.3-0.3l-0.2-0.1l-6.5,3.9l-0.1,0.3l1.4,2l-0.7,2.8l-1.9,0.2l-0.3,0.7l-0.1,0l-0.7-0.3l-0.5-0.9l-0.1,0l-2.1,1l-0.4,1.5
		l-1.8,1.6l-0.3-0.1l-0.1-0.6l-0.3-0.2l-0.2-1.3l0.1-0.2l-0.3-1.1l-2.8-1.3l-0.2-1.3l-7.4-1.3l-1.9-1.6l-7.4,1.3l-0.2-0.2l-0.9-0.1
		l-0.1-0.4l-0.2-0.2l-6.2,4l-0.4,1.2l-1.1,0.9l-99.2,0v73.3l0.6,0.7l1.4,0.1l0.4,0.3l0.6-0.2l1.2,1l0.8-0.2l0.8,0.5l0.6,0l0.1,0.1
		l0.1,0.5l0.2,0.2l2.5-1.7l3.8,0.2l0.5,0.8l0.7-0.2l0.6,0.5l0.4,0l0.3,1.2l1.1,1.1l0.6-0.1l0.1,0.3l-0.4,1.3l1.9,4.7l1.2,0.6
		l0.2-0.1l-0.1-0.8l0.7,0l0.1-0.1l0.1-0.3l0,0l0.3-1.7l0.8-0.3l0.7,0.5l0.4,1l0.5-0.3h0.2l0.6,0.5l0.2-0.3l3.4,1.3l0.2,0.6l0.6-0.1
		l0.4,0.3l-0.1,1.1l-0.2,0.2l0.6,3.9l0.9,1l1.3,0.4l0.3,0.5l0,0.6l-0.2,0.4l0.1,0.4l4.9,2.6l0.2,0.5l0.8,0.2l2.6,2.7l0.4,0.1l3.8,5
		l0.8,0.1l0.3,0.4l0,0.1l0.2,0l0.1,0.3l0.1,0.1l0.9-0.1l1-0.9l0.8,0.4l0.2,0l0.1-0.3l-0.6-1.2l0.5-1.8l0.4-0.3l6-0.6l3.6,2.3
		l1.9-0.2l0.3,0.3l0.1,0.3l0.1,0.1l2.9,0.6l0.1-0.3l1.8,0.2l0.2-0.1l0.7-1.1l0.4,0.1l0.4-0.2l0.4,0.2l1.1,0.1l0.8,0.7l0.8,0.1
		l0.2,0.3l0.5,0l0.4,0.4l0.4-0.2l1,0.5l0.2-0.4l0.4-0.1l0.5,0.3l-0.1,0.5l0.2,0.9l0.7,0.7l1.1-0.3l-0.1-0.2l-0.9-0.2l-0.5-1.3
		l0.7-1.1l0.1,0l0.3,0.3l1.3-0.1l0.2,0l0.7,0.4l0.9-1.8l0.9-0.2l0.5,0.2l0.2,0.5l0.2,0.1l1.8-0.9l2.6,1l0.4,0.6l0.7,0.3l0.1,0.2
		l-0.1,0.7l0.1,0.3l0.5,0.3l0.5,3.2l-0.2,0.4l1.1,1.7l0,1l0.1,0.2l0.5,0.1l0.2,0.7l-1.2,2.4l0,0.1l23,11.3l0.2-0.2l-0.4-3.3l0.4-0.4
		l0.9,0.3v-0.1l-1.3-2.3l-0.4,0.1l-0.2-0.1l-0.3-0.4l0.6-0.5l0.1,0.1l0,0.1l0.1,0l0.1-0.2l-0.3-1.1l0.3-0.5l-0.4-0.2l-0.1-0.2
		l0.5-1.2l-0.1-0.4l2.5-8.5l0.2-0.1l-0.3-1.5l0.3-0.9l-0.1-0.3l-0.4-0.3l-0.1,0.1l-0.2,0l0.1-0.1l0-0.1l0-0.1l0.2-0.2l0.5,0.2l0-2.5
		l1-0.8l0.1-0.5l-0.6-1.3l0.5-0.2l0.5,0.3l0.2-0.1l2.5-5.3l-0.1-0.7l0.9-1.7l0.7-0.4l0.3-0.7l0.8-0.4l-0.1-0.6l-0.2-0.1l0.2-0.8
		l0.9-0.3l0.2,0.1l-0.1,0.2l0.1,0.3l-0.2,0.4l0.4,0.5l0.5-0.5l0.1-0.8l0-0.1l-0.7-0.2l-0.2-0.3l0.1-0.4l-0.1-0.1l0.1-0.1l-0.5-0.4
		l0.2,0l0.2-0.1l0-0.1l-0.6-0.4l0-0.1l0.3-0.2l0.3-0.8l0.7-0.4l0.6-2.7l0.4-0.1l-0.9-0.6l-0.4,0l-0.1-0.1l-0.1-0.1l0.5-0.6l0.2,0
		l0.1,0.1l-0.2,0.3l0.2,0.1l0.6-0.7l0.3-2.8l2.9-3.2l0-0.2l-0.5-0.1l0.2-0.1l0.3-0.5l0.7,0l0.1-0.1l0-0.2l-0.9-0.1l-0.1,0.2l-0.1,0
		l-0.6-0.3l0.1-0.2l0.7,0l0.2-0.6l0.2-0.1l0.6,0.7l0.4-0.8l-0.1-0.2l0.3-1l-0.1-0.2l-0.1,0.2l-0.1,0.1l-0.2,0l-0.1-0.1l0.1-0.4
		l0.2-0.2l0.5,0l0.1-1.3l-0.1-0.1l0-0.1l0.3-0.2l0.1-1.4l-0.2,0.6l-0.4,0.3l0.4-1.2l-0.1-0.2l-1.1,0.4v-0.1l0.2-0.1l0.1-0.2
		l-0.2-0.1l0-0.6l0.2-0.2l0.3,0.6l0.2,0l0.3-0.2l0.1,0.1l0.3,0l0.2,0.1l0.4-0.3l0.3,0l0.2-0.2l0-0.2l0.2-0.1l0.1-0.1l-0.1-0.3
		l0.1-0.1l0-0.1l0-0.1l-0.1-0.1l0.8-1.3l-0.1-0.1l-0.4,0.3l-0.3-0.1l-0.1-0.3l0.4-0.2l-0.3-0.2l1-0.6l0.4,0.1l-0.4,0.9l3.3-6
		l-0.1-0.1l0.2-0.2l0.2-0.6l3.8-1.3l0.2-0.3l0.6-0.1l0.1-0.4l0.1-0.1l-1.3-0.2l-0.4-0.3l0.9-0.5l0.4,0.3h0.2l0.2,0.2l0.2,0l0-1
		l4.1-2.9l-0.2-1l0.3-0.7l-0.2-0.5l0.2-0.8l0.3-0.3v-0.1l-0.8-0.9l3.3-4.7l-0.2-0.2l0.9-1.4l0-0.1l-0.1-0.1l3-9.4l-0.2-0.3l0.4-2.1
		l-0.2-0.2l-0.1,0.2l-0.5-0.3l4.9-24.6l0.3-0.2l-0.1-1.1l2.1-2.9L606.4,276.7z M554.1,382l-1.2-0.1l-0.2,0.4l-0.1,0.1l-0.3-0.1
		l-0.2,0l-0.7,1l0.1,0.3l-0.1,0.3l0.1,0.3l-0.2,1.3l-0.4,0.1l-0.1,4.2l-0.6,0.8l-1.4-0.6l-0.6-2.3l-0.2,0l-0.2,0.3l-0.1,0l-0.1,0
		l-0.6-0.6l0-0.5l-0.2-0.2l-0.1-2.3l0.6-2.8l3.9-2.8l0.8,0.6l0.1,0.6l0.6,0.3l0,0.4l2,1l0,0.1L554.1,382z"/>
</g>
<polygon class="st1" points="569.7,379.3 570.6,379.2 570.9,379.5 571.3,379.2 571.5,379.3 571.6,379.2 571.7,378.4 571.1,378.5 
	570.9,378.4 570.9,378.3 570,378.7 "/>
<g>
	<polygon class="st2" points="552.7,380.4 552.7,380 552.1,379.8 552,379.2 551.2,378.6 547.4,381.4 546.8,384.2 546.9,386.6 
		547.1,386.8 547.1,387.3 547.6,387.9 547.8,387.9 547.8,387.9 548.1,387.6 548.2,387.6 548.8,389.9 550.2,390.5 550.8,389.7 
		550.9,385.5 551.2,385.4 551.5,384 551.4,383.7 551.5,383.4 551.4,383.2 552.2,382.2 552.3,382.2 552.6,382.3 552.7,382.2 
		552.9,381.8 554.1,382 554.7,381.5 554.7,381.4 	"/>
</g>
<g>
	<path class="st1" d="M412.8,246.3V119.8l0.8,0.9l7.4,2.2l0.3,0.4l4.4,1.4l0.3,0.8l1.2,0.7l-0.2,1.1l1.2,2.7l9.5,5l9.1-2.5l0.3-0.5
		l1.1-0.5l3-8.3l0.4-0.1l1.6-3.1l0.2,0.1l0.5-1.5l-0.2-0.1l1.7-4.8l-0.7-1.7l2.6-9.3l0.2,0l-0.1-0.3l0.5-0.5l0-0.6l0.3,0l0.1-1.1
		l-0.4-1l0.1-0.1l-0.5-10.4l-1.4-2.1l1.8-7.7l0.3,0.1l0.2-0.1l-0.2-0.2l0.4-1.1l-0.2-0.4l-0.3-0.2l-0.7-2.4l-0.2-0.1l0-0.1l0.6-1.2
		l0.2,0.2l0.9-0.6l1.2-2.5l0.1,0l0,0.5h0.1l0.2-0.3l0.2,0.1l1.1,2.9l-0.4-1.9l1.3-0.5l-1.3-0.2l-0.3-0.4l-0.7-0.2l1.4-0.9l0.5,0
		l-0.7-0.2l-0.2,0.2l-1.3-0.1l-0.6-0.7l-0.7-0.3l0.7-0.5l-0.1-0.1l-0.6,0l-0.4-0.2l0,0.1l0,0l0,0v1l0.5,0.1l0,0.1l-1.2,0.2l-0.1-0.3
		l1.6-3.9l1.2,0l-0.2-0.2l0-0.3h-0.1l-0.2,0.2l-0.1,0l-0.1-0.1L461,61l0.5-0.1l-0.2,0.5l0.3,1.5l0.6-0.9l0.7,0.4L463,62l0-0.2
		l-0.2-0.1l-0.4-0.6l-0.3,0l2.5-13l0.3-0.3l0.6-0.1l0.1,0.1l0.1-0.1l1.1-0.2l1.6-2.4l0.7,0l0.5-0.3l0,0l0,0.2l0.8,0.5l-0.2,0.4
		l-0.3,0.2l-0.3,0.6l-0.4,0.2l-0.2,1.2l0.5-0.3l0.3-0.7l0.6,0l0.2,0.8l0.3,0l0.1,0.2l-0.1,0.4l0.1,0.2l0.2-0.3l0.6-0.2l0.2,0.1
		l0.8,2.5l-0.2,0.3l0.3,1.3l0.1,0l0.5,1.1l-0.6,1.2l0.2,0.3l0.3,4.3l0.8,0.7l0.2,0l0.6,0.5l1.4-0.4l0.9,0.8l0.8-0.1l0.1,0.2
		l-0.1,0.1l-0.4,0.1l-1.3,2l-0.1,0l-0.1,0.1l0,0.9l-0.1,0.2l0.2,0.2l-0.2,1l0.1,0.1l1.1,0l1.1,0.8l0.6,1.9l1.5,0.8v0.1l-0.4,0.6
		l0.1,0.1l-0.6,2.6l0.3-0.4l0.4,0.2l0.3-0.2l0.4,0.1l0.9-0.3l-0.6,1.1l0.4,5.4l0.8,0.9l-0.1,1.3l0.2,0.1l-0.8,3.1l3.9,9l1.1,0.3
		l0.1,0.2l2.9-2l0.2-1.2l0.2-0.2l0.2,0.3l0.2-0.2h0.1l0.3,0.5l0.5,0.1l0.1,0.1l1.7-0.8l0.5-1.2l0.4,0.2l0.9,1.2l-0.1,1.3l0.2,0
		l0.4-0.3l0,0.5l-0.2,0.3l0,1.1l0.7,0.9l1,0l0.5,0.6l1.3,0.2l0.1,0.1l0.1,0.3l0.3,0.3l0,0.7l1.1,1l0.3-0.2l1.2,0.6l0.8-0.1l-0.1,0.3
		l0.8,1.1l0.9-0.1l-1.2,2l0.2,1.9l0.3,0.2l0.4,0l0.2-0.5l0.2,0.2l0.1,0.3l-0.1,0.2l-0.7,0.4l-0.1,0.2l0.2,0.2l-0.1,0.1l-0.1,0.4
		l-0.3,0.2l-0.1,0.7l0.1-0.1h0.1l0.2,0.8l-0.2,0.2l0.1,0.2l0.1,0.1l0,0l0.5,0.4l0.1,0.4l-0.2,0.4l0,0.1l0.1,0.1l0.6,1.4l-0.1,0.8
		l0.2,0.2l-0.2,0.9l1.2,1.6l-0.2,2.2l0.3,0.2l0.1,0.4l-0.7,2.9l0.2,0.2l0.3-0.1l4.1,5.4l-0.1,0.2l-0.4,0.1l0,0.2l0.4,0.5l0,0.4
		l0.1,0l0.1,0l0.1-0.1l-0.1-0.7l0.6-0.6l0.4,0.3l0.2,0l0.6-0.5l0.4,0.1l0,0.2l-0.1,0.2l0,0l-0.2,0.2l0,0.1l0.1,0l-0.7,2l0.3,0.2
		l2,5.4l-0.1,0.1l1,1.5l-0.5,0.7v1.1l-0.3,0.3l0.2,0.1l0,0.4l0.3,0.4l-1.4,3.8l0.2,0.7l-0.1,0.3l1.1,1.5l0.7,0.2l0.3,0.5l0.3,1.4
		l0.3-0.1l0.6,0.2l0.2-0.1l0.6,0.1l-0.9,4.3l5.3,4.5l0.7-0.3l2,1.7l0.6-0.1l0.7-0.6l0.1-1h0.1l0.5,0.9l-0.2,0.7l1,1.4l0.2-0.2l3.8,0
		l-0.1-0.5l-0.5-0.6l0-0.1l0.3,0.1l2.2,5.1l-0.4,0l1.5,1.6l1.3,0.1l-0.4-1.9l1.2,0.6l0.2,1.2l1.1,1.1l0.8,0l0.1-0.3l0.1-0.1l0.3,0.1
		l0.3-0.2l0.7,0.8l1.8,0.4l-0.1,0.3l0.4,0.6l-0.5,0.2l0.1,0.1l0,0.1l0,0.1l-0.1,0.1l1.8,1.3l-0.1,0.2l0.4,0l0.4-0.2l0-0.2l-0.5-0.1
		l0.1-0.2l0.5-0.1l0.1-0.2l0-0.1l-0.4-0.2l-0.1-0.4l0.1-0.2l0.2-0.1l0.3,0.3l0.5,0.1l0.5-0.4l0.1,0.1l0.3,1.5l0.3,0.1l-0.1,0.4
		l0.1,0.1l0.2,0l0.1-0.1l0.1-0.5l0.2,0.2l-0.1,0.2l0.3-0.2l0,0.3l-0.2,0.2l0.3,0.2l-0.1,0.5l0.9-0.3l0-0.3l0.6,0.5l-0.1,0.3l0.3,0.5
		l0.3,0.1l0.1,1.2l0.9,0.7l-0.3,0.1l0.5,0.8l-0.2-0.1l-0.2,0.1l-0.1-0.1l-0.1-0.1l-0.1,0l-0.1,0.1l-0.2-0.3l-0.3-0.1l0.1-0.3
		l-0.1-0.3l-0.2-0.2l-0.2,0l0,0.1l0,0.1l-0.2,0.3l-0.4,0l-0.1-0.2l-0.4-0.2l0.3,0.8l-0.6,0.7l-0.3,0l0.5,1l0.3,0l0.1,0.2l-0.2,0.4
		l0.2,0.1l0.2,0.4l0.3,0.1l0.4,0.6l0.4-0.1l0.2,0l0.1,0.2l0.1,0.7l-0.3,0.8l0.2,0l0.4-0.6l0.6,0.5l0.6-0.1l0.5,0.5l0.1,0l0-0.1
		l0.1,0l0.5,0.1l0.1,0.2l-0.5-0.1l-0.1,0.1l0.2,0.4l-0.2,0.3l0.9-0.1l0.2,0.3l0.5,0l0.3,0.5l0.3,0.2l0.4,0.6v0.5l-0.4,0.7l0,0.5
		l0.5,0.8l0.1-0.1l0.2-0.3h0.1l0.1,0.2l0,0.1l0.3,0l0.1,0.3l-0.1,0.1l0,0.1l0.3,0.8l-0.4,0.3l0.1,0.2l0.6,0.2l-0.6,0.5l0,0.7l0.2,0
		l0.5-0.4l0.1,0.2l0.5,0.1l0,0.6l0.2,0.1l0.1,0.3l0.1,0.1l0.3-0.1l0.3-0.6l0.1,0.1l0.1,0.5l-0.7,0.9l0.5,1.2l-0.1,0.2l-0.4,0.2
		l-0.1,0.2l1.8,5.2l-0.3,0.3l0,0.1l0.3,0.1l0.4,0.7l-0.3,0.5l0.7,0.3l0.4,0.6l0.2-0.1l0.1,1.1l-0.5,1l0.8-0.3l1-1.2l2.9,3.6
		l-1.5-4.1l0.3,0.1l-0.3-0.6l0.7-1.7l0.9-0.4l0.1,0.1l0.3,0.2l0.5,1.1l0.4,0.3l0.1,0.5l0.4,0.5l-0.2,0.2l0.2,0.4l5.2,3.1l0.1-0.1
		l-0.5-1l0.1-0.3l-0.4-0.4l0.3-2.1l0.4,0.3l0.2-0.1l0.2,0.1l0.1,0.2l-0.2,0.1l0.1,0.2l0,0.1l-0.1,0.1l0.5,0.4l0.1-0.1l-0.1-0.2
		l0-0.4l0.2-0.1l0.4,1.2l0.5,0.2l0,0.3l-0.7,0.6l-0.1-0.3l-0.1-0.1l-0.2,0.1l-0.1,0.2l0.2,0.2l-0.2,0.4l0.3-0.1l0.2,0.1l0.1,0.8
		l0.1,0.1l0.3-0.2l0.1-1l0.1-0.1l0.1,1.7l0.3,0l-0.2,3.7l-0.6,0l-0.1,0.1l0.5,0.5l-0.1,0.4l0.1,0.2l-0.1,2l0.5,0.3l-0.1,0.5l0.2,0.4
		l0.1-0.2l0.2,0.3l-0.1,0.4l-0.6,0.5l1.2,2.4L573,212l-0.7,0v0.1l0.7,0.3l0.2,0.5l0.6-0.4l0.3,0l0.4,0.3l0.5-0.1l2.3,3.5l0.8,0.1
		l0.2,0.5l0.3,0l1.6,2.1l0.2-0.3l1,0.7l0,0.1l-0.2,0.2l0.1,0.4l0.3,0.2l0.1-0.2l0-0.1l0.1-0.5l0.2,0.2l0.3-0.1l0.9,0.6l-0.3-0.9
		l-0.5-0.3l-0.1-0.1l0.1-0.2l0.7,0l0.7,0.5v0.1l-0.3,0.3l0.1,0.2l0.2,0.1l0-0.2l0.5-0.4l0.7,1.9l0.5,0.1l0.2-0.3l0.1,0l0,0.4
		l9.2,13.5l-0.1,0.1l-0.1,0.1l-0.7-0.1l0,0.1l0,0.1l3.1,1.4l0-0.5l0.1-0.1l0.1,0.1l0.1,0.3l0.9,0.2l0.2,1.8l-0.6,0.5l-0.1,0.3
		l0.9-0.5l0.2,0l0.1,0.2l-0.4,0.3l0.1,0.1l0.3,0.1l-0.9,1.2l0.1,1.2l-0.3,0.1l0.7,0.6l-0.3,0.1l0.3,0.4l0.5,0.1l0.6,1.7l-0.2,1.2
		h0.1l0.6-1.8l-0.2-0.3l0.2,0.1l0.6,1.5l0.3,0.1l0.7-0.1l-1.4,6l0.5,0.2l0.1,0.2l-0.2,3.9l0.4,0.1l0.1,1.5l0.1,0.1l-0.1,0.1
		l-0.1,0.7l0,0v0.1l0-0.1l0.8,3.1l-0.2,0.3l-0.5-0.2l-0.9,0.4l-0.5,1.2l0.7,0.1l0.3-0.2l0.1,0.1l0,0.6l-0.7,0.7l0,0.2l1.3,0.7
		l0.5,1.4l0.5,0.1l2,4.3l-0.1,0.4l0.1,0.1l0.2-0.1l0.1-0.3h0.1l-0.2,2l-0.2-0.4l-0.2,0.4l0,0.5l0.1,0.1l0.3-0.4l0.1,1.7l0.7,1.1
		l-1.9,1.4l-2,0.1l-1.1,1.3l-3.1-0.4l-1.2,0.5l-1.8-0.9l-0.3,0.5l-0.2,0l-0.3-0.2l-0.1-0.4l-0.3-0.3l-0.2-0.1l-6.5,3.9l-0.1,0.3
		l1.4,2l-0.7,2.8l-1.9,0.2l-0.3,0.7l-0.1,0l-0.7-0.3l-0.5-0.9l-0.1,0l-2.1,1l-0.4,1.5l-1.8,1.6l-0.3-0.1l-0.1-0.6l-0.3-0.2l-0.2-1.3
		l0.1-0.2l-0.3-1.1l-2.8-1.3l-0.2-1.3l-7.4-1.3l-1.9-1.6l-7.4,1.3l-0.2-0.2l-0.9-0.1l-0.1-0.4l-0.2-0.2l-6.2,4l-0.4,1.2l-1.1,0.9
		l-99.2,0v-42.1H412.8z M601.2,258.2L601.2,258.2v-0.1V258.2z M426.5,123.9L426.5,123.9l0.2,0l0.1-0.3l0.3,0l0.1-0.1l0-0.2l-0.3,0
		l-0.5,0.2l0.1,0L426.5,123.9z M430.6,127.6l0-0.3l0.1-0.2l0.4-0.1l0.1,0.2l0.1,0.1l0.1,0l0.2-0.2l0.6-0.1l0.1-0.3l-0.3-0.3l0.1-0.2
		l-0.9-0.7l0,0.2l-1.1,1.3L430.6,127.6L430.6,127.6L430.6,127.6z M568,195.8l0.3,0.2l-0.2,0.2l0,0.2l0.2,0.1l0.4-0.3l0-0.1l0.3-0.2
		l0.1-0.1l-0.1-0.2l-0.3-0.1l-0.3-0.7l-0.3,0l0,0.1l0.2,0.4l-0.4,0.7L568,195.8z M574.9,212.2l2.3,3.6l0.7,0l0.3-0.4l0.1,0l0-0.2
		l-0.1-0.8l-0.5-0.3l-0.1-2.3l-0.5,0.6l-0.2-0.1l0.2-0.2l-1.4-0.5l0-0.3l-0.1,0l-0.3,0.1l-0.2-0.1l0.4,0.7l-0.2,0.2L574.9,212.2z
		 M565.8,188.4l0.6,0.3l0.3-0.6l-0.3,0.2l-0.1-0.1L565.8,188.4L565.8,188.4z M560.7,194.4l-0.1,0.4l0.1,0.1l0.3-0.1l0.3-1.1
		l-0.2-1.2l-0.3,0.3l0,0.2l0.1,0.1l-0.3,1.1L560.7,194.4z M565.2,187.5l0.1-0.1l0.1,0l0.4,0.2l0.1,0l0-0.1l0.1,0.1l0.1-0.3l-0.7-0.5
		h-0.1l0.1,0.4l-0.1,0.2L565.2,187.5z M600.2,235.7l0.1,0.2l-0.2,0.3l0.2,0.8l-1,2.7l-0.5,0.4l0.1,0.8l0.4,0.1l0.2,1.5l0.7,0.9
		l0.3-0.1l0.2-0.9l-0.2-0.8l3.6-9l0-0.3l-0.8-0.8l-0.3-3.2l-1.8,1.7l0.3-0.1l1.1,2l-2.9,3.5v0.1l0,0L600.2,235.7z M579.3,217.2
		l0.1-0.2l-0.6-1.5l-0.1,0l-0.2,0.3l0.5,1.4L579.3,217.2z M604.9,265.7l-0.5,4.3l0.1,0.3l0.7-0.1l1.2-4.3h-0.8l-0.6-0.4L604.9,265.7
		z M558.7,197.7l0.4-1l0.1-0.1l-0.4-0.3l-0.1,0l-0.2,0.6l0.1,0.3l-0.1,0.3L558.7,197.7z M599.5,237l-0.5-0.8l-0.1,0.1l0.5,0.8
		L599.5,237z M427.1,122.6l0.2-0.3l0.1,0l-0.1-0.9l0.6,0.8l0.9,0l0.9-0.5l0.2-0.5l0.2-0.1l0.1,0.1l0.2,0.3l0.1,0.1l0.3-0.4l0-0.1
		l0.2-0.4l-0.1-0.5l0.1-0.1l0.1,0l0.4,0.2l0.1-0.1l0-0.2l-0.5-0.2l0-0.1l0.5-0.1l0.3-0.4l0.7,0.9l0.3-0.3l0.5-0.1l0.4,0.1l0.1-0.1
		l0-0.3l0.1-0.1l0.2,0.3l0.1-0.4l-0.1-0.4l-0.1,0l-0.2,0.3l-0.2-0.1l0.1-0.3l-0.7-0.1l-0.5-0.5l-4.8,1.7l-1.1,2.2l0.1,0.8
		L427.1,122.6z M465.3,39.1l0.3,0l0.5,0.3l0.6-0.9l-0.3-0.5l-0.8-0.1l-0.5,0.2v0.3l-0.3,0.2L465.3,39.1z M520.8,148.6l0-0.1l-0.4,0
		l-0.9-0.8l-0.1,0.1l-0.1,1l1.3,0L520.8,148.6z M466.6,43.8l-0.1-0.3l-0.3-0.2l-0.4,0.1l-0.2,0.3l0.1,0.3l0.3,0.2l0.4-0.1
		L466.6,43.8z M464.3,38.4l0.1,0l0.2-0.1l0.4-1l0-0.1l-0.3-0.4l-0.3-0.1l-0.6,0.9l0,0.2L464.3,38.4z M465,43.6l-0.5,0.6l-0.3,0.1
		l-0.1,0.5l0.5,0.9l0.4,0.2l0.2-0.5l0.9-0.2l0-0.1l-0.9-1.5L465,43.6z M522.5,154.2l0.5-0.3l0.1,0.2l0.1-0.6l0-0.2l-0.1-0.1l-0.1,0
		l0,0.1l-0.3-0.2l-0.1,0.2l-0.5,0.1l-0.1,0.1l0.2,0.4L522.5,154.2z M548.3,167.2l0.2,0.1l0.1-0.2l0.1,0l0,0l0,0l0,0l0.1-0.1l0,0.4
		l0.4-0.5l-0.2-0.4l0.5-0.7l-0.2-0.2l-0.1,0.2l-0.2,0.1l-0.1,0l-0.1-0.1l-0.1,0l-0.1,0.1l0,0.1l0.1,0.2l-0.4,0.6L548.3,167.2z
		 M549,168.2l0.2,0.1l-0.5,0.7l0.1,0.1l0.2,0l0.3-0.2v0.5l0.1,0l0.3-0.2l0.2,0.2l0.3-0.6l0.3,0.4l0.1-0.2l-0.5-0.8l-0.2,0l-0.3-1.1
		l-0.2,0.2L549,168.2z M543.1,165.7l0.1-0.6l-0.1-0.3l-0.3-0.2v1L543.1,165.7L543.1,165.7z M550.4,171.7l-0.2,0l-0.1,0.1l0,0.2
		l0.1,0.1l0.5-0.6l0.3-0.1l-0.3-0.8l-0.3,1L550.4,171.7z M604.7,265.2L604.7,265.2l0.6-4.5l-0.1-0.2l-0.1,0l-1.1,0.5L604.7,265.2z
		 M514.6,144.1l0.5,0.8l0.9,0.4l0.5-0.8l0.2-0.1l0-0.1l-0.4-0.4l0.2,0l0-0.1l0-0.1l-0.4-0.1l-0.4-0.6l0.3-0.9l-0.7-0.1l-0.2-0.1
		l-0.1-0.3l-0.2,1l-1.5-0.4l-0.1,0.3l0.8,1.3l0.2,0.1L514.6,144.1z M514.5,143.6l-0.2-0.1l0.3,0.5L514.5,143.6z"/>
</g>
<g>
	<path class="st3" d="M538.8,404l23,11.3l-0.2,0.3l-2.2,0.4l0.1-0.1l0.1-0.1l0-0.1l-0.1-0.1l0.1-0.2l0-0.1l-0.1,0l-0.1,0.3l-0.7-0.2
		l0.6,1.1l-1.2,1.8l-0.6,0.2l-0.3,0.4l-0.8,0.2l-0.5,0.6l-2.4,0.2l-0.3,0.4l-0.2-0.5l-0.1-0.1l-20.7,4.6l-9.2,9.6l-0.1,0l-0.1-0.2
		l0.2-0.2l-0.2-0.1l-4.9,1l-0.3,0.3l-0.8-0.7l-1.4,0.2l-0.7,0.8l0.7,1h0.3l0,0l0.1,0.8l0.2,0.1l-0.1,0.3l0.1,0.2l0.2,0l0.9-0.9
		l0.4,0l0.1-0.1l0.5-1l0.2,0l0.2,0.3l-0.5,3.5l0.1,0.1l0.1,0l0.2-0.1l0.2,0.7l-0.1,0.1l-0.5,0.3l0.1,0.3l-0.2,0.5l-0.4,0.1l-0.7-0.4
		l-0.2-0.5l0.2-0.2l0.1-0.2l-3.2-3.9l-0.9,0.2l-0.2,1l-1,0.2l-2-3.9l1.2,0.7l-0.5-0.8l-0.9-0.2l-1.7,0.7l-1.1-1.6l-1.7-0.7v-0.1
		l0.8-0.5l-0.2-0.2l0.2-0.5l-0.2-0.5l0.4-0.2l0.4,0.2l0.3,0l0.6-0.6l-0.2-0.5l-0.3-0.2l0.1-0.4l-0.7-1.2h-1.5l-0.1,0.2l-0.1,0
		l-0.2-0.1l-0.5-0.1l-0.2,0.1l0.1,0.2l-0.4,0.8l-0.3,0.1l-0.1,0.2l0.3,1.4l-1.4-0.1l-0.3,0.5l-0.4,0.1l-0.3,0.6l0.1,0.1l-1.1,0.2
		l-0.1,0.2l-3.3-2.8l0-0.2l0-0.1l1.6,1l2.2-0.6l0.2-0.3l-0.1-0.3l1.7-2.8l-0.2-1.2l-1-0.8l-0.6-1.6l-0.6-0.5l-0.3,0l-0.1,0.5
		l-0.8-0.1l-0.2,0.1l-0.3,0.7l-3.2,1.9l-0.2,0.4l0.1,0.3l-0.1,0.1l-0.1,0l-0.3-0.2l-1.4,0.3l-0.1,0.4l0.2,0.2l2.2,0.2l1.2-0.8
		l0.9,0.6l-0.1,0.8l-0.3,0.1l-0.4,1l-2.9,0.1l-2.2,1.7l-0.3,0l-2.9,2.2l0,0.3l-0.3,0.3l-0.5,0.2l-0.4,0.9l-2.5,1.3l-0.5,1l-0.2,0
		l-1.4,1.1l-12.7-7.2l-0.1-0.3l0-0.1l0-0.1l-0.2,0l-0.1,0.1l-0.1,0.5l-0.9-0.6l-1.4,0.1l-0.2,0.3l-0.6,0.2l-6.3-2.2l-1.1,0.7
		l-0.2,0.5l0.4,1l-0.1,0l-0.6-0.2l-0.5,0.8l-0.2-0.1l-0.6-0.9l-0.8-0.1l-0.2,0.4l-0.1,0.1l-0.5-0.3l0.4-0.8l-0.1-0.5l-5.3-3.9
		l0-62.7l0.4,0.5l0.6,0.7l1.4,0.1l0.4,0.3l0.6-0.2l1.2,1l0.8-0.2l0.8,0.5l0.6,0l0.1,0.1l0.1,0.5l0.2,0.2l2.5-1.7l3.8,0.2l0.5,0.8
		l0.7-0.2l0.6,0.5l0.4,0l0.3,1.2l1.1,1.1l0.6-0.1l0.1,0.3l-0.4,1.3l1.9,4.7l1.2,0.6l0.2-0.1l-0.1-0.8l0.7,0l0.1-0.1l0.1-0.3l0,0
		l0.3-1.7l0.8-0.3l0.7,0.5l0.4,1l0.5-0.3h0.2l0.6,0.5l0.2-0.3l3.4,1.3l0.2,0.6l0.6-0.1l0.4,0.3l-0.1,1.1l-0.2,0.2l0.6,3.9l0.9,1
		l1.3,0.4l0.3,0.5l0,0.6l-0.2,0.4l0.1,0.4l4.9,2.6l0.2,0.5l0.8,0.2l2.6,2.7l0.4,0.1l3.8,5l0.8,0.1l0.3,0.4l0,0.1l0.2,0l0.1,0.3
		l0.1,0.1l0.9-0.1l1-0.9l0.8,0.4l0.2,0l0.1-0.3l-0.6-1.2l0.5-1.8l0.4-0.3l6-0.6l3.6,2.3l1.9-0.2l0.3,0.3l0.1,0.3l0.1,0.1l2.9,0.6
		l0.1-0.3l1.8,0.2l0.2-0.1l0.7-1.1l0.4,0.1l0.4-0.2l0.4,0.2l1.1,0.1l0.8,0.7l0.8,0.1l0.2,0.3l0.5,0l0.4,0.4l0.4-0.2l1,0.5l0.2-0.4
		l0.4-0.1l0.5,0.3l-0.1,0.5l0.2,0.9l0.7,0.7l1.1-0.3l-0.1-0.2l-0.9-0.2l-0.5-1.3l0.7-1.1l0.1,0l0.3,0.3l1.3-0.1l0.2,0l0.7,0.4
		l0.9-1.8l0.9-0.2l0.5,0.2l0.2,0.5l0.2,0.1l1.8-0.9l2.6,1l0.4,0.6l0.7,0.3l0.1,0.2l-0.1,0.7l0.1,0.3l0.5,0.3l0.5,3.2l-0.2,0.4
		l1.1,1.7l0,1l0.1,0.2l0.5,0.1l0.2,0.7L538.8,404L538.8,404z M501.3,431.4l0.8-0.1l0.4,0.2l0.3-0.2l0.8,0l0.7,0.6l0,0.1l0.1-0.1
		l-0.2-0.8l-0.3,0l0-0.1l0-0.1l-0.2-0.3l0.2-0.1l-0.4-0.3l-1,0.2L501.3,431.4z M503.4,429.3l0.9,0.4l0.3-0.2l0.5-0.6l1-0.2l-0.5-0.7
		l-1.1,0l-0.7-0.4l-0.1,0l-0.1,0.1l0.1,0.3l-0.3,0.5L503.4,429.3z M519.6,435.2l0.9,0l0.1-0.1l0-0.1l-2.4-0.1l0.3,0.5l0.6,0.3l0.2,0
		L519.6,435.2z"/>
</g>
<g>
	<path class="st0" d="M307.2,97.1l0.9,1.2l0.1,1l-1.1-2.1L307.2,97.1L307.2,97.1z M308.4,98.1l0.2,0.1l0.1-0.1l0-0.3l-0.6-0.6l0,0.1
		l0.3,0.6L308.4,98.1z M412.8,246.3V119.8l-3.2-3.8l-4-1.3l-0.1-0.2l-0.4,0l-4.8-3.4l-0.8,0.4l-0.1,0.3l0,0.2l-0.2,0l-0.6-0.4
		l-1.1-0.1l-0.2,0.4L397,112l-0.2,0l-0.1-0.3l0.2-0.7l-1.6-2l-0.1,0l-0.4,0.2l-1.7-1.3l-0.8-0.1l-1-0.9l-0.3-1.6l-6.3-4.1l-0.2,0.1
		l-0.8-0.9l-0.1,0l-0.4,0.1l-2.1-1.7l-0.8-2.5l-0.2,0l0.1-0.1l0.7,0.1l2.5-3.8l0.3-0.1l1.8-2.5l0.4-0.1l0.1-0.2l0.5-0.1l0.2,0.1
		l0.2-3l0.8-0.8l0.1-0.6L388,85l0.1-0.5l-0.1-0.1l0.9-1.7l0-0.1l-0.1-0.1l-0.2,0l-0.1,0.1l0,0.2l-0.5,0.7l-0.7,0.4l-0.4-0.1
		l-0.2-0.3l0.1-0.3l0.4-0.2l-0.1-0.3l-0.2,0.1l-0.2-0.1l-0.4-0.8l0-0.3l0.2-0.2l-0.2-1.2l0.2-0.3l0.8,0.5v-0.2l0.1-0.1l0.2,0
		l0.1-0.2l0-0.1l-0.1-0.1l-0.1,0l-0.1,0.1l-0.1,0l-0.1-0.1l0-0.1l0,0l0,0L387,79l-0.4-0.2l0.6-1.2l0.1,0l0.2,0.4l0.3-0.9l0.2,0
		l0.2,0.2l0.2,1h0.1v-1l0.1-0.1l0.3,0l0,0l0-0.1l0.6-1.1l0.1,0l0.2,1.5l0.5-0.1l0.1-0.2V77l0-0.1l0.1-0.1l0.1,0l0.1,0.1l0.2-0.2
		l-0.2-0.6l0.2-0.3l0.1,0l0.2,0.4l0.4,0l0.2-0.1l0.1-0.2l-0.2-0.6l0.1-0.4l0.3-0.1l0.3,0l0.4,2l-0.2,0.3l-0.4,0.1l-0.2,0.7l0,0.1
		l0.1,0l-0.1,0.2l1.3-1.3h0.1l0.1,0.4l0.2-0.1l0.5-1.4l0.2,0.1l0.4-1.1l-0.5-0.3l0-0.1l0-0.2l-0.2-0.1l-0.1-0.2l0-0.3l0-0.1l0.3-0.1
		l0.1,0.1l0.1,0l0.1-0.2l0.2-0.1l0.1,0l0.1,0.5l0.1,0l0.3-0.2l0.2,0l0,0l0,0.1l0.4,0.3l0.1-0.1l-0.1-0.5l-1.2-0.7l-0.1,0l0-0.5
		l-0.2,0.1l-0.5-0.5l-0.2-0.9l0.1-0.1l0.6,0.6l0.2,0l0.1-0.1l0.1-0.4l-0.2-0.4l0.1-0.1l0.3,0.1l0.3,1l0.1,0.1l0.2,0l0.1-0.2l0-0.4
		l0.2-0.1l-0.4-0.6l0.1-0.2l0.2-0.2l0.7-0.1l0-0.8l0.5-0.7l0.5-0.2l-0.4-0.7l0-0.4l0.6-0.4l0.1,0l0.1,0.1l-0.4,0.9l0.1,0.3h0.1
		l2.5-2.5l-0.6,0l0-0.7l-2.2-1.6l-0.1,0.2l-0.9,0.3l0.1,0.1l0.7,0.2l0.2,0.2l-0.6,0.5l-0.4,0l-1.3-1.7l0.1-0.3l-1-1.6l-0.2,0.3h-0.1
		l-0.2-0.4l1.2-0.4l0.3-0.4l-0.2-0.4l-0.1-0.1l-0.1,0.5l-0.7,0.4l-0.8-0.1l-1.6,1.4l-0.4,0l-0.9,1.3l-0.5,0.1l-0.1,0.1l0,0.2
		l0.1,0.1l0.3-0.1l0.4,0.3l1.3,0l0.2,0.2l0.1,0.2l-1,2.2l-1.4,0.6l-0.3-0.3l-0.7,0.2l-0.1,0l-0.1-0.2l-0.1,0l-0.2,0l-0.1,0.4
		l-0.2,0.1l-0.2-1.1l-0.3,0.1l-0.1-0.4l0.7-1.1l0.3-0.1l0.1-0.1l-0.1-0.3l-0.2,0l-0.9,0.4l-0.2-0.1l-0.3-0.6l0-0.2l1.5-1.7l-1.1,1
		l-0.4,0l-0.3,0.5l-0.2-0.4l-0.1-0.1l-1.2,1.1l-0.1,0.4l-0.3-0.1l-0.4,0.7l0.1-0.4l-0.6-0.5l-0.3-1l3.1-2.4V61l-2.1,0.5l-0.1-0.1
		l0.1-0.2l0.5-0.1l1.8-1.9l0-0.4l-0.7-0.3l-0.1,0.1l0.2,0.7l-0.1,0.3l-0.4,0.1l-0.1,0.2l-1.2,0.9l-0.2-0.1l-0.7,0.3l-0.1,0.1l-0.3,0
		l-0.1-0.1l-0.3,0l-0.4,1.1l0.1,0.2l0.7-0.4l0.4,0l0,0.1l-1,0.8l-0.2,0l-0.3-0.5l-0.5,0.5l-1,0.1l0.2-0.2l-1.5,0.5l0.1,0.2l-0.1,0.2
		l-0.7,0.3l0.5,0.5l0.6,0.1l0,0.1l-0.3,0.2l-0.8-0.4l-0.8,0.1l0.6,0.8l-1.1-0.6l-0.8,0.3l-1.4-1.5l-1.3-0.2l-0.3-1.1L373,62
		l-0.5-1.2l-2.2,1.5l-0.1-0.2l-2.5-0.1l-1.2-0.9l-0.2,0.1l-0.1,0.5l-0.8,0.8l-0.1,0l-0.1-1.1l-0.1-0.2l0-0.1l0.1-0.1l0.3,0l0-0.2
		l-0.3-0.1l-0.4-0.7l-0.6,0.6l-0.2-0.9l-0.3-0.2l-0.2,0.1l-0.2,0.4l-0.8,0.4l-1.2-0.7l-0.1-0.3l0.2-0.3l0.3-0.2l0.3,0.1l0.2-0.3
		l0.4-0.2l-0.3-0.5l-0.2,0.2l-0.7-0.2l-0.1-0.1l-0.4,0l-0.6,0.7H359l-0.3,0.6l-0.5,0.2l-0.3-0.4l-0.1,0l-0.4,0.2l-0.3,0.7l-0.1-0.1
		l0.2-1.2l-0.1-0.2l-0.7,0.5l-0.9-0.3l0-0.1l0.2-0.2l-0.1-0.2l-0.1-0.1l-0.4,0.5l-0.6,0l-0.1-0.1l0.2-0.4l0.4-0.3l-0.9-0.1l-0.1,0.4
		l-0.3,0.1l-0.9-0.2l-1.4-2l0-0.6l-0.3-0.2h-0.1l-1.6-2l-0.5-0.1l-0.1,0.1l0.4,0.4l-0.1,0.6l-0.8-0.2l0,0.2l-0.6,0.3l-0.4,0.6
		l-0.5,0.3l-0.5-0.1l-1.7-2.3l-0.2,0.1l-0.1,0l-0.1-0.1l0.1-0.2l-0.9-1.2l-0.3,0.2l-0.2,0.7l-0.2,0.1l-0.2-0.1l0.1-0.5l-0.1-0.2
		l0-0.1l-0.5-1.2l-0.1,0.4l-0.2,0.1l-0.1-0.1l-0.1,0l-0.3,0.1l0.1,1.3l-0.3-0.2l-0.9-1.6l-0.3-0.1l-0.2,0.2l0,0.3l0.5,0.8l-0.1,0.2
		l0.2,0.7l-0.1,0.3l0.1,0.1l0.1,0L341,53l0,0.1l-0.1,0.2l-0.3-0.2l-0.2,0l0.2,0.8l-0.4,0l-0.3-0.3l0-0.7l-0.2-0.3l-0.1,0.1l0,0.3
		l-0.1,0.1l-0.3-0.1l0.2-1.4l-0.1-0.2l-0.4,0.3l-0.2-0.1l0-0.3l-0.4-0.2l-0.4-0.5l-0.4-0.1l-0.1,0l0.1,0.5l0,0.1l-0.2-0.1l0.2,0.7
		l-0.5,0.3l-0.7-1l-0.2,0.3l0.1,0.1l0,0.2l-0.1,0.1l-0.6-0.2l0.3,0.8l-0.1,0.2l-0.6-0.2l0.2,0.3l-0.5,0.2l0,0l2,0.1l0,0.3l0.1,0.1
		l0.5-0.1l0.1,0.1l0,0.2l-0.4,0.2l0,0.2l0.1,0.1l0.1,0l0.1-0.1h0.1l0.1,0.3l0.6-0.1l0.2,0.2l0,0.1l-0.2,0.1l-0.1,0.1l0.2,0.5
		l0.7,0.4l0.9-0.5l0.1,0.1l0.1,0l0.6-0.4l0.8,0.1l0.7-0.3l1.6,0.5l0.2,0.4l0.2,0l-0.1,0.2l0.4,0.3l-0.1,0.4l1.8,0.9v0.1l-0.2,0.1
		l-1,1.5l0.6,0.4l-0.1,3.2l1.5,0.8l-2.4-0.5l-1.5,0.8l-0.2,1l0.3,0.9l-0.8,1v-0.4l0.4-0.4l-0.6-1.3l-0.3-0.1l-0.8,0.3l-0.2-0.8
		l-0.1-0.1l-0.2,0.1l-0.2,0.6l-2.1,1.3l-1.6-0.7l-0.1-0.4l-0.1-0.1l-5.3,1l-1.8-1.4l-0.3-1.7l-0.1-0.1l-0.2,0.2l-0.5,1.8l0.3,0.4
		l-0.3,0l-0.9-0.8l-0.3,0.1l-0.4-0.5l-0.1,0l-0.1,0.2l-0.1,0l-0.4-0.3l-0.4,0.1l-0.2,0.4l0.7,2.3l-1.9-0.5l-0.1,0.1l-0.6,0.4
		l0.1,0.2l-0.4,0.1l0.1,0.2l-0.1,0.3l0,0.1l0.2,0.1l0.3-0.2l0.5,0.5l0.3,0l0.5,0.7l-1.1-0.4l-0.1,0.1l0.2,0.4l0.9,0.7l0.1,0.4
		l-0.7-0.4l-0.2,0.2l0.1,0.3l-1.1-1.3l-0.1,0.1l-0.1,0.5l-0.2-1.7L323,67l-1.1-0.3l-0.3-0.3l-0.9-0.1l-0.3,0.2v0.1l0.3,0.1l0.3,0.3
		l-0.3,0.1l-0.1,0.1l0,0.1l0.2,0.3l-0.3,1.2l0.1,0l0.3,0l0.1,0l0.1,0.2l0,0.1l-0.2,0.2l-0.2,0l-0.3,0.1l0.5,0.6l0.1,0l0,0l0,0l1,0.3
		l0,0.1l-0.4,0.1l-0.2-0.1l-0.1,0.1l0,0.1l-0.3-0.1l-0.1,0.1v-0.2l-0.3-0.2l-0.6-1.1l-0.1,0.1l0,0.2l0.3,0.4l-0.8-0.3l-0.6,0.3
		l0,0.4l-0.6-0.1l-0.2,2.7l-1.1,0.7l-0.5,0l-0.3-0.5l-0.2,0.2l-0.3,0l-0.2,0.2l-0.1,2.9l0.4,0l2.1,1.9l0.1,0.4l-0.7-0.4l-1.7,1.8
		l-0.3-0.2l-1.8,1l-0.7-0.2l-0.1-0.1l0-0.7l-0.1-0.2l-0.1,0l-0.3,0.7l-0.4,0.2l-0.7,3.2l0.1,0.1l0.2-0.3l0.2,0.2l-1.2,1.4l0,0.2
		l0.4,0.4l-0.3,1.3l-1.1,0.3l-0.3-0.1l0-0.4l-0.1,0.2l0.1,0.7l-0.2,0.3L308,88l-0.1,0l-0.3,0.1l-0.1-0.1l-0.1-0.4l-0.2,0.1l-0.3-0.2
		l-0.1,0l0,1.4l-1.6,3.2l0.7,0.5l0.1,0.3l0.3,0.1l0.1,0.3l0.2,0l1.5,0.9l2.4-0.5l-0.9,0.8l-1.5,0.1l-0.1,0.1l0.2,0.7l0.8,0.7
		l-0.1,0.2l0.1,0.2l0.7,0.5l0.9-0.3l0,0.2l-0.4,0.6l2.6-1l0.1-0.4l0.1,0.2l-0.1,1l-0.6-0.3l-0.8,0.6l0,0.1l-0.9,0.3l-1.9-0.4
		l-0.5,1.4l1.5,3.1l-0.1,0.1l-0.6,0.1l-0.1-0.1l-0.1-0.7l-0.4,0l-0.6,0.4l0.2-0.7l-0.4-1l-0.6-0.4l-0.5-1l-1.3-0.4l-0.2-0.3
		l-0.9-0.2l-0.2,0.3H304l-0.1-0.3l-0.4-0.3l-0.1,0.1l0.5,3.4l-0.2,0.1l-0.4,1.6l-0.1-0.4l0.2-0.4l-0.3,0l-0.3,0.7l-0.2,0l0.6-1.6
		l-0.3-0.5l0.1-1l-0.4-0.4l-0.4-0.1l-0.2-0.5l-1.3-0.5v148.1H412.8z M399.5,90.5L399.5,90.5l0.1,0.2l-0.3-0.1l-0.1,0.1l0,0.2
		l-0.6-0.3l-0.2,0.1l-0.1-0.1l-1.1-0.2l-0.7,0.4l-3.2-1.2L392,90l-0.1,0l0-0.2l1-0.6l0.3-0.6l-0.3-3.9l0.2-0.1l0.5,0.4l0.6-0.3
		l0.1-0.5l0.4,0.5l0.2-0.3l0.3,0.2v-0.4l0.2,0.1l0.2-0.1l0.1-0.1l-0.2-0.2l-0.1,0.1l-0.2-0.6l-0.2,0l0.1-0.2l-0.1-0.1l-0.1,0L395,83
		l0.5,0l0,0.1l0,0.3l0.1,0l0.1-0.1l0,0l0.2-0.2l0.2,0.1l0.3-0.6l0.3,0l0.1-0.1l0.1,0.2l-0.1,0.6l-0.4,0.2l-0.1,0.1l0,0.3l0.6,0.1
		l-0.3,0.4l0.2,0.5l1.2,0.3l0.3-0.3l0-0.3l-0.1,0l-0.2,0l0.3-0.7l0.8,0.1l0.3,0.6l-0.8,1.4l-0.4-0.1l-0.7,0.5l-0.1,0.7l0.6,0.4
		l-0.3,0.1l-0.1,0.2l-0.2-0.1l-0.1,0.1l-0.1,0.2l0,0.2l-0.3-0.2l-0.2,0l-0.2,0.1l0.2,1.4l0.8,0l0-0.3l0.1-0.2l1,0.8l0.1,0l0.4-0.8
		h0.1l0.1,0.1l0.5-0.1l-0.4,0.5l-0.1,0l0.2,0.6l-0.2,0.1l0,0.2l0.2,0.3L399.5,90.5L399.5,90.5z M398,84.5L398,84.5l0,0.1L398,84.5z
		 M394.1,54.4l0.2-0.3l0-0.2l1.8-2.6l0.6-0.2l0.2-1.2l0.2,0.1l0.1-0.2l-0.2-0.4l0.1-0.2l0.2,0.1l0.1-0.2l0.1,0l0.1,0.1l0,0.1
		l-0.6,2.1l-0.3,0.2l0,0l-2,3.1l-0.1-0.3l-0.3,0.3L394.1,54.4z M400.1,108.4l0.1,0v-0.7l0.2-0.2l0.1,0l0.2,0.5l0.4,0.2l0.1,1.3
		l0.3,0.1l0,0.2l-0.2,0.4l-0.4,0.2l-0.2-0.4l-0.4-0.1l-0.2-1l-0.4,0l0,0l0,0l-0.1,0l-0.1-0.4l0.2-0.4l0.2-0.1L400.1,108.4z
		 M397.6,108.5L397.6,108.5l0.2,0.5l0,0.1l0,0.1l-0.6,0.4l-0.1-0.1v-1.2l0.9-0.1l0.4,0.5l-0.2,0.1l-0.1,0l-0.1-0.2l-0.1,0
		L397.6,108.5z M398.8,107.5l0,0.1l0.1,0.2l-0.3,0.2l-0.1-0.2l0.1,0l0,0l-0.1-0.2l0.2-0.4l-0.2-0.2l0.5-0.7l-0.1,0.3l0.3,0.8
		L398.8,107.5z M398,63.2l-0.1-0.5l0.3-0.3l0.1,0.5l-0.1,0.3L398,63.2L398,63.2z M394.2,107.9l0-0.2l-0.2-0.3l0.3-0.4l0-0.3l0-0.1
		l1-0.2l0.2,0.3l-0.3,1.2l-0.1-0.1l-0.2,0l-0.1-0.1l-0.1,0.1l-0.3,0.1l-0.3-0.2L394.2,107.9z M396.1,109.9l-0.6-0.8l0.1-0.3l0.6-0.4
		l0.1,0.2l0.4,0.2l0.1,0.1L396.1,109.9z M355.1,57l-0.1-0.5l0.3-0.1l1.2-0.3l0.1,0.2l-0.1,0.1l-1,0.2l0.2,0.4l-0.3,0.2L355.1,57
		L355.1,57z M374.1,62.9l-0.4-0.9l0.7,0.3l0.2,0.1l0.1,0.2l-0.1,0.2l-0.2,0.1L374.1,62.9z M377,60.4l-0.9,0.2l0.5-0.4l0.5,0
		L377,60.4z M374.6,62l-0.2-0.3l0-0.1l0.6-0.1l0.3,0.2l-0.1,0.2l-0.3,0.1L374.6,62z M355.5,55.6l0.1-0.5l-0.1-0.2l1-0.4l0.4,0.6
		h-0.9L355.5,55.6z M344.3,49.7l-0.3-0.6l0.5,0.2l0.5-0.2l0.3-0.8l0.3,0l-0.2,0.4l0.2,0.8h-0.1l0.2,0.7l-0.2,0l-0.1,0.1l0,0.3
		l0.6,0.3l-0.3,0.2l-0.2,2l-1.4-2.3l0.1-0.1l0.3-0.1l-0.1-0.8L344.3,49.7z M387.5,57.8l-0.1-0.3l0.3-0.3l0.9-0.1l-0.4,0.5
		L387.5,57.8z M390.8,57l-0.7,0.5l0.1-0.1l0.1-0.5l1.2-1l0,0.1l0.4,0.4l0.6-0.7l0.1,0.1l0.1-0.2l1.2-1l0.1,0.3l-0.3,0.5l-0.8,0.4
		l-0.2,0.4l-0.8,0.4l-0.1,0l-0.1-0.1l-0.8,0.6L390.8,57z M394.8,58.6l0.8-0.5l0.1,0l-0.5,0.8l-0.7,0l-0.1-0.1l0.1-0.2l0.1,0
		L394.8,58.6z M394.1,58.9l-0.2,1l0.1,0.2l-0.1,0.2l0,0l0,0l0.1-1.1L394.1,58.9z M389.5,62.2l0.1-0.3l-0.1-0.3l0.4,0.2l0.1-0.1
		l0.3-0.3l0.1,0l-0.1,0.3l0.1,0.1l0.6-0.2l0.4-0.5l0.3,0.1l-1.8,1.2l-0.4-0.1L389.5,62.2z M318.3,52.5l-0.5-0.8l0.1-0.6l0.3-0.4
		l1.4,1.8l0.5-0.3l0.4,0.2l0.1,0.4l-0.5,0.8l0.1,0.2l0.1,0l1-0.8l0.1,0.2l-0.2,0.4l0.5,0.7l0.3-0.6l1.5-0.3l0.5-0.6l0.8,0l0.6,0.4
		L326,54l0.3-1.2l1.3-0.8l0.8,1.9l0.1-0.1l-0.2-1.2l-0.2,0l0-0.1l0.4-1l0.6-0.2l0.2,0.1l0.2,0.6l-0.2,0.4l0.1,0.1l0.2-0.1l0.2-0.4
		l0.2,0l0.3,0.2l0.6-0.2l0.2,0.1l0.1,0.2l0,0.5l0.3,0.1l0.3,1.1l0-0.1l0.3-0.1l0.3,0.1l0.1,0.8l-0.1,0.4l-0.1,0.1l-0.3-0.1l-0.2,0
		l-0.3,1.1l0.1,0.3v-0.1l0.1,0.3l-0.2,0.1l-0.4-0.1l0-0.1l-0.4-0.2l-5.3,4.5l-3.6-2l0-0.1l0.1-0.1l0,0l-2.3-1.4l-0.2-1.3l-0.6-0.6
		l-0.4-1.9l-0.1-0.1l0-0.1L318.3,52.5z M342.9,63.1l-0.6-0.4l0.1-0.2l0.5-0.2l0.3,0.2l0,0.3l-0.1,0.3L342.9,63.1z M345.1,57.9
		l-0.6-0.6l0-0.3l0.3-0.2l1.4,0.1l0.1,0.1l-0.1,0.7L345.1,57.9z M391,83.7l-0.1,0.2l0.2,0l0.2,0.4l-0.2,0l-0.2,0.6l-0.3,0.2h-0.3
		l0.1-0.1l0.1-0.3l-0.4-0.8l-0.3,0.1l0,0.9l-0.4-0.2l-0.1-0.1l0-1.2l0.6,0.2l0.2-0.7l0.4-0.3l0.4,0.1l0.1,0.2l0.4,0.2l0,0.2l0,0.1
		L391,83.7z M384.4,98.3l0-0.1l0-0.1l0-0.2l0.2-0.1l0.2,0l0.1,0.1l0.1,0.6l-0.1,0.1l-0.2-0.1l-0.7,0.2l0,0l0-0.1L384.4,98.3z
		 M390,80.3l-0.2,0l0.1,0.7l0,0l0-0.1l-0.3-0.3l0-1.4l-0.5-0.4l0.3,0l0.5,0.3l0.4,0.8l0.1,0l0.1,0.1l-0.1,0.2L390,80V80.3z
		 M313.9,59.2l-0.5-0.6l0.1-0.2l0.1,0l0.3,0.1l0.2-0.1l0-1.1l0.9,0.4l0.3-0.1l0.4-0.5l-0.2-1.3l0.2-0.5l-0.2-0.3l-0.5,0l1.5-1.9
		l0.9-0.3l0.2,0.6l0.5,0.8l-0.2,1.1l0.7,0.6l0.2,0.7l-0.2,1l0.3-0.1l0.8,0.2l0.1,0l1.1,0.8L321,59l-1.6,0.4l-2-0.8L313.9,59.2z"/>
</g>
<g>
	<path class="st3" d="M290.7,101.2l0.1,0.2l0,0.6l-0.1,0.2l-0.8-0.7l0-1.1l0.1-0.1l0.3,0.2l0.1,0.6L290.7,101.2z M293.1,98.4
		l-0.2-0.2l-0.2-0.1l0,0.8l1.1,1.4L293.1,98.4z M300.8,98.1l-5.8-1.5l-1.7,0.6l-0.1,0.1l0.6,0.6l0,0l-0.2,0.2l-0.1,0l-0.1,0l0.7,1.7
		l-0.1,0.5l-0.1,0l-1-0.8v0.8l-0.2-0.1l-0.3-1.6l-0.1-0.1l-0.4,0.5v0.3l-1.1,1.2l0.1,0.6l0.2,0.2l0.1,0.6l-0.1,0.2l0.8,1.1l0.1,1.7
		h-0.1l-2-2.8l-0.2,0.1l0,0.4l-0.1,0.1l0,2.5l-1,0.9l-0.1-0.1l0.5-0.6l0.2-1l-0.4-1l0.3-0.1l0.8-5.5l-0.2-0.1l0.9-0.3l-0.1-1.2
		l0.2-0.1l0.4,0.2v-0.4l-0.1-0.1l-0.1,0l-0.2,0l-1.6-0.9l-0.2-0.4l-0.6-0.5l-0.6,0.2l-0.1-0.1l-0.1-0.4l0.2-0.1l-1-0.8l-0.2,0.2
		l0-0.2l0.3-0.3l-0.1-0.2l-0.1-0.1l-0.1,0l-0.1,0.3l-0.1,0l-0.1-0.1l0-0.7l-0.4-0.2l-2.2-3l-0.1-0.1l-0.2,0l-1.3-1l-0.1,0.3
		l-0.4-0.3l-0.1-1.1l-0.3-0.4l-0.2,0.3h-0.1l-0.1-0.3l-0.3-0.1l-0.3-0.4l-0.2,0l-0.1,0.2l0.1,0.6l-1.2-0.9l-0.5,0.7l-0.1,0l-0.1-0.7
		l-0.2-0.1l-0.1,0.3l0.1,0.1l0.1,0.1l-0.5,0.7l-0.3-0.2l-0.3-0.9l-0.4,0l0.2-0.8l-0.3,0.1l0.1-0.2l-0.1-0.1l-0.4,0.2l0-0.6l-0.8-0.7
		l-0.6,0.3l0.3,0.2l-0.2,0.1l-0.6-0.3l-0.2,0.1l0,0.2l0.4,0.3v0.1l-0.3,0l-0.1,0.1l0,0.1l-0.2-0.1l0.1-0.3l-0.2-0.3l-0.1,0l-0.1,0.2
		l-0.7,0.1l0.8,1.7l0.5,0.2l0.1,0.1l-0.5-0.1l-0.1,0.1l0,0.1l0.4,0.2l-0.2,0.2l-0.5-0.2l0,0l-0.2,0l-0.2-0.1l-0.2,0.3l-0.5-0.1
		l-0.1,0.1l0.1,0.3l0.1,0.1l0.3-0.3h0.1l-0.3,0.6l0.1,0.2l-0.4,0.6l-0.1,0l-0.2-0.5l-0.3-0.2l-0.1,0.2l0.1,0.2l-0.1,0.8l-0.4,0.2
		l-0.1,0.7l-0.3-0.3l-0.1-0.9l-0.1-0.1l-0.5,0.2l-0.3-0.4l0.4-0.5l-0.1,0l-0.7,0.2l-0.1-0.1l0.5-0.6l0.1-0.4l0.2-0.2l0.1-0.3
		l0.5-0.3l-0.5-0.2l-0.7,0.8l-0.2,0l-0.2-0.3l-0.5,0.5l-0.2,0.5l-0.4,0l-0.2,0.2l0.2,0.2l-0.3,0.2l-0.3,0.6l0.1,0.1l0.2,0l0.4,0.4
		l0,0.1l-0.4,0.1l-0.2,0.5H267l-0.1-0.3l-0.1,0l-0.3,0.2l-0.3-0.1l0-0.1l0.2-0.1l0-0.2l-0.6-0.3l0.1-0.4l-0.2,0.1l0.4-0.4l0-0.2
		l-0.2,0l-0.4,0.1l0-0.5l0.6-0.1l0-0.2l-0.6-0.2l0.7-0.7l-1.4,0.8l0.2-0.4l0.3-0.2v-0.1l-0.3-0.1l0.2-0.3l0-0.1l-0.2,0.1l-0.6-0.1
		l0.2-0.4l-0.1-0.1l-0.1,0l-0.2,0.3l0,0.2l-0.1,0.1l-0.5-0.1l0,0l0.8,0.5l0.2,0.8l-0.3,0l-0.3-0.5l-0.2,0.1l0,0.5l-0.2,0l-0.5-0.5
		l-0.1,0.5l0.2,0.5l1.8,0.3l0.2,0.5l-0.1,0.1l0.1,0.7l0,0l-0.4,0.3l-0.5,0.1l-0.1,0.1l0.1,0.9l-0.1,0.2l0,0.3l0,0.1l-0.6,0.2l0,0
		l-0.3,0.2l-0.1,0l0,0.2l0.4,0.4l0.4,1.1l-0.1,0.1l-0.1,0l-0.2-0.1l-0.1,0l0,0.4l-0.2,0.1l-0.2-0.3l-0.5,0l-0.2,0.5l-0.1,0.1l0,0.1
		l0.3,0.4l-0.1,0.5l-0.1,0l-0.7-0.5l-0.1,0l-0.2-0.4l0.1-0.4l-0.2-0.1v-0.1l0.1-0.2l-0.2-0.5l0.4-0.2l0-0.1l-0.1-0.1l-0.1,0
		l-0.1,0.2l-0.1,0l-0.1,0l0,0l0.1-0.1l0-0.1l-0.1,0l-0.1,0l-0.1,0.3l-0.6,0.2l0.1-0.5l-0.1-0.1l0.1-0.2l-0.1-0.2l-0.2,0l-1,3
		l0.3-3.8l-0.1-0.1l0.2-0.1l0.3,0.2l0.2-0.2l0-0.1l-0.1-0.1l0.3-0.4l-0.1-0.1l-0.3,0.3l-0.5-0.3l-0.1-0.2h-0.1v0.1H259l-0.1-0.3
		l-0.2-0.1l-0.2,0.1l0.1,0.2l-0.2,0l-0.1,0.1l0,0.1l0.1,0.1v0.1l-0.1,0.2l0.2,2.6l0.1,0.1l0,0.1l0,0.1l-0.1,0l-0.1,0.3l0.1,0.1
		l-0.6,0.1l-0.1-0.1l0.3-0.4l0-0.2l-0.7-0.1l-0.1,0.1l-0.1,0.2l0.1,0.5l-0.3-0.3l0,0.2l0,0.1l0.1,0.1l-0.2,0.2l0,0.3l-0.2,0l0,0.1
		l0.1,0.3l-0.1,0.2l-0.6-1.3l0,0.3l-0.6,0.6l0.2-1.3l-0.1-0.1l-0.1,0.1l-0.3,0.9l-0.3-0.1l-0.6,0.4l-0.1,0.3l0.1,0.2l0.8,0l-0.2,0.2
		l-0.3,0.1l0,0.2l-0.5-0.1l-0.2,0.1l0,0.2l0.1,0.2l-0.3,0l0,0l0,0l-0.1,0.1l0,0.3l-0.4,0l-0.1,0.1l0,0.3l0.2,0.1L253,97l0.3-0.1
		l0.1,0.1l0,0.7l0.1,0.2l0.3,0.1l0.1,0.1l0.4-0.1l0.4,0.2l0.1,0.2l-0.3,0.1l0.1,0.3l-0.1,0.1l-0.3,0l-0.1-0.2l-0.5,0.1l-0.1,0.3
		l-0.3,0.1l0.4,0.2l0.2-0.1l0.1,0l0.1,0.2l0.1,0.1l0.4-0.2l-0.2,0.3l0,0.1l0.1,0.1l0.3,0l0,0l0.2-0.1l0.1,0l0,0.1l0.3,0l0.2,0.2
		l0.2,0.1l0.4-0.2l0.2,0.1l0,0.1l-0.8,0.4l0,0l0.1,0.2l0.2,0l0,0.1l0,0.1l-0.2,0.1l0.1,0.3l0.1,0.1l0.5,0l0.1,0.1l0,0.2l-0.2,0.1
		l-1.1-0.1l0,0.2l-0.7-0.3l0.1-0.2l0-0.1l-0.4-0.5l-0.2,0.1l-0.2-0.2l-0.5-0.2l-0.1-0.2l0-0.3l-0.2,0.2l0.4,1.2l-0.1,0.2l0,0.1
		l0.1,0.1l-0.1,0.1l-0.6-1.2l0.1-0.3l0-0.1l-0.2-0.1l0,0l-0.1,0.1l-0.3,0.4l-0.1-0.4l-0.1,0.1l0-0.2l0.2-0.3l0-0.2l-0.1-0.1
		l-0.4,0.3l-0.5-0.3l0.1,0.8l0.2,0.1l-0.1,0.8l-0.1-0.2l-0.5,0.6l-0.7-0.4l-0.7,0.2l-0.1,0.3l-0.2,0.1l0,0l-0.1,0.3l0.1,0l0.2-0.1
		l0.1,0l-0.2,0.8h0.1l0.1-0.2l0.1,0.1l-0.1,0.1l0,0.2l1.4-1.1l0.1,0.2l0.2,0l0.1-0.4l0.5,0.2l-0.6,0.8l-0.2,0l-0.2-0.2l-0.7,0.4
		l0.1,0.1l-0.5,0.4l0,0.3l0.1,0l0,0l0.1,0.4l0.1,0.1l1.5-0.8l0.4,0.3l0.2,0l0.1-0.3l0.2,0.3l0.4,0.1v0.1l-0.7,0.4l-0.2,0.9l1.4,1.3
		l-1.5-0.9l-0.1,0.6l-0.3-0.1l0-0.1l0-0.2l-0.1,0l-0.3,0.2l-0.2,0l0-0.1l0.2-0.6l-0.9-0.8l-1.2-0.1l0.2-0.5l-0.5-0.3l-0.6,0.6
		l-0.1,0l0.3-0.5l-0.1-0.1l-0.5-0.1l0-0.3l0,0l-0.1,0.1l0,0.1l0,0l-0.4-0.2l0,0.4l0,0.1l0.4,0.1l0,0.2l-0.1,0.1l-0.3,0.1l0,0.2
		l0.1,0.2l0.4-0.3l0,0.2l0.2,0l0.1,0.1l-0.4,0.2l-0.3,0.6l0,0.3l0.2,0.2l-0.1,0.2l-0.2,0.1l-0.2-0.1l-0.1-0.2l0.1-0.4l0-0.1l-0.1,0
		l-0.1,0l-0.1,1.1l-1.9-0.5l-0.3,0.3v0.4l-0.3,0.1l-0.1,0.1l-0.4-0.2l-0.2,0l0.3,0.2l0,0.9l0.3,0l0.1,0.2l-0.1,0.6l-0.2-0.4
		l-0.1,0.5h-0.1l-0.1-0.2l0,0l0.3,2.7l0.3-0.3l0.1,0l0.1-0.1l0-0.3l0.6,2.2l1.5-2.5l0.3-0.2l1.3,0.2l-0.3,0.2l-0.3,0.8H247l-0.2-0.3
		l-0.6,0.3l0,1.2l-0.3,0l-0.1,0.1l0.2,1.6l-0.3-0.1L245,115l-0.6-0.8l-0.1-0.7l-0.1-0.1l-0.1,0l-0.1,0.1l-0.2,1.3l-0.3,0.1l-0.2,0.6
		l0.2,0.3l-0.2,0.6l0.2,0.6l0.1,0.1l0.4,0l0.2-0.1l0.2,0.2l5.3,0.7l-0.3,0.2l-0.9,0l-0.4-0.4l-1.4,0.1l-0.1-0.1l-2.5,0l-0.8-0.5
		l-0.5,0.7l-1.6-0.2l-0.5-1.2l-1.2-0.5l-0.4,0.1l-0.1-0.2l-1.5-0.4l0.9,0.8v0.1l-0.4,0.1l0.5,1.1l-0.1,0.1l-1.2-0.6l0,1.2l-0.2-0.2
		h-0.1l-0.1,0.2l-0.3-0.8l0.2-0.1l0.1,0.1l0.1,0l0-0.4l-0.1-0.2l-1.6-0.9l1-0.2l0.2-0.2l-0.7-0.2l0-0.2l0.1,0l0.4,0.1l0.1-0.1l0-0.1
		l-0.3-0.1l-0.1-0.2h-0.3l-0.3-0.3l-0.1,0.3h-1.5l0.1,0.3l-0.1,0l-0.2-0.1l-0.3,0.5l0.2,0.1l0.1,0.3l-0.1,0.2l-0.3,0.1l0.8,0.7
		l0.1,0l0.1-0.1l0-0.1l-0.2-0.1l0-0.1l0.2-0.1l0.4,0.4l0.8,0.1v0.6l-0.7-0.3l-0.2,0.1l0,0.1l1,0.8l-2-0.4l-0.1,0.2l-0.5-0.1v0.1
		l1.8,0.9l-0.8,0.3l0.6,0.1l0.1,0.1l-2.2-0.8l0.3,0.5l-0.1,0.1l-0.7-0.2l0,0.1l0.2,0.2h0l0.2,0.2l0,0l0.4,0.3l0.1,0.2l0.6,0.1l0-0.1
		l-0.2-0.4l0.8,0.1l0.2,0.1l0,0.2l-0.7,0.4l0.2,0.3l-0.7,0.3l0,0.1l0,0.1l2.5,1.1l0.7,1.8l0.3,0.2l1.4-0.4l0.3-0.3l0.1-0.5l0.2,0.1
		l0,0.5l-1.4,1.4l0.4,0.6l-0.1,0.3l-0.7-0.4l-0.1,0.1l0.7,2.1l0.7,0.5l0,0.1l-0.1,0.1l-0.7-0.1l-2-2.1l-0.2,0.2l-0.3-0.8l-0.6,0
		l-0.1-0.1l-0.2,1.4l0.7,1l0,0.4l-0.1,0l-0.3,0.2l-0.4,4.9l-0.1,0.1l-1.7-3.3l-0.6-0.4l-0.2-0.5l0.1-0.3l-2.9-4.4l0.1-1.4l-0.7-0.5
		l0.1-0.5l0.3-0.1l0.1-0.5l-0.1,0l-0.2,0.3l-0.3,0l-0.3-0.3l-0.3,0.1l-0.3-1l-0.4,0.2l-0.1,0l-0.3-0.6l0.4-0.7l-0.2-0.3l0.1-0.4
		l0.6,0.1l0.2-0.1l0.1-0.2l-0.7-0.4l0.3-0.5l-0.2-0.1l-0.8,0.5l-0.3,0l-0.4,1.3l-0.2,0.1l-0.4,0.6l-0.5,0l-0.5,0.6l-0.2,1.3l0.9,1
		l-0.8-0.3l-1.8,0.5l-0.2-0.3l-0.4,0.2l-0.2,0.6l-0.1,0l-0.1,0l0,0l-0.2,0.4l0.9,1.4l-0.8-0.2l-0.3-0.4l-0.2-0.1l-0.2,0.1l0.1,0.7
		l-0.2,0.2l-0.2,0l-0.1-0.2l0.1-0.2l-2.4,2.2l0.1,0.1l0.1,0l0.1,0.1l-0.9,1.1l-0.2,0.1l0.2,8.9l-0.5,0.9l0.3,0.3h0.1l0.2-0.4
		l1.6,0.2l0.2,0.2l-0.2,1.6l-1.6,1l-0.3,0.5l-0.2-0.2l-3.4,3.1l-0.5,0.1l-0.5-0.2l-1.1,1.7l0.5,0.3l0,0.5l-0.7,0.8l-1.4,0.2l0.4,1
		l-5.8,9.1l-18.2,6.5l0,0.4l-0.2,0.1l-0.5,0l-0.9,0.7l-1.3-0.5l-0.2-0.3l-0.1-0.1l-0.2,0.1l-3.4-0.7l-0.1,0.1l0,0.5l-0.5-0.5
		l-0.3-0.1l-3.6,4.2l-2.1,0.5l-0.1-0.1l-1,0.2l0,0l-2.5,0.6l-0.1-0.1l-0.1-0.2l-1.3,0.4l-0.3-0.1l-0.2,0.1l-0.1-0.3l-3.1,1.9
		l-0.1,0.6l-0.3,0.3l-0.4,0.1l-0.5,0.7l-1.3,0.6l-0.1-0.1l-0.7,0.3l0-0.1l-0.1-0.1l-0.2,0.2l-0.2,0l-0.2-0.2l-0.3-0.1l-2.1,0.9
		l-3-0.5l-0.5-0.5l0.1-0.5l-0.1-0.1h-0.1l-0.7,0.5l-0.3-0.2l-2.7,1.2l-0.8-0.6l0-0.3l0.4-1.3l0.3-0.1l0-0.1l-0.5-0.1l-0.2,0.1
		l0.1,0.2l-2.6,2.5l-0.8,0.2l-0.2,0.4l-2.7,1.1l-0.9-0.3l-0.3,0.1l-0.6,1.6l-13,9.3l-0.1-0.2h-0.1l-1,0.5l-0.5-0.1l-4,2.2l-0.3,1.1
		l-0.1,0l-0.8,1.6l-0.6-0.6l-0.1,0.1l0.3,0.9l-0.3,1.3l-0.4,0.1l-1.3,4.1l-0.4,0.2l-0.2-0.1l-0.2-0.5l-0.2-0.1l-0.8,0.3l-0.5,0.7
		l-0.4,0l-0.3-0.2l-0.1-0.4l0.2-0.5l-0.1-0.5l0.4-0.6l0.1,0l0.1-0.5l-0.1-0.2l-0.2-0.1l-0.3,0.6l-0.2-0.1l0.2-0.7l-0.6-1.3l1.2-5
		l-0.2-0.1l-0.9,0.3l-5.5,10.3l0.2,2l0.7,0.2l1.1,4.5l-0.6,0.6l-0.3,5.5l-1.3,1l0,0.1l-0.3,0.2l-0.6,1.6l-0.3,0.1l-1.5,4.1l0.2,1.6
		l-0.6,1.1l2.8,8.8l0.4,0l0.3,0.5l-0.3,0.7l0.6,1.6l1.4,0.9l3.1,6.5l0.5,0.3l0.1,0.3l0.4,0.3l0.1,0.3l-0.1,0.2l0.2,0.1l0.1,0.5
		l1.3,0.7l-0.3,1.5l0.4,0.6l-0.6,0.1l-0.4-0.4l-0.1,0.1l0.5,1.3l-0.1,0.4l-0.1,0.1l-0.1,0l-0.3,0.6l0.1,1.2l0.5,0.7l-0.3,1.1
		l-0.8,0.2l-0.8,1.1l-1.9-4l0.1-0.8h-0.3l-0.3-2.3l-0.4-0.1l0,0l0.2,0.7l-1.2,2.8l-0.7-0.1l0-3.6l0.2-0.3l-0.2-0.6l-0.2-0.2
		l-0.1-0.8l-1.5-1.2l-0.3-1.1l-0.4,0l-0.3-1.7l-1.3,2.7l0.2,0.6l0.7,0.5l-0.2,0.3l0.6,0.7l0.1,0.9l0.4,0.4l0.3,1.8l3.8,3.5l0.1,2.2
		l-0.9,1.7l-0.4-0.3l-0.9,0.5l-0.1,0.2l0.1,0.3l-0.5-0.1l-0.1-0.6l-0.1-0.1l-0.2,0l0-1.9l-0.1,0l-0.3,2l-0.2,0l-0.3-2.1l0.1-0.2
		l-0.1-0.1l-0.1-1.8l-0.3-0.5l-0.1,1.4l-0.2,0.1l-1.1-3.5l-0.1,0.6l-0.4-2.1l0.3,5l-0.2-0.1l-0.3-0.7l-0.2,0.1l-0.3-4.2l-0.1-0.1
		l-0.1,0.1l-0.2,2.9l-0.1-0.1l-0.2-0.7l-1.2-0.5l1.8,2.4l-0.1,0.4l10.9,18.8l-0.6,2.5l6.2,12.5l-0.2,0.5l5,20.7l0.5,0.3l0,0.7
		l-0.1,0.1l9.3,27.3l-0.3,1.2l-0.2,0.1l-0.6,0l0.8,0.9l-0.3,0.5l0.3,0.3l-0.1,2.6l0.4,0.2l0,0.7l-0.2,0.1l-0.7-0.1l-0.2-0.2h-0.1
		l-0.1,0.1l0.8,2l-0.1,0.2l-0.3-0.1l-0.6-2.4l0.7-0.8l0.1-0.6l-1.2,2.2l0.8,9.3h0.1l0.3-1.4l0.1,0l0,1.6L135,351l-0.5-0.1l-3.4,5
		l-2.1,0.2l-2.4-1.8h-0.2l0.1,1.6l-0.5,0.8l0.8,8.7l1.3,1.5l0.6-0.8l10.2,7.4l-0.1,0.4l0.1,0.1l4.9,1.2l0.3-0.2l-0.3-0.6l0.1-0.1
		l0.1,0l1.4,1.1l0,0.2l-0.1,0.1l-1.4-0.3l-0.1,0.1l3.3,1.8l0.3-0.3h0.9l0-0.2l0.1-0.2l2,0.7l0.6-0.6l2.4,0.7l0.4-0.8l0.2-0.1
		l0.4,0.2l0.5-0.1l0.7,0.3l0.1-0.2l3.6,1.8l0.3-1.2l0.5-0.2l3.3,1.1l0.4-0.3l0.2,0.1l0.1-0.2l-0.6,0l-0.2-0.1l-0.2-0.5l-0.2-0.1
		l-0.1,0.1l0.1,0.4l0,0.1l-0.5-0.2l-0.3-0.4l0-0.2l0.9-0.2l0.2-0.2l0.1,0l0.1,0.1l2.1-0.4l0.1,0.1l0.1-0.1l0.8,0.5l0.2-0.1l-0.2-0.8
		l-0.3-0.1l0-0.2l3-0.7l0-1.5l4.5-3.1l-0.3-0.1l-0.1-0.3l0-0.3l2-0.9l-0.6-0.7l0.7,0.1l0.3-0.2l3.6,0.8l0.1,0.4l0.5-0.1l0.2-0.9
		l0.3-0.2l0.2,0l0.2,0.1l0.2,0.6l0.1,0l0-0.2l0.4-0.3l-0.2-0.3l0-0.8l0.3-0.2l0.4,0.1l0.5,0.5l1-0.3l-0.9-0.4l0-1.5l1.7-2.2
		l-0.1-0.1l4.8-2.7l1.5,0.4l0.7-0.3l2.5,0.5l0.2,0.2l1.8-0.7l0-0.3l0.2-0.2l6.7-0.8l0.8,0.4l4.5-0.7l1.3,0.9l0.3,0l0.5-0.3l1.3,0.6
		l2.6-1.1l1.2,2.1l0,0.2l-0.4,0.4v0.1l1.4,0.1l0.4-0.4l0.3,0.3l0.2,0.1l0.3-1.1l0.9-0.5l1.9,0.5l0.2-0.2l0.5,0.4l0.3-0.3l0-0.2
		l-0.1-0.2l2.5-0.5l0.5,0.4l2.6-0.7l0.8,0.3l0.9,2l0.5-0.1l0.2-0.2l0.1,0l0.2,0.1l1.9-1.6l1.1,0.3l0.5,0.5l0.2,0l0.7-0.9l0.5,0
		l1.4-1.2l0-0.5l1.6-2l0-0.1l1.1-0.7l1.8-6.1l23.3-13.1l1.4,0.2l0.7-0.5l11.8,0.7l0.1,0.1l23.8-9v-80.9V98.1z M135,335.2l-0.3-0.1
		l-0.2-1l0.2-0.2L135,335.2z M242.7,103.7l0-0.1l0.9-0.3l0.2-0.3l0.1,0l0.1,0.1l0.1,0.1l-0.3,0.4l0.2,0.1l-0.2,0.1l-0.4-0.1
		l-0.1,0.2l-0.1,0L242.7,103.7z M130.4,176.7l-0.1-0.2l1.6-2.5l0.3,0l0.2,1l-1.3,1.7l-0.1-0.2l-0.3-0.2l-0.1,0l0,0.2l-0.1,0.1
		L130.4,176.7z M102.5,236.3L102.5,236.3l0.2-3.4l0.4-0.3l0,0.8l-0.1,0.1L102.5,236.3z M244.6,104.7l-0.3-0.2l0.1-0.1l0-0.3l0.2-0.2
		l0.1,0l0.1,0.1l-0.1-0.2l0.2-0.2h-0.3l0.9-0.6l-0.2,0.7l0,0.1l0.3,0l0.1,0.1l-0.1,0.2l0.3,0.1l0.3,0.6l0.3,0.1l-1.5,0.6l-0.1-0.1
		l-0.1-0.2l0-0.1l0.1,0l0.1,0.1l0.6-0.5l-0.7-0.1l-0.3,0.2l0.1-0.3l-0.2,0.2H244.6z M103.5,231.5l-0.4,0.9l0.4-3.3l0.1,0.3l-0.3,1.9
		L103.5,231.5z M252.2,94.9L252.2,94.9l0.1-1l0.4,0.3l0-0.6l-0.1,0l-0.2-0.2l0.1-0.2l0.4-0.3l-0.1-0.2l0.1-0.1l0.1,0l0.1,0.3
		l0.3,0.1l0,0.1l-0.4,0.8l0.3,0.7l-0.4,0.2l-0.1,0l0,0l-0.2,0.1l0.1,0.2l0,0.1l-0.2,0.1l-0.3-0.4L252.2,94.9z M269.9,85.8l-0.2-0.4
		l1.4,0.3v0.1L269.9,85.8z M101.1,243.1l0.1-0.1l-0.7-2.5l0.1-0.6l0.6-0.8l0.1,0.2l0.4-0.1l0.1,0.1l0,0.1l-0.2,0.2l1.5,4.9l0.3,0.1
		l-0.3,1.1l0.4,0.1l-0.2-0.3l0.2,0l0.9,2.5l-0.1,0.2l-0.6-0.4L101.1,243.1z M249.4,99.7l-0.1-0.2l0.1-0.2l0.2,0l0.2,0.2l0.3-0.4
		l0.1,0.4l-0.1,0.2l0.1,0.1l0.2,0.1l0,0.2l0,0.2l-0.1,0l-0.4-0.5H249.4z"/>
</g>
<g>
	<path class="st1" d="M541.5,460l1.7,1.9l-0.1,0.2l-0.1,0l-0.1-0.1l-0.1-0.1l-0.2,0.3l-0.3,0.1l-0.1,0.2l0,0.3l-0.2-0.1l-0.2,0
		l-0.4,0.3l-0.2-1.1l-0.4,0l-0.8,0.5l-0.3-0.3l-0.2,0l-0.2,0.2l-1.2,0l-0.6-0.4l-0.4,0l0-0.1l0.2-0.6l1-0.5l0.8,0l0.4,0.3l0.1-0.1
		l0.1-0.3l0.9-0.1l0.5-0.4L541.5,460z M539.2,464.3l0.1,0.2l0.3,0.2l0.2-0.7l0.2-0.1l0.3-1l-1.7,0.6l-0.1,0.1h0l0,0l0.2,0.5
		L539.2,464.3z M535.1,453.6l0.4-0.3l0.2,0l0.4,1.3l-0.3,0.9l0.7,0.2l0.1,0.7l0.1,0.1l0.4,0l0.8,1.8l-0.2,0.3l0.1,0.3l0.9,0.5
		l0.9-0.4l0.1-0.6l0.1-0.1l1.2,0.5l0.2-0.2l0-0.2l-0.5-0.3l0.1-0.4l0.4,0.4l0.1,0l0-0.3l-0.4-1.2l-0.4,0.5l-0.3,0.1L540,457l0.7-0.7
		l0.2-1.9l-1.6-0.4l-2.7-3.6l-0.7,0.7l-0.4-0.2l-0.1,0.2l0.3,0.5l-0.3,0.2l0.1,0.3l-1.3,1L535.1,453.6z M499,465l-0.8,0.8l0,0.8
		l0.2,0.2l0.2-0.1l0.3,0l1.1-0.5l0.3,0.2h0.3l-0.2-0.4l-1.3-0.7L499,465z M496.7,464.6l0.3-0.1l0-1l0.3-0.2l0.1-1.3l-0.2-0.4
		l-0.2,1.1l-0.6,0.1l-0.1,0.2l0,0.1l0.2,0.2L496.7,464.6z M497.8,462l0.5,0.6l0.3,0l0.2-0.2l0.4-0.1l0.1-0.8l0-0.2l-0.8-0.3
		l-0.3,0.2l0.1,0.1l-0.3,0.4L497.8,462z M529.4,506.6l-0.2-0.5l-0.2,0.1l-0.2,0.7l0.3,0.3l-0.8,0.2l0,0.2l1.1,0.5l-0.5,0.5l0.2,0.5
		l0.1-0.1l0.3-0.2l0.4,0.1l0.1-0.2l-0.5-2.1L529.4,506.6z M527.6,510.5l0.2,0.4l-0.2,0.5l-0.4-0.6l-0.1,0l-0.2,0.2l0.1,1.5l-0.1,0.1
		l-1-0.8l-0.1,0.3l0.8,1.2l0.2,0l0.6-1.5l0.3,0.2l-0.3,0.2l0.2,0l0.2,0.4l0,0l0,0.3l0.8,0.4l0.2-0.1l0.6-1.9l-0.8-2.2L527.6,510.5z
		 M540.3,492.9l-0.2,0.1l0.2,0.4l1,0.6l0.1-0.1l-0.5-0.8L540.3,492.9z M538.9,497.9l-0.7-0.2l-0.7,0.6l-0.1,0.6l0.1,0.2l0.3,0
		l-0.4,1.4h0.1l0.3-0.4l0.8-0.2l-0.5-0.8l1,0l0.3-0.3l-0.3-0.3L538.9,497.9z M488.5,448.9l-1.2-0.9l-0.5,0.1l-0.1,0.1l0.2,1.1
		l-1.1,0.8l-0.3,3.5l0,0.3l0.6,0.5l0,1.4l-0.2,0l0.4,1.2l0.2,0l2.4-1.6l0.1-0.5l0.2-0.1l0.1-1.3l-0.3-0.2L488.5,448.9z M541.8,489.8
		l-0.8-1l0.3-2.3l-0.8-1.9l0.6-0.8l0.6-7.6l-0.3,0l-0.9,0.9l0-0.3l0.8-0.7l0.1-0.2l-0.6-1.1l0.4-2.3l-0.1-0.2l-0.3-0.1l0.7-0.7
		l-1.5-2.7l-0.8-0.1l-0.8-1.1l-0.1-0.1l-0.3,0.1l-0.2-0.4L537,467l-0.3,0.2l-0.9,2l-0.8,0.3l-0.8-0.6l-0.5,0.2l-0.6-0.7l-0.9,0.3
		l-1.9,2.7l-0.5-0.1l-0.2-0.4l-0.4-0.1l-0.1-0.3l-0.1-0.2l-0.6,0.2l-0.1-0.3l-1.4,1.1l-1.7-0.3l0-0.1l-0.1,0l-2.3,1l-0.2,0.6
		l0.2,0.7l1.4,0.7l-0.2,0.1l-0.6-0.2l-0.4,0.2l-0.6-0.2l-0.1-0.3l0.2-0.1l-0.4-1l-0.3-0.1l-0.3,0l-0.3,0.3l-0.4,0l-1,1.2l0.2,0.2
		l-0.2,0.1l-0.2-0.1l-0.2-0.6l-0.1-0.1l-4.1,0.4l-3.6-1.6l-0.1-0.3l-1.3-0.2l-1-1.4l-2.4-0.9l-0.1-0.6l-1,0.4l-2.2-1.2l0-0.4
		l0.5-0.3l-0.5-0.6l-0.2-0.1l0.2,0.6l-0.2,0.6h-1.5l0.2,0.3l-0.1,0.2l-0.2,0.1l-4-1.7l-0.3,0.2l-0.1,0l-0.6-1.4l-0.4,0.7l0.1,3.4
		l-0.5,0.2l-0.2,0.4l-0.3,0.1l0.3,0.5l-0.1,0.4l-0.3,0.2l0.9,1.4l-0.1,0.7l0.3,0.8l-0.1,0.9l1.2,2.8l-0.3,0.2l0,0.2l-0.1,0.1
		l2.2,4.9l0.4,0.1l3.8,6.8l-0.5,1.2l0.5,0.5l0.2-0.1l-0.1-0.6l0.3-0.4l0,0l0.2-0.2l0.1,0l0.2,0.1l0.3,1.5l1.4,1.7l0.1-0.1l0-0.3
		l0.1,0l0.1,0.1l0,0.6l0,0l0.1-0.1l0,0l0-0.1l0.3-0.1l-0.5,1.4l-0.1,0l-0.3-0.2l0,1.6l-0.1,0.1l-0.4-2l-3.1-3.3l1.4,6.1l-0.4,0.6
		l0,0.2l0.5,0.1l0.2,0.6h0.3l0,0l0.3,1l0.1,0.1l-0.3,0.6l0,0.1l0.3,0.2l1.5,3.2l0.9,0.1l1.1,1.4l0.3,0.1l-0.2,0.8l0.3,0.2l0.4-0.1
		l0.1,0.7l0.2,0.1l0.1,0.5l0.5,0.4l0.4,1.4l0.4,0.2l0.7-0.1l0.2-0.4l-0.1-0.1l-0.5,0.1l-0.1-0.1l0.1-0.3l0.5-0.2l0-0.8l0-0.1
		l0.6,0.5l0.3,1.2l0.4,0.4l0.2,0l0.2-0.7l0.1-0.1l0.1,0.1l0.1,0.6l0.3,0.3l0.6-0.9l0.1-0.1l0.8,0.7l0,1.3l-0.5-0.5l-0.1,0l-0.1,0.1
		l0.1,0.2l-0.3-0.1v0.7l-0.6-0.9l-1.7-0.3l0.3,0.6l-0.8-0.3l-0.1,0.2l0.8,0.7l0.3,2.3l0.7-0.2l0.3,0.1l0.1,0v-0.5l0.7-0.2l0.3,0.6
		l0.1-0.1l0.1-0.7l0.2-0.1l0.5,0.1l0.2,0.6l0.2,0.1l0.2,0l0.4-0.4l0.5,0.4l1.7,0.1l0.3-0.3l0.3,0.1l-0.1-0.7l0.1-0.2l0.2,0.1
		l0.4,1.4l1.3,1.2l0.9-0.4l0.6,0.2l0.1,0.1l0,0.2l0.3,0l1.1-0.7l0-0.3l-0.6-0.4l0.1-0.4l0.5,0.1l0.1-0.1l0.1-0.2l-0.2-0.4l0.1-0.3
		l0.9,0l-0.2-0.4l-0.7-0.2l-0.3-0.2h0.7l0.9-1.3l0-0.1l-0.4-0.2l-0.7,0.1l0.4-0.4l0.5-0.1l0.2,0.2l0.2,0l0.4-0.5l-0.2-0.6l-1.4-1.2
		l0-0.9l0.5-0.6l0.2,0l0.1,1.1l0.3,0.4l0.1,0l0.6-0.8l0.1,0.7l-0.3,0.6l0.1,0.1l0.7,0l-0.1,0.4l0.7,0.4l0.5-0.3l0-2.4l0.7-0.8
		l-0.6-0.9l0.2-0.3l0.6,0.6l0.1-0.1l0.3-2l-1.2-2.3l0.3-0.2l0.1,0l0.7,1.4l0.7,0.5l0.2,0.7l0.7-0.3l-0.1,0.9l0.2,0.1l0,0.1l-0.2,0.6
		l-0.2,0.1l-0.5-0.6l-0.2,0.2l0.4,0.8l1.3-0.7l0.2-0.5l-0.7-2.1l1.1-0.6l0.2,0.2l0.1,0.4l0.4,0.1l0.4,0.5l0.5-0.1l0.4,0.2l0.8-0.1
		l0.2,0.1l-0.1,0.7l0.3,0.1v0.1l-0.2,0.1l-0.1,0l0.3,0.7l0.3,0.2l0.4,0l-1.1,0.6l-0.5-0.1l-0.9-0.7l0.1-1.1l-0.6,0l0.1,0.8l-0.7,0.4
		l0.3,1.1l1.2,0.6l-0.7,0.5l0.1,0.5l1.1,1.4l0.6-0.7l0.4,0l-0.2-0.5l0.2-0.5l0.2-0.2l0.3,0.8l0.9,0.8l0.3,0l-0.3-0.5l0.3-0.9
		l-0.4-0.1l0.2-0.4l-0.4-0.8l0.2-0.2l0.1-1.2l0.4-0.3l0-0.3l-0.3-0.2l0.2-0.5l-0.1-0.1l-0.2-0.1l-0.1-0.4l-0.1-0.1l-0.1,0l-0.3,0.1
		l-0.1,0l-0.2-0.6l-0.3,0.2l-0.1,0.4l0.4,0.2v0.1l-0.5,0.1l-0.4-0.2l0.3-0.9l0.2,0.1l0.1-0.2l0-1l0.8-0.7l-0.2-2.2l-0.6-0.8l0.3-0.1
		l0.1-0.3l0.5,0.6l0.2-0.1l0.2-0.3l0.2-0.1l0.1-0.2l0-2.5l0.3-0.3l-0.1-0.5l-0.2-0.1l-0.5,0.5l0.7-1.3l0-0.1l0.2-0.1l0.8-2.6
		l1.5-0.1l-0.9-0.4l-0.1-0.2l0-0.1l0.3-0.2l-0.1-0.8l0.2-0.2l0.3,0.2l0.1,0l-0.2-0.9l0.2-0.1l0.2,0.6l0.4,0.2l-0.1,0.6l-0.9,0.6
		l1.6,1l0.3,0l-0.1,0.3l-0.5,0.3l0.4,0.5l-0.6,1l0.1,0.1l0.4,0.1l0.3,0.3l0.5-1.6l-0.6-0.2L541.8,489.8L541.8,489.8z"/>
</g>
<g>
	<path class="st2" d="M449.7,361.2l0,62.7l-3.7,0l-0.4-0.3l-0.4,0l-2.5-1.9l-0.1-0.3l-0.2-0.1l-3.3-5.1v-0.1l0.3-0.1l0-0.3l-1.2-0.9
		l-0.1,0l0,0.3l-3.5-5l0.1-0.2l0.4-0.3l0.1-0.4l-1.4-2.7l1.8-1.2l0.5-3.8l-11.7-16.3l0.5-0.2l8.8,10.2h0.1l-7.9-9.8l0.1-0.2l0.2-0.1
		l0.3,0.1l0.1-0.6l0.6-0.6l1.2,0.8l0,1.3l0.1,0.1l0.1,0l0.1,0l0,0.2l-0.4,0.4l0.1,0.2l1.1,0.2l0.3-0.2l0.2-1.4l-1.7-1.2l0-0.2
		l0.7-0.4l1,0.2l0.1-0.1l0.2-0.2l0-0.2l-0.3-0.5l0.2-0.8l-0.1-0.1l-0.5,0.4l-0.2-0.6l-1.5-0.6l0.1,0.1l0.2,0.1l-1.2,0.9l-0.9-0.1
		l-0.8,0.5l-0.1,0.8l0.9,0.5l0.1,0.2l-0.1,0.1l-1.4-0.3l-0.3-0.4l-1.1,0l-0.1,0.1l0.2,0.3l1.4,0.2l0.3,0.3l0.4-0.1l0.3,0.2l-0.1,0.1
		l-1.2,0.1l-0.2,0.1l-1.1-0.4l-1.9,0.5l-0.9,1l-3.6,0.3v-0.1l-1,0.4l-1.2-0.8l0.4-1.2l3.6-2.9l0.9-8.8l0.2,0l0.4,0.5l-0.1-0.9
		l-0.6-0.4l0-0.2l-0.5-0.3l-1.4-2.5l-0.4-0.2l-1.1-3.3l-0.6-0.4l0-0.2l0.1-0.3l-1.1-1.5l-0.8,2l0.3,0.7l-1.9,4.3l0.3,0.5L410,377
		l-0.3,0.2l0,1.3l-0.8,0.7l-0.2,0l-2.4-1l-3,0.8l-0.9,1.1l-1.6-0.2l-1.1,0.9l-1,0.2l-0.5-0.7l0.2-0.7l0.6-0.4l-0.1-0.1l0.8-1.1
		l-0.2-1l0.5-0.7L400,376l0.6-1l4.6,0.8l0.3-0.1l0.4-0.4l0.4-6.8l-0.2-0.3l-0.6,0.4l0.4-1h0.2l0.2-2.9l-0.4-0.8l0.1-0.4l0.1,0
		l0.4,0.2l0.6-1.4l-0.3-0.6l1.2-1.4l0-0.3l-0.3-0.3l2.2-2.7l0.3,0.1l1.2-1.4l0.4,0.2l-0.2-2.7l-0.5-0.3l0-1l-0.7-0.7l0.2-1.3
		l1.4-0.9l0.3,0.1l0.2-0.2l0.4,0.2l0.2-0.3l-0.4-1.6l-0.1-0.1l-0.3,0l-0.2-0.2l-0.7-3.5l0.5-0.3l-1.1-0.8l-0.1-0.8l-0.5-0.7l0-0.2
		l0.2-0.2l-0.1-0.1l-0.3-0.1l-0.2-0.5l-0.1,0.1l-0.1,2.5l0.3,0.1l0.4,2.3l-0.3,0.8l-0.1,0l-0.1-0.1l-0.1,0.3l0.3,0.8l-0.1,0.1
		l-0.5,0l-1-0.6l-6.2,11.2l-1.8,0.4l-0.6-0.7l-0.2,0l-0.2,0.2l-0.1,0.5l-0.5,0.3l0.1,0.4l0.7-0.3l0.2,0l-3,1.4l-0.2,0.3l-1.6,0.8
		l0,0.4l-5.8,6.5l0.1,0.2l-0.2,0.3l-0.1,1.8l-0.2,0l-0.2-0.8l-1.5,0.6l-0.4,1l0.3,0.7l-0.2,0.2l-0.2-0.3l-0.3,0l-0.2,0.2l-0.2,1
		l0.3,0.6l-0.1,0.3l-0.6,0l-0.5,0.6l0.1,0.2l1-0.1l0.7-0.7l0.3,0.3l0.1-0.1l0.1-0.6l0.1-0.1l0.1,0l0.1,0.1l-0.2,1.4l-0.3,0.4
		l0.3,1.3l0,0l0,0.3l0.1,0.2l-0.1,0.2l-0.3,0.1l-0.2,0.2l-0.2-0.1l-0.2-0.6l-0.8-0.4l-0.5-0.8l-0.5-0.3l-0.5,0.1l-0.5,0.5l-0.1,0.4
		l-0.1,0l0.1,0.5l-0.1,0.1h-0.6l-2.5-3.6l-0.9-0.4l-0.3,0.1l-0.2-0.1l0.3-0.5l0-0.2l-1.4-1.1l-1.4,0.6l-0.2-0.1l1.1-2.4l0.1-0.1
		l0.1,0.1l-0.1,0.8l0.1,0.2l1.3,0.4l-0.2,0.2l-0.1,0.2l0,0.2l0.6,0.4l-0.2,0.2l0.8,0.6l1.1-0.3l0.1-0.2l-0.8-0.2l0-0.8l-0.4,0.4
		l0,0.1l-0.2-0.2l-0.2-0.9l0.2-0.1l-1.1-4.9l-0.4,0l-0.4-0.6l0.4-0.1l0.1-0.2l-1.2-3.5l-4.2-3.8l0.2-0.1l0.1-1.8l-1.8-3.5l-0.4-0.2
		l-0.1-0.2l0.7-0.1l-0.5-0.9l-1.4-0.3l-0.1,0.2l0,0.2l0.7,0.1l0.4,0.6l-0.2,0.1l-0.2,0.2l-0.5-0.7l-1.8-0.7l-0.8,0.4l0-0.1l-0.2-0.3
		l-0.2,0.7l-0.2,0.1l-1.2-2.3l-0.9-0.1l-0.1-0.2l0.6-0.2l0.1-0.2l-0.1-0.6l-0.4-0.4l-0.1,0l-0.2,0.2l-1-0.3l-0.1-0.3l0.8-0.8
		l0.1-0.4l-0.8-1.6l0.1-0.2l1.8,0.2l-0.3,0.6l0.1,0.5l0.2,0.1l0.1,0l1-1.9l-1.9-3.3l-0.4-0.1l-0.4,0.3l-0.4-0.2l-0.3,0.1l-0.5,0.6
		l-0.7-0.1l-0.4,0.6l-0.5,0.1l-0.1-0.1l0.5-2.1l0.2,0.3l0.2,0l0.2-0.2l0-0.3l-1.5-2.1l-0.2,0l-0.3,0.3l-0.1,0l-0.2-0.7l-0.9-0.4
		l0-0.4l-0.3-0.1l0-0.1l0.3-0.3l-0.1-0.2l-0.8-0.2l-0.2,0.1l-0.2,0.9l-0.1,0.1l-0.1,0l-0.8-0.5l0-0.4l-0.1,0l-0.3,0.3l-0.4,0.1
		l0,0.2l0,0.2l0.9,0.4l0,0.2l-0.3,0.1l-0.5-0.2l-0.2,0.3l-1.4-0.3l-0.4,0.4l-0.9-0.5l-0.7,0.1l-1.1-1.3l-0.6-0.2l-0.3,0.2l-0.1,0
		l-0.1-0.5l-2.4-1.8L344,331l-0.3,0.4l0.4,0.6l-3.1,0.1l-13.7-8.2l-26.6,3.1v-80.9h112h37.3v42.1v73.3L449.7,361.2z M404.9,368.5
		l-0.4,0.6l0.2,0.3l0.2-0.6L404.9,368.5z M369.1,357.1l-0.2,0.8l0.1,0.3l0.4-0.6l0.4-0.1l0.1-0.1l-0.1-0.6L369.1,357.1z M357.3,336
		l0,0.3l0.3,0.1l0.6-0.2l0.2-0.3l0.1-0.1l-0.2-0.3l0.7-0.2v-0.1l-1.2,0.3L357.3,336z M389,375.7l0.9,1.8l0.5,0.2l0.1-0.1l-1.2-2
		L389,375.7z M393.7,378.6l-0.2,0.1l-0.1,0.2l0.1,0.1l0.5,0l0.1,0.1l0.1-0.1l-0.3-0.4L393.7,378.6z M413.6,388.1l-1.9-0.5l-0.5,1
		l-0.7,0.3l-0.2-0.1l0-0.7l-0.2-0.3l-2.2,0.1l-0.3-0.3l0.8-1l0-0.1l-0.8-0.1l0-0.2l0.6-0.4l0-0.2l-0.1-0.1l-0.3,0.1l-0.2-0.1
		l-1.8,0.4l-1.4-0.4l-9.4,2.8l-0.4,1.4l-0.1,0.1l-0.1,0.6l1.5,1l0.7,1.4l0.7-0.1l0.2-0.2l2.8-0.3l0.1,0.2l1.8,0l0.2-0.6l0.3-0.2
		l3.1,1.6l1.8-0.9l0.2-0.4l-0.2-0.9l0.3-0.5l3.5-0.5l1.7,0.7l0.5-0.6l0.5-0.2l0-0.7l-0.6-0.1L413.6,388.1z"/>
</g>
<g>
	<text transform="matrix(1 0 0 1 157.3892 252.1951)" class="st4 st5 st6">Western Australia</text>
	<text transform="matrix(1 0 0 1 337.2563 170.6516)"><tspan x="0" y="0" class="st4 st5 st6">North</tspan><tspan x="-8.7" y="14.4" class="st4 st5 st6">Territory</tspan></text>
	<text transform="matrix(1 0 0 1 460.7033 202.8105)" class="st4 st5 st6">Queensland</text>
	<text transform="matrix(1 0 0 1 473.2132 319.9113)" class="st4 st5 st6">New South Wales</text>
	<text transform="matrix(1 0 0 1 496.2181 363.963)"><tspan x="0" y="0" class="st4 st5 st7">Australian Capital</tspan><tspan x="-3.8" y="9.6" class="st4 st5 st7">Territory (Canberra)</tspan></text>
	<text transform="matrix(1 0 0 1 467.1861 413.0244)" class="st4 st5 st6">Victoria</text>
	<text transform="matrix(1 0 0 1 329.8189 295.4684)" class="st4 st5 st6">South Australia</text>
	<text transform="matrix(1 0 0 1 434.4135 486.4587)" class="st1 st5 st6">Tasmania</text>
</g>
</svg>
