<?xml version="1.0" encoding="utf-8"?>
<!-- Generator: Adobe Illustrator 22.0.1, SVG Export Plug-In . SVG Version: 6.00 Build 0)  -->
<svg version="1.1" id="圖層_1" xmlns="http://www.w3.org/2000/svg" xmlns:xlink="http://www.w3.org/1999/xlink" x="0px" y="0px"
	 viewBox="0 0 575 575" style="enable-background:new 0 0 575 575;" xml:space="preserve">
<style type="text/css">
	.st0{opacity:0.58;fill:#99CC33;}
	.st1{fill:#C2B485;}
	.st2{fill:#C0B07D;}
	.st3{opacity:0.58;fill:#E7D571;}
	.st4{fill:#7F9AAF;}
	.st5{fill:#8A9479;}
	.st6{fill:#DAB773;}
	.st7{fill:#99CF91;}
	.st8{fill:#7CD4DE;}
	.st9{fill:#E5AC81;}
	.st10{fill:#91C3DC;}
	.st11{fill:#E7D571;}
	.st12{fill:#6EC0B2;}
	.st13{fill:#82D1D6;}
	.st14{fill:#99CC33;}
	.st15{fill:#231815;}
	.st16{font-family:'ArialMT';}
	.st17{font-size:13.3517px;}
</style>
<polygon class="st0" points="454.8,503.2 454.8,503.1 454.8,503 "/>
<path class="st1" d="M360.2,373.5l-1.7,0.2v3.6l-2.8-0.6l-1.7,0.9l-2.2,0.9l1.4,2.6v2.2l-2.3,1.7l-1.2,0.9l-3,1.6v2.2l-3.4-0.2
	l-2,0.6l-0.9,1.4l0.8,4.7l-3.3-0.8l-0.2,3.6l-2.2,0.3l-1.6-1.2l-0.9,1.4l-1.1,3.6h-2.6l-0.2-1.9l0.5-2.3l-0.5-3l2.2-3.4l-0.6-1.6
	l0.9-2.6l-2.3-0.6l-0.2-3.3l-1.4-0.8l-0.6,1.9l-3.3-0.9l1.4-3v-2.2l-2-0.9l-0.6,2l-1.4,1.1l-1.6,0.5l-2.5-1.2l-0.3-2.6l-1.2-2.2
	l-1.6-0.2l-0.3,2.2l-2.1,0.8l-2.4-1.4l-2.2,1.9l-2.3,0.2l-0.6,4.4l-2.6,1.1l-0.8,2.8l-2.5,2.8l-3.4,0.2l0,4.8v3.3l1.9,1.1l-1.3,1.5
	l-2,3.2l-0.2,4.1v4.5l-0.7,4.1l-3.7,0.9l-1.1,2.4h-2l-0.9,3.2l-0.7,3.2h-2h-2.6h-3.3l0.2,1.5l1.1,2.8l2.6,3.7l1.7-0.9l1.3-1.9l2,0.4
	l0.9,2.4l-1.7,1.9l1.7,2.6h5.4l1.3,1.5h3l3.3,1.5h3l3.5-2l1.9-2l3,1.3l1.7,0.7v2l-0.3,0.9h2.2l1.9,1.2v2.8h1.2l0.6,2.1h2.1l0.6,2.8
	l1.4,1.4h1.4l0.9,1.4h5.4c0,0,0.7,0.9,0.7,1.2c0,0.4,1.7,0,1.7,0l0.7,4.1h3.1l2.4,0.3l0.8-2.5l0.5-1.9l-2.2-1.1l0.1-1.9l-1.6-1.1
	v-2.7v-2.7l1.1-1.7l2-2.1l2,0.2l0.7,4l1.4,1.1v2.6h2.3v-3.2l1,0.5l1,1.2h1v-1.9h2.1h1.9v-3.5l2-1.1V441h2.6l2.5-2.5l1.2-2.8l0.6-3.6
	l-1.1-3.5l-0.7-2.3v-1.2v-2.6l1.2,1.2h1.3h0.9l1.3-1.1l-2.2-2V419h1.5v-1.7h2.7v-1.7l1.9,0.2v1.5h2v-1.9l-0.7-1.3l-1.3-2.4l2.4-1.7
	l0.7-2l3.5,1.4v2.5l0.9,1.7l1.9,0.7l2,0.2l2.8,0.9v-2l2.4,1.3l1.9-3.2h2.2v-2.1l2-1.9l1.9-2.8h6.4l-2.8-4.3l-1.1,0.3l-0.8-0.6
	l-0.6-0.1l-1.4,0.9l-0.4-1.2l-1.6-0.7v-0.2l1.6-0.1l0.3-0.4l-2.6-5.5l1.3-1l0.2-0.8l-0.5-0.7l-0.2,0.4l-0.5-0.9l0.2-1l-1-0.6
	l0.3-4.5l-0.3-0.5l0.2-0.9l-1-1l0.1-0.1l1.3-0.1l0.6-8.4l-0.6,0l-0.3-3.7l-0.3,0.1l-0.3,2.3l-0.6,0.5l-0.3-0.1l-0.2-1.9l-0.3-0.2
	l-0.7,0.2l0.4-0.8l-0.5-0.5l0.1-0.4l0.4-0.2l0.2,0.2l0.2,0.7l1.5-1.4l-0.1-0.7l-1.2-0.4l-1-2.6l-0.3,0.3l-0.1,0.9l0.2,0.4l-0.2,0.2
	l-1.1-0.8l0.2-0.1l0.1-0.2l-0.2-0.5l0.4-0.2l-0.2-0.4l-0.5-0.2l-0.5,0.3l-1-0.6l-0.6,4.8l1,0.8l-0.2,0.7l1.1,2.2l-0.2,0.2l-11.6-7.1
	l-0.5-0.9l0.4-0.4l-0.9-1.1l-0.2-1.1l-1-0.7l-1.1-2.5l-0.7-0.4l-0.1-0.2l-2.1,1l-1.5,3.8l0.8,1.4l-0.6-0.2l3.3,9.3l-5-6.3l-1.2,5.1
	L360.2,373.5z"/>
<path class="st0" d="M418.2,435.1v3.1v2.3l-0.7,1.6l-4.5-0.9l-2.1-0.8h-1.5l-2.6,0.9l-1-1.6v-3.3l-3,0.6v1.5l-1.4,0.1l-1,1.8h-2
	l-0.6-3.1v-2.3l-1.7-1.4l-1.2-2l-1.2,0.2l-1.7,0.5l-0.6,2.7h-3l-0.9,0.6l0.9,2l1.2,0.5l-0.4,2.2l-1.5,1.1l-0.4-1.1h-2.3h-2.7
	l-0.2,3.4l-1.7,1.9l0.2,4.8v3.5c0,0-2.2,4.3-2.6,4.2c-0.4-0.1-3.1,3.3-3.1,3.3l0.5,2.3l1.1,3.3l1.1-0.9l2,1.6h3.2l-0.5,2.5l-0.1,2
	l0.6,1v2.8l-0.5,1.2l2,0.7h1.2v2.6l2.3-0.9l0.7-1.2l4-0.2l13,0.6l4.9,0.1l4.2,1.3l2.5-4.2l0.4-2l-1.1-0.9l0.9-1.2v-1.2l0.6-2h2.3
	v-1.4l0.7-1.6v-3l1.4-1.4l0.6-2.3l2.3,1l1.5-2.6h2.3l2.7-1.9l6.9-1.9h2c0,0,3.2-0.1,7-0.1l-1.6-0.4l-0.2-0.7l-0.2-0.2l-0.3,0.2
	l-0.1,1.1l-6.9-3.3l0-0.1l0.1-0.1l1.5,0.1l0.2-0.1l0.1-0.3l-16.4-24.4l-5.1,8.7L418.2,435.1z"/>
<polygon class="st2" points="445.1,475.1 443.1,477.6 439.1,480.2 435.7,478.5 429.8,479.7 425.2,479.8 420,481.2 416.1,484.9 
	418.2,485.9 418.6,488.3 418.6,491.8 420.2,494.7 420.1,499.9 420.1,501.2 421.2,500.8 421.7,500 423.1,501 425.6,501 426.8,500.1 
	427.7,501 429.6,501.1 430.8,501.1 431.8,500.2 432.8,501.1 432.8,503.2 435.3,503.2 437.2,503.2 437.8,505.3 437.8,507.2 
	438.5,509 440.5,509.1 443.1,508.5 450.5,507.5 455.7,507.5 454.7,503.3 454.6,503.5 454.6,503.2 454.7,503.3 454.9,501.8 
	455.1,501.5 455,501.4 454.9,497.9 454,497.6 454.6,488.8 454.4,488.3 453.3,487.9 456.7,474.7 449.6,477.4 "/>
<polygon class="st1" points="380.3,362.2 380.8,362.6 380.5,363.1 380.6,363.5 380.9,363.7 381.9,363 382,362.8 382.6,362.3 
	382.8,362 382.5,361.6 381.9,361.3 381.2,359.6 380.5,359.6 380.4,359.8 380.9,360.8 379.9,362.5 "/>
<g>
	<path class="st3" d="M337.1,307l-2-1.6l-0.3-2.8l-0.7-0.2l-0.7-1l0.3-0.6l-1.3-1.1l0,0.7l-2.1,0.6l0.2-1l-0.7-0.4l0.5-0.5l0.1-0.7
		l-0.8,0.4l0.2-0.5l-0.4-0.5l-0.3,1.1l-0.3,0.3l-0.5,0.1l-0.2-0.3l0.3-0.8l-0.7-0.2l-0.6-3.4l-0.2-0.2l-1.1,0.9l-1.1-0.2l-0.6-0.6
		l-0.4,0.2l-0.2,0.4l0.2,0.9l0.8,0.5l0.1,0.3l-0.2,0.4l-1,0.3l-0.3,0.4l1.2,0.3l0,0.3l-0.8,0.4l-0.9,0l0.2-0.5l-4-3l0.3-0.2l0.1-0.3
		l-0.1-0.3l-0.3-0.2l1.2-0.4l-1-1.4l0.2-0.6l-4.1-0.9l-1.6-1.8l-0.7,0.4l-0.6-0.2l-0.2,0.1l-0.2,0.7l-1.8-0.1l-2-2
		c-2.7,1.4-7.2,3.7-7.2,3.7v7.4l-1.5,0.9l-1-1.4l-2.3,0.7v11.3h-1.2v2.2l-1,0.6l-1.9,0.5v1.6l-1.9,0.2l-2.1-1.4l-2.1,4.5h-1.6
		l-1.2,2.7l0.4,4v2.6l-1.1,0.6l0.4,3.3l2.5,1l1.7,0.6l-0.5,2l-1.5,0.7l-0.6,1.9l0.6,2.8l-0.1,0.1l2.9,0.5l2.8,0.8l2.5,1.4v2.5h1.7
		v-0.8l1.4-0.8l1.6,0.8h1.6h4.2l1.7-4.2l2.6-2.5l2.3-2.3l-0.8-2.5v-2.5l2.4,2.5h5.2l0.2-3.7l-1.4-3.3l5.9-3.1l-1.2-3.9l1.6-0.9
		l3,2.2l1.6-1.2l1.6-3.7l2.3-0.9l1.6-1.6l-0.2-0.6l-0.4-0.2l0.5-1l-0.2-0.4l-0.7-0.1l-1.1-2.3l0.6,0l1.3-1.7l-0.6-1.8l0.9,0.5
		l0.3,0.5l0.9,0l0.5-0.8l0-0.2l0.1-0.1l0.4,0l0.5,0.4l0.2,0.7l-0.2,0.7l0.7,0.3l0.5,0.7l0.2-0.2l0.3,0l0.3,0.1l0.2,0.3l0.5-0.2
		l0.5,0.2l-1.1-1.7L337.1,307z"/>
	<polygon class="st3" points="341.9,305.3 341.2,307.5 341,307.6 340.5,307.6 340.3,307.8 340.4,308.3 340.7,308.6 341.8,307.4 
		342.5,307.2 	"/>
	<polygon class="st3" points="341.1,302.2 341.3,301.8 340.1,300 339.5,299.9 338.8,297.3 338.4,297.7 337.8,299.8 338.4,299.9 
		337.2,301.4 337.3,301.6 337.8,301.6 338.4,301.2 338.4,302.4 338.7,302.5 339.3,302.1 339.8,302.7 340.3,301.4 	"/>
	<polygon class="st3" points="336.1,297.4 336.5,297.7 336.7,297.3 336.8,297.3 336.9,297.4 336.9,297.5 336.9,297.5 337.2,297.3 
		337.1,298.1 338.1,297.1 337.7,296.2 338.7,294.5 338.2,294 338,294.6 337.5,294.9 337.3,294.8 337.2,294.7 337,294.6 336.7,294.9 
		336.6,295.1 336.9,295.5 335.9,296.9 	"/>
	<polygon class="st3" points="324.5,294.2 324.8,292.9 324.6,292.3 323.9,291.8 323.9,294 324.3,294.1 	"/>
</g>
<g>
	<polygon class="st4" points="64.7,196.7 65.2,195.9 65.5,196 65.4,193.9 66.7,195.6 68.8,195.7 70.8,194.7 71.2,193.6 71.5,193.3 
		71.8,193.4 72.3,194 72.6,194.1 73.2,193.3 73.1,193.1 73.6,192.3 73.4,191.1 73.6,190.8 73.9,190.7 74.8,191.1 75,190.8 
		75.1,190.5 74,190 74,189.7 75.1,189.5 75.8,188.7 77.4,190.7 78.1,189.9 79.3,189.7 80.1,189.9 80.3,189.8 80.2,189 80.5,188.7 
		80.9,189.3 81,188.4 80.9,187.5 80.6,187.5 80.2,188.2 79.7,188.1 79.9,187.5 78.4,187.3 77.2,186.2 66.6,189.9 64.2,194.9 
		64.4,196.7 	"/>
	<polygon class="st4" points="63.2,199.7 63.4,199.8 63.6,199.6 63.8,199 64.5,199 64.8,198.8 64.7,198.3 64.1,198.3 62.9,198.8 
		63.1,198.8 	"/>
	<polygon class="st4" points="72.5,208 72.5,207.4 72.8,207 73.8,206.8 73.9,207.3 74.2,207.4 74.5,207.4 74.9,207 76.3,206.8 
		76.5,206.2 75.9,205.4 76.1,205 74.2,203.4 74.2,203.9 71.7,206.8 72.3,207.9 72.3,208 	"/>
	<polygon class="st4" points="226.2,260.6 226.2,259.5 224.8,259.5 224.8,257.1 221.8,256.4 221.8,246.3 223.7,246.2 224.1,244.7 
		224,242.8 222.3,242.8 221.3,241 218.6,239.5 218.6,238.8 215.7,238.8 213.4,236.4 208.4,236.8 206.3,234.7 202.5,231.6 
		202.4,229.4 198.2,228.3 197.8,226.6 192.5,226.9 191.5,228.1 189.3,228 186.1,224.9 185.3,227.1 183.3,223.8 181.2,224.4 
		180.2,225.9 178.8,226.4 177.2,225.7 175.4,224.4 174.7,225.9 173.8,226.4 171.8,226.9 171.8,228 160.1,227.6 157.3,223.2 
		154.5,223.6 154.3,221.7 151.2,221.3 154.8,218.9 156.3,218.9 156.3,216.6 158.6,218.5 160,219 160,215.8 161.9,215.8 162.9,213.7 
		161.7,212.7 158.9,211.6 159,210 160.5,208.3 161.7,206.7 161.2,202.8 162.9,197.2 162.9,191.4 162.9,188.1 164,183.5 166.2,183.5 
		168.3,182.3 168.3,181.3 166.2,181.3 164,178.7 164.5,176.7 165.7,176.7 167.9,175 166.9,173 166.4,171.5 168.5,170.8 168.7,169.3 
		169.4,167.4 171.5,167.4 172.5,166.1 172.7,163.2 174.6,163.1 174.6,159 173,158.5 171.3,160 170.1,159.1 167.3,158.8 165.8,160 
		166.6,162.4 162.2,162.7 158.1,162.5 154.4,162.7 153.8,161.5 152.2,160.5 152.2,158.4 150.8,156.5 150.2,154 148.8,155.8 
		148.8,156.9 148.8,159.4 147.4,161.1 145.4,159.4 145.3,161.5 145.3,163.2 148,163.2 147.2,165.1 146.7,166.1 142.7,166.1 
		138.6,166.1 135.6,165.1 129.3,165.1 128.8,164.9 126.7,172.4 128.2,176.3 124.3,187.1 124.6,187.4 123.5,190.9 123,190.8 
		119.5,197.8 118.5,198 111.9,216.8 109.3,217.9 108.8,219 88.3,224.6 67.1,213.3 64.4,207.3 64.8,204.8 62.1,203.2 61.4,201.3 
		51.6,198.2 50.8,197.4 34.2,192.5 32.5,190.4 32.5,242.8 39,242.8 40.1,260.6 43.6,260.6 43.6,261.8 48.8,261.8 49.8,263.4 
		52,260.8 55.9,266 62.6,260.1 64.8,262.7 62.6,263.6 64.8,266 67.7,263.1 69,264.2 69,266 67.6,270.1 69,271.8 79.4,271.8 
		79.4,274.7 78.1,277.1 78.5,279.4 85.4,279.4 85.4,284.6 89.8,283.4 93.9,283.6 92.8,280.1 92.2,277.1 90.7,274 89.3,270.3 
		90.6,267.9 99.5,268.2 99.5,269.9 105.6,270.1 105.6,268.4 110.6,269.4 112.1,269.9 113.4,272.5 115,271.2 116.3,269 117.8,271.4 
		121.7,271 121.7,273.4 126.9,273.1 126.9,274.4 130.4,274.2 131.4,276.6 136.4,277.1 140.4,276.6 147.3,279.2 148.2,281 
		150.8,280.3 152.7,278.3 156.6,279.7 158.8,278.6 163.8,279 163.8,286.6 183.8,288.3 186.2,284.6 187.5,282.9 188.7,282.7 
		190.5,281.2 191.8,282.9 194.2,284.9 196.3,284.9 197.9,284.4 200.1,286 204.4,285.7 204.4,283.8 207.8,283.6 208.7,286 211,283.9 
		211,281.7 212.9,281.7 212.9,279.6 214.4,280.2 216.8,280.2 216.8,278.1 218.6,278.8 219.8,278.1 219.8,275.6 222.8,272.1 
		225.2,273.3 226.2,272.4 224,271 223,269 221.8,266.9 222.8,265.6 224,264.1 225.5,263.6 224,262.4 224.6,261.3 	"/>
</g>
<g>
	<polygon class="st5" points="153.1,18.8 152.9,18.1 152.3,17.6 151.4,17.8 151,18.4 151.1,19.1 151.7,19.6 152.5,19.3 	"/>
	<polygon class="st5" points="150.2,8.2 151,8.1 152.1,8.7 153.5,6.7 152.8,5.5 151.1,5.2 150,5.6 150,6.3 149.4,6.8 	"/>
	<polygon class="st5" points="148,6.6 148.4,6.6 148.7,6.5 149.6,4.2 149.6,3.9 148.8,3 148,2.7 146.8,4.6 146.8,5.1 	"/>
	<polygon class="st5" points="149.4,18.2 148.2,19.4 147.5,19.7 147.2,20.8 148.3,22.9 149.3,23.3 149.8,22.2 151.9,21.8 
		151.9,21.7 150,18.3 	"/>
	<path class="st5" d="M237.6,171.7l0.3-1.5l0.1-0.6l-0.4-0.6l0.2-1.9l-1.4-3.2l-0.2-0.1l-0.1-0.2l0.4-0.8l-0.2-0.9l-1.1-0.9l0-0.1
		l-0.1-0.1l-0.1-0.5l0.4-0.4l-0.4-1.7h-0.2l-0.3,0.2l0.3-1.6l0.8-0.4l0.1-0.9l0.3-0.3l-0.5-0.4l0.1-0.5l1.6-0.9l0.2-0.6l-0.2-0.6
		l-0.5-0.4l-0.4,1.1l-0.8,0l-0.6-0.5l-0.4-4.2l2.7-4.4l-1.9,0.1l-1.8-2.5l0.3-0.8l-1.9,0.1l-2.8-1.3l-0.7,0.4l-2.5-2.3l-0.1-1.6
		l-0.7-0.7l-0.2-0.7l-0.2-0.2l-2.9-0.4l-1.1-1.4l-2.2,0.1l-1.6-2.1l-0.1-2.4l0.5-0.7l0-1.1l-0.9,0.7l-0.5,0l0.1-2.9l-1.9-2.7l-1-0.4
		l-1.1,2.6l-3.8,1.8l-0.3-0.3l-1-0.1l-0.6-1.2h-0.2l-0.4,0.4l-0.4-0.6l-0.4,0.4l-0.3,2.7l-6.5,4.5l-0.2-0.5l-2.5-0.8l-8.7-20.3
		l1.8-7l-0.4-0.2l0.2-2.9l-1.7-2.1l-1-12.1l1.4-2.6l-2,0.8l-0.9-0.2l-0.7,0.5l-0.9-0.4l-0.6,0.8l1.4-5.9l-0.2-0.2l0.9-1.4v-0.2
		l-3.4-1.8l-1.3-4.3l-2.4-1.8l-2.5-0.1l-0.2-0.2l0.4-2.3l-0.4-0.4l0.3-0.5l-0.1-2l0.1-0.2l0.3-0.1l2.9-4.5l1-0.1l0.3-0.3l-0.3-0.3
		l-1.8,0.2l-2-1.7l-3.1,0.9l-1.4-1.2l-0.3,0l-1.8-1.6l-0.6-9.7l-0.5-0.6l1.4-2.7l-1.2-2.5l-0.3,0.1l-0.6-2.9l0.4-0.7l-1.9-5.6
		l-0.5-0.2l-1.3,0.4l-0.3,0.6l-0.2-0.6l0.2-0.9l-0.2-0.5l-0.7-0.1l-0.6-1.8l-1.3,0.1l-0.8,1.6l-1.1,0.6l0.4-2.8l1-0.4l0.8-1.3
		l0.7-0.4l0.4-1l-1.8-1.1l0-0.5l-0.1-0.1l-1.1,0.8l-1.6,0l-3.5,5.4l-2.4,0.5l-0.3,0.3l-0.2-0.2l-1.3,0.3l-0.7,0.6l-5.5,29.4l0.7,0.1
		l0.9,1.3l0.5,0.1l0.1,0.4l-0.3,0.9l-1.6-1l-1.2,2l-0.6-3.3l0.4-1l-1.2,0.3l-3.3,7l0.1,0.3l0.2,0.1l0.5-0.6h0.2l0.1,0.6l0.5,0.4
		l-2.6-0.1l-3.5,8.9l0.3,0.6l2.8-0.5l-0.1-0.3l-1.1-0.2v-2.3l0.1-0.1l0,0l0.1-0.1l1,0.5l1.2-0.1l0.2,0.2l-1.6,1.2l1.5,0.6l1.4,1.6
		l2.8,0.2l0.5-0.6l1.6,0.6l-1,0l-3.2,2l1.6,0.5l0.7,0.9l2.9,0.4l-2.9,1.2l0.9,4.4l-2.4-6.5l-0.5-0.1l-0.3,0.6H139l0.1-1l-0.3,0
		l-2.6,5.7l-2,1.3l-0.4-0.4l-1.3,2.7l0.1,0.3l0.5,0.3l1.5,5.4l0.6,0.4l0.3,0.9l-0.9,2.5l0.3,0.5l-0.5,0.2l-0.6-0.2l-4.1,17.4
		l3.2,4.8l1.1,23.6l-0.2,0.3l1,2.2l-0.2,2.4l-0.6,0l0.1,1.4l-1.1,1.2l0.2,0.6l-0.4,0.1l-3.8,13.6l0.5,0.2h6.3l3,1h4.1h4.1l0.5-1
		l0.7-1.9h-2.7v-1.7l0.1-2.1l2,1.7l1.5-1.7v-2.5v-1.1l1.4-1.9l0.6,2.6l1.4,1.9v2.1l1.6,1l0.6,1.2l3.7-0.2l4.1,0.2l4.5-0.4l-0.9-2.3
		l1.5-1.2l2.8,0.4l1.2,0.9l1.6-1.5l1.6,0.5v4.1l-1.9,0.1l-0.2,2.8l-1,1.4h-2.1l-0.6,1.9l-0.2,1.5l-2.1,0.7l0.5,1.5l1,2l-2.2,1.7
		h-1.1l-0.5,2l2.2,2.6h2.1h0.4l8.2-0.6l1.7,1.5l4,0.7l2.2-1.6l1.2-1.4l2.6,0.9v1l2.5,0.2l1.6-1.5l1.9,2.3l1.1,1h2l1.2-2l4.7,0.4
		l2.7,1.6l1.5,1.6l1.9,3h2.7l0.5-0.9l0.7,1.5h1.4h2.6l1.6-2.3l1,0.6l2,1l1.2-0.4v-1.6l1.7,0.1l0.5,2.6h1.4c0,0,2.3,0,2.7,0
		s1.5-0.9,1.5-0.9v-2.6l1.1,0.1l-0.6-2.5l2.8-0.2v-3.5l-1-0.1l0.5-2.2l1.6-0.1l1.2-1.9l3.2,0.6l0.3,0l0-0.5L237.6,171.7z"/>
</g>
<path class="st6" d="M262.5,247.4l1.3,0.5l1.2-1.8l0.6-0.3l0-0.3l-0.6-0.5l-0.3-0.3l0.5-0.1l0.1-0.2l-0.1-0.3l-0.9-0.3l-0.8-1.2
	l-0.1-0.1l0.7-2.1l-1.5-0.1l-0.4-0.3l-0.2-0.7l-0.3,2.4l-3.4-1l-0.1,0.6l1.8,2.9l-1.6-0.4l-2.5-3.4l0.2-0.7l-0.4-1.6l3.1-8.6
	l-0.6-0.9l0.1-0.9l-0.3-0.3l0.6-0.8V224l1.1-1.5l-2.2-3.4l0.2-0.3l-4.6-12.3l-0.7-0.4l1.5-4.4l-0.2-0.1l0-0.2l0.4-0.4l0,0l0.2-0.5
	l-0.1-0.3l-0.8-0.1l-1.2,1.1l-0.4,0l-0.8-0.7l-1.4,1.4l0.3,1.6l-0.1,0.2l-0.3,0.1l-0.3-0.1l-0.1-0.9l-0.8-1l0.1-0.4l0.8-0.3l0.1-0.4
	l-9.2-12.2l-0.6,0.2l-0.5-0.4l1.7-6.5l-0.3-0.9l-0.7-0.4l0.4-4.6l-0.3,0l-3.2-0.6l-1.2,1.9l-1.6,0.1l-0.5,2.2l1,0.1v3.5l-2.8,0.2
	l0.6,2.5l-1.1-0.1v2.6c0,0-1.1,0.9-1.5,0.9s-2.7,0-2.7,0h-1.4l-0.5-2.6l-1.7-0.1v1.6l-1.2,0.4l-2-1l-1-0.6l-1.6,2.3h-2.6h-1.4
	l-0.7-1.5l-0.5,0.9h-2.7l-1.9-3l-1.5-1.6l-2.7-1.6l-4.7-0.4l-1.2,2h-2l-1.1-1l-1.9-2.3L191,182l-2.5-0.2v-1l-2.6-0.9l-1.2,1.4
	l-2.2,1.6l-4-0.7l-1.7-1.5l-8.2,0.6h-0.4v1l-2.1,1.2H164l-1.1,4.6v3.3v5.8l-1.7,5.6l0.5,4l-1.2,1.6L159,210l-0.1,1.6l2.8,1.1l1.2,1
	l-1,2.1h-2v3.2l-1.4-0.5l-2.3-1.9v2.2h-1.5l-3.6,2.5l3.1,0.4l0.2,1.9l2.7-0.4l2.8,4.5l11.7,0.4v-1.1l2-0.5l0.9-0.5l0.7-1.5l1.7,1.2
	l1.6,0.7l1.5-0.5l1-1.5l2.1-0.6l2,3.3l0.7-2.2l3.2,3.1l2.2,0.1l1-1.2l5.3-0.2l0.4,1.6l4.2,1.1l0.1,2.2l3.8,3.1l2.1,2.1l4.9-0.4
	l2.3,2.3h2.8v0.7l2.7,1.5l1,1.9h1.7l0.1,1.9l-0.5,1.5l0,0.1l0.7,2l3.5,0.6l-0.9,3.8l1.9,0.4l0.9-0.9l2,0.1l0.9,1.6h2.5h1.4l-0.6-2
	l1.2-1.2l-1.4-0.6l-1-2.3l4-0.4l0.4,1.4l0.2,2.3l1.9,2.8h4l-0.5-2l1.2-1.6l2,0.6l4-0.1l1-1.9l2.7-0.5l3.2,0.9l1.9-0.5l2.2,3.3
	l1.5,0.5l0.2-1.2l-0.2-1.8l-0.8-1.1l-0.2,0.1l-1.3-0.5l-0.6,0.2l-0.7-3.2l1.1,1.8L262.5,247.4z"/>
<g>
	<polygon class="st7" points="375.5,343.3 375.6,342.7 374.1,341.6 374,341.6 374.1,342.5 373.9,342.9 374,343.3 374.1,343.1 
		374.3,343 375.1,343.5 375.2,343.4 375.3,343.1 	"/>
	<polygon class="st7" points="376.6,345.2 376.3,345 375.3,345.2 375.3,345.4 376.7,346.1 377.4,344.8 	"/>
	<polygon class="st7" points="364.8,354.3 364.2,354.9 364,355.3 364.2,355.6 363.4,358 363.8,358.9 363.7,359.7 364,359.9 
		364.6,359.6 364.6,359.5 365.2,357.1 364.8,354.3 	"/>
	<polygon class="st7" points="359.4,366.4 360.3,364.2 360.6,364.1 359.8,363.3 359.5,363.4 359,364.7 359.3,365.3 359,366 	"/>
	<polygon class="st7" points="359.6,367.3 357.7,368 358.9,365.9 358.7,363.5 358.2,363.7 357.2,362.3 355.6,361.6 356.2,360.5 
		355.3,358.9 354.7,358.7 354.7,358.4 355.3,357.9 351.3,346 351.5,345.5 352.4,345.1 352.6,344.8 351.6,342.1 353.1,340 352.8,339 
		352.6,338.8 351.8,340.2 351.2,340.4 350.9,340.2 350.7,339.6 350.3,339.4 350.3,338 349.2,337.7 348.9,337.3 347.8,338.2 
		347.4,338.2 347.4,336.7 348.7,335.6 347.5,335.2 347.2,334.8 348.2,334.2 347.4,332.4 347.5,332.2 347.6,332 347.4,331.3 
		346.8,331.3 346.9,331 346.6,330.5 346.3,330.5 346,331.2 345.8,331.3 344.7,329.5 344.7,328.3 345.7,326.6 345.7,325.5 
		344.8,324.3 344.1,323.9 343.4,322.7 342.3,322.6 341.9,321.9 340,322.1 340.3,321.4 340,320.4 340.3,320.3 341.3,320.6 341.2,320 
		340,319.8 339.8,319.8 339.7,320 339.6,320.1 338.4,318.9 337.2,319.1 335.8,318.1 334.9,319.4 334.4,319.5 335.2,317.8 
		334.9,316.1 334.6,315.7 334.2,315.6 333.4,315.9 332.6,314.6 332,314.4 331.8,314 330.2,315.6 327.9,316.5 326.3,320.2 
		324.8,321.5 321.8,319.3 320.3,320.2 321.5,324.1 315.6,327.2 317,330.5 316.8,334.2 311.6,334.2 309.2,331.7 309.2,334.2 
		310,336.7 307.7,339 305,341.5 303.3,345.7 299.1,345.7 297.6,345.7 296,345 294.6,345.7 294.6,346.5 292.9,346.5 292.9,344 
		290.4,342.6 287.6,341.8 284.7,341.3 282.4,343.5 282.4,346.1 280.4,346.4 278.9,345.4 277.3,345.1 277.3,343.3 275.3,343.3 
		272.1,343.2 272.1,345.9 270.4,346.4 269.5,345.3 269,344.1 269,341.6 266.4,340.9 264.1,340.4 262.7,341.4 262,343.6 262.5,345.4 
		261.1,346.6 260.6,350.9 263.1,352.4 264.7,352.1 265.3,354.8 264.8,356.6 262.8,356.6 261,356 260.5,358.6 259.9,359.9 
		261.7,359.9 261.7,363.2 260.8,364.9 261.7,366.7 261.7,368.4 263,370.4 264.9,368.6 267.1,369.1 267.1,371.3 269.7,371.3 
		272.5,371.3 272.5,373 271,374.1 271.4,377.3 271.4,378.8 274,378.8 275.3,381.5 278.4,381.5 278.4,384.7 280.8,384.7 280.8,389.7 
		283.4,389.7 283.4,393 286.8,393 289.5,394 291.2,395.5 294.7,395.5 294.8,390.6 298.2,390.5 300.7,387.7 301.5,384.9 304.1,383.8 
		304.7,379.4 307,379.3 309.2,377.4 311.6,378.8 313.7,378 314,375.9 315.6,376 316.8,378.2 317.1,380.8 319.6,382.1 321.2,381.6 
		322.6,380.5 323.2,378.5 325.2,379.4 325.2,381.6 323.8,384.6 327.1,385.5 327.7,383.6 329.1,384.4 329.3,387.7 331.6,388.3 
		330.7,390.9 331.3,392.5 329.1,395.9 329.6,398.9 329.1,401.2 329.3,403.1 331.9,403.1 333,399.5 333.9,398.1 335.5,399.3 
		337.7,399 337.8,395.4 341.1,396.2 340.3,391.6 341.2,390.2 343.2,389.5 346.7,389.7 346.7,387.5 349.6,386 350.9,385 353.2,383.3 
		353.2,381.2 351.8,378.5 354,377.6 355.7,376.6 358.5,377.3 358.5,373.7 360.2,373.5 362.2,371.5 363.4,366.4 361.9,364.5 	"/>
</g>
<g>
	<polygon class="st8" points="278.5,268.2 279.5,267.5 279.8,267.8 280,266.5 279.9,266.2 279.8,266 279.7,266.1 279.6,266.4 
		278.8,266 278.5,266.4 277.5,266.6 277.3,266.9 277.9,267.8 	"/>
	<polygon class="st8" points="274.7,255.6 274.6,255.3 273.7,255.4 271.8,253.5 271.7,253.7 271.5,255.9 274.4,256 	"/>
	<path class="st8" d="M307.4,287.6l-0.4-2.7l-2.6-1.3l1,4.3l-2.8-0.2l-3.3-3.7l0.9-0.1l-4.9-11.6l-0.6-0.3l-0.1,0.3l1.2,1.4l0.2,1.1
		l-8.5,0.1l-0.4,0.4l-2.3-3.3l0.4-1.6l-1.1-2.1H284l-0.2,2.2l-1.5,1.3l-1.5,0.2l-4.4-3.9l-1.5,0.6l-11.8-10.2l1.2-5.8l-1.5-0.5
		l-2.2-3.3l-1.9,0.5l-3.2-0.9l-2.7,0.5l-1,1.9l-4,0.1l-2-0.6l-1.2,1.6l0.5,2h-4l-1.9-2.8l-0.2-2.3l-0.4-1.4l-4,0.4l1,2.3l1.4,0.6
		l-1.2,1.2l0.6,2H235h-2.5l-0.9-1.6l-2-0.1l-0.9,0.9l-1.9-0.4l0.9-3.8l-3.5-0.6l-0.7-2l0-0.1l-1.9,0.1v10.1l3,0.6v2.5h1.5v1.1
		l-1.6,0.6l-0.6,1.1l1.5,1.2l-1.5,0.5l-1.2,1.5l-1,1.4l1.2,2.1l1,2l2.2,1.4l-1,0.9l-2.5-1.1l-3,3.5v2.5l-1.2,0.7l-1.8-0.7v2.1h-2.4
		l-1.5-0.6v2.1H211v2.2l0.1-0.1l2.2,1.5l1.7,1.3l-1.1,4.6l0.2,3.5l0.9,1.7h2.2l1.1-1.3l1.7,1.3l2.6,2h2.8v1.9l1.7,1.5l-1.9,3.7
		l2.8,3v2.2h2.6l2.8,4.5h1.3l1.5,1.3v4.6l-1.5,2.2l1.5,1.1h0.9v3l-1.9,0.9l0.4,1.5l1.5,1.7h1.9l-1.1,2.8l1.1,1.9l0.9,4.3h3.9l1.1,3
		l2.6-1.3l2.2,1.3l1.3,1.9l-1.5,2l0.6,4.6h-2l1.4,3.7l0.1,0.2v1.1l3.2,1.9h3l2.2,1.1h2l0.6-1.3l0.5-2.6l1.9,0.6h2l0.5-1.7l-0.6-2.7
		l-1.6,0.2l-2.5-1.5l0.5-4.3l1.4-1.1l-0.5-1.9l0.7-2.2l1.4-1l2.3,0.5l2.6,0.7v2.5l0.5,1.2l0.9,1.1l1.7-0.5v-2.7l3.2,0.1h2v1.7
		l1.6,0.4l1.5,1l2-0.4v-2.6l2.4-2.1l0.1-0.1l-0.6-2.8l0.6-1.9l1.5-0.7l0.5-2l-1.7-0.6l-2.5-1l-0.4-3.3l1.1-0.6v-2.6l-0.4-4l1.2-2.7
		h1.6l2.1-4.5l2.1,1.4l1.9-0.2V314l1.9-0.5l1-0.6v-2.2h1.2v-11.3l2.3-0.7l1,1.4l1.5-0.9v-7.4c0,0,4.5-2.4,7.2-3.7L307.4,287.6z"/>
</g>
<polygon class="st9" points="309.9,439.4 307,438.1 305.1,440.1 301.6,442.2 298.6,442.2 295.3,440.7 292.3,440.7 291,439.2 
	285.6,439.2 284,436.6 285.6,434.8 284.7,432.4 282.7,432 281.4,433.8 279.7,434.8 277.1,431.1 276,428.3 275.8,426.8 279.1,426.8 
	281.7,426.8 283.8,426.8 284.5,423.6 285.5,420.5 287.5,420.5 288.6,418.1 292.3,417.2 293.1,413.1 293.1,408.6 293.2,404.5 
	295.3,401.4 296.6,399.9 294.7,398.8 294.7,395.5 291.2,395.5 289.5,394 286.8,393 283.4,393 283.4,389.7 280.8,389.7 280.8,384.7 
	278.4,384.7 278.4,381.5 275.3,381.5 274,378.8 271.4,378.8 271.4,377.3 271,374.1 272.5,373 272.5,371.3 269.7,371.3 267.1,371.3 
	267.1,369.1 264.9,368.6 263,370.4 261.7,368.4 261.7,366.7 260.8,364.9 261.7,363.2 261.7,359.9 259.9,359.9 257.8,359.9 
	255.6,358.7 252.6,358.7 249.5,356.9 249.5,355.8 249.4,355.6 248,351.9 250,351.9 249.5,347.2 251,345.2 249.7,343.3 247.4,342 
	244.8,343.3 243.7,340.4 239.8,340.4 238.9,336.1 237.8,334.3 238.9,331.5 237.1,331.5 235.6,329.8 235.2,328.3 237.1,327.4 
	237.1,324.4 236.1,324.4 234.6,323.3 236.1,321.1 236.1,316.5 234.6,315.2 233.3,315.2 230.6,310.7 228,310.7 228,308.5 
	225.2,305.5 227,301.8 225.4,300.3 225.4,298.5 222.6,298.5 220,296.4 218.3,295.1 217.2,296.4 215,296.4 214.1,294.8 213.9,291.2 
	215,286.6 213.3,285.3 211.1,283.8 211,283.9 208.7,286 207.8,283.6 204.4,283.8 204.4,285.7 200.1,286 197.9,284.4 196.3,284.9 
	194.2,284.9 191.8,282.9 190.5,281.2 188.7,282.7 187.5,282.9 186.2,284.6 183.8,288.3 163.8,286.6 163.8,279 158.8,278.6 
	156.6,279.7 152.7,278.3 150.8,280.3 148.2,281 147.3,279.2 140.4,276.6 136.4,277.1 131.4,276.6 130.4,274.2 126.9,274.4 
	126.9,273.1 121.7,273.4 121.7,271 117.8,271.4 116.3,269 115,271.2 113.4,272.5 112.1,269.9 110.6,269.4 105.6,268.4 105.6,270.1 
	99.5,269.9 99.5,268.2 90.6,267.9 89.3,270.3 90.7,274 92.2,277.1 92.8,280.1 93.9,283.6 89.8,283.4 85.4,284.6 85.4,279.4 
	78.5,279.4 78.1,277.1 79.4,274.7 79.4,271.8 69,271.8 67.6,270.1 69,266 69,264.2 67.7,263.1 64.8,266 62.6,263.6 64.8,262.7 
	62.6,260.1 55.9,266 52,260.8 49.8,263.4 48.8,261.8 43.6,261.8 43.6,260.6 40.1,260.6 39,242.8 32.5,242.8 32.5,476.2 116.2,476.2 
	116.2,571.3 269.3,571.3 281.6,571.3 282.1,565.5 281.6,563.5 279.9,562 279.9,559.8 280.8,559.8 280.1,556.4 282.1,557.3 
	282.5,555.7 281.9,553.5 283,551.8 283,549 282.7,547.3 282.1,545.1 281.4,541.8 283.6,541.8 283,539.7 282.9,536 286.2,536 
	287.3,535.1 286.4,532.1 287.3,526.6 289.2,524.2 288.6,521.2 286.9,521.2 285.6,520.3 285.6,516 285.8,513 287.3,511.7 
	287.5,509.1 285.5,508 285.5,506.2 287.1,503.4 291,503.4 290.6,498.6 291.2,495 290.6,492.6 291.9,490.6 294.2,490.6 294.4,488.5 
	293.2,486 295.5,484.3 295.7,481.1 298.2,481.1 298.2,477.8 298.8,476.1 298.8,475 296.6,475 296.8,473.5 294.2,473.5 293.6,471.1 
	294,468.9 290.5,468.9 290.5,466.9 290.8,464.6 292.3,464.6 294.2,464.6 295.8,463.5 296.4,460.2 296.4,458.5 297.1,456.1 
	296.2,456.1 296.4,453.7 297.9,455.2 301.8,455.2 302,452.6 304.9,452.6 304.9,446.5 308.1,446.5 308.4,444.8 310.7,444.8 
	311.3,443.1 311.6,442.2 311.6,440.1 "/>
<g>
	<polygon class="st10" points="395.7,399.3 399.3,404.7 401,407.3 402.4,407.3 403.1,406.5 403.3,406.4 403.3,406 403.1,404.7 
		403,404.3 402,403.6 401.7,398.4 400.4,399.8 399.9,399.7 400.3,399.2 397.3,398 397.2,397.3 397,397.2 396.2,397.4 395.8,397.1 
		396.7,398.6 396.4,399.2 	"/>
	<polygon class="st10" points="405.7,410.4 405.8,410 404.5,406.5 404.3,406.5 404,407 405.1,410.2 	"/>
	<path class="st10" d="M420.1,419.6l-0.1-1l-0.2,0.1l-0.4,0.8l-1.1-0.3l-1.6-4.3l-1.1,0.9l0,0.4l-0.5-0.1l-0.3-0.5l0.6-0.6v-0.2
		l-1.5-1.1l-1.5,0.1l-0.2,0.4l0.2,0.3l1.2,0.7l0.8,2.1l-1.9-1.5l-0.7,0.2l-0.4-0.4l-0.3,1l0.1,0.2l-0.2,0.4l-0.8-0.4l-0.2-0.9
		l0.4-0.3l0-0.2l-2.3-1.5l-0.5,0.6l-3.7-4.7l-0.6,0l-0.5-1.1l-1.9-0.3l-2.4-3.7h-6.4l-1.9,2.8l-2,1.9v2.1H386l-1.9,3.2l-2.4-1.3v2
		l-2.8-0.9l-2-0.2l-1.9-0.7l-0.9-1.7v-2.5l-3.5-1.4l-0.7,2l-2.4,1.7l1.3,2.4l0.7,1.3v1.9h-2v-1.5l-1.9-0.2v1.7h-2.7v1.7h-1.5v1.5
		l2.2,2l-1.3,1.1h-0.9H360l-1.2-1.2v2.6v1.2l0.7,2.3l1.1,3.5l-0.6,3.6l-1.2,2.8l-2.5,2.5h-2.6v1.7l-2,1.1v3.5h-1.9h-2.1v1.9h-1
		l-1-1.2l-1-0.5v3.2h-2.3v-2.6l-1.4-1.1l-0.7-4l-2-0.2l-2,2.1l-1.1,1.7v2.7v2.7l1.6,1.1l-0.1,1.9l2.2,1.1l-0.5,1.9l-0.8,2.5
		l-0.2,0.5l0.6,3l2.2,1.7l0.2,1.1l-1,1.1l-1.4,0.5h-1.1l-0.1,3h1.9l1.4-0.9l0.5,2.1v2.8h2.2l2.3,0.7h2.1l2.3-1.9l0.2-1.2l1.5,0.9
		h14.6l3-0.4l2.2-1.7l2.8,1h1.7v-3.3l0.9-2.3l-1.1-3.3l-0.5-2.3c0,0,2.7-3.5,3.1-3.3c0.4,0.1,2.6-4.2,2.6-4.2v-3.5l-0.2-4.8l1.7-1.9
		l0.2-3.4h2.7h2.3l0.4,1.1l1.5-1.1l0.4-2.2l-1.2-0.5l-0.9-2l0.9-0.6h3l0.6-2.7l1.7-0.5l1.2-0.2l1.2,2l1.7,1.4v2.3l0.6,3.1h2l1-1.8
		l1.4-0.1v-1.5l3-0.6v3.3l1,1.6l2.6-0.9h1.5l2.1,0.8l4.5,0.9l0.7-1.6v-2.3v-3.1l0.9-0.7l5.1-8.7L420.1,419.6z"/>
</g>
<g>
	<polygon class="st11" points="450.6,455.6 451,455.2 450,453.9 449.7,453.4 449.5,453.7 449.6,453.9 	"/>
	<polygon class="st11" points="461.1,444.7 459.2,442.9 458.6,435.6 454.6,439.4 455.3,439.2 457.7,443.6 451.2,451.6 451.2,451.9 
		451.2,452 452.5,452.4 452.7,452.8 452.3,453.5 452.4,453.8 452.7,455.3 450.4,461.4 449.3,462.2 449.6,464.1 450.4,464.3 
		450.8,467.7 452.3,469.9 453.1,469.5 453.6,467.5 453.1,465.8 457.8,453.8 461.2,445.4 	"/>
	<path class="st11" d="M454.2,474.1l-1.2-3.4l-0.4-0.2l0.4,0.6l-1.3,4.1h-0.2l0.4-2.6l-1.4-3.8l-1.1-0.3l-0.7-1l0.6-0.2l-1.5-1.3
		l0.7-0.1l-0.3-2.6l1.9-2.7l-0.6-0.3l-0.2-0.3l0.9-0.7l-0.2-0.5l-0.5,0l-2.1,1.2l0.3-0.7l1.4-1.1l-0.5-4l-0.4-0.1
		c-3.8,0-7,0.1-7,0.1h-2l-6.9,1.9l-2.7,1.9H427l-1.5,2.6l-2.3-1l-0.6,2.3l-1.4,1.4v3l-0.7,1.6v1.4h-2.3l-0.6,2v1.2l-0.9,1.2l1.1,0.9
		l-0.4,2l-2.5,4.2l1.1,0.3v2.5v1.9l3.8-3.7l5.2-1.5l4.6-0.1l5.9-1.4l3.5,1.7l4-2.7l2-2.5l4.5,2.2l7-2.8l0.1-0.3l-1.6,0.3
		L454.2,474.1z"/>
</g>
<path class="st12" d="M421.7,557.2l0.3-0.8l1.9-1.1l-4.2-1.2l-6.2-2.7l2.5-3l1.9-3.7l1-8.3l-0.5-4.9l-2.3-1.1l-0.1-2.1l-0.6-2.6
	l0.7-2.3l3.1-4.1l1.7-1v-2.8v-4.6l-0.9-2.6l0.9-1.5v-1l-0.6-1.9v-2.5v-1.3v-5.2l-1.6-2.8v-3.6l-0.5-2.3l-2.1-1v0v-1.9v-2.5l-1.1-0.3
	l0,0l-4.2-1.3l-4.9-0.1l-13-0.6l-4,0.2l-0.7,1.2l-2.3,0.9v-2.6h-1.2l-2-0.7l0.5-1.2v-2.8l-0.6-1l0.1-2l0.5-2.5h-3.2l-2-1.6l-1.1,0.9
	l-0.9,2.3v3.3h-1.7l-2.8-1l-2.2,1.7l-3,0.4h-14.6l-1.5-0.9l-0.2,1.2l-2.3,1.9h-2.1l-2.3-0.7h-2.2v-2.8l-0.5-2.1l-1.4,0.9H337l0.1-3
	h1.1l1.4-0.5l1-1.1l-0.2-1.1l-2.2-1.7l-0.6-3l0.2-0.5l-2.4-0.3h-3.1l-0.7-4.1c0,0-1.7,0.4-1.7,0c0-0.4-0.7-1.2-0.7-1.2h-5.4
	l-0.9-1.4h-1.4l-1.4-1.4l-0.6-2.8h-2.1l-0.6-2.1h-1.2v-2.8l-1.9-1.2h-2.2l-0.6,1.7h-2.2l-0.4,1.7h-3.2v6.1h-3l-0.2,2.6h-3.9
	l-1.5-1.5l-0.2,2.4h0.9l-0.7,2.4v1.7l-0.6,3.3l-1.7,1.1h-1.9h-1.5l-0.4,2.2v2h3.5l-0.4,2.2l0.6,2.4h2.6l-0.2,1.5h2.2v1.1l-0.6,1.7
	v3.3h-2.6l-0.2,3.2l-2.2,1.7l1.1,2.6l-0.2,2h-2.2l-1.3,2l0.6,2.4l-0.6,3.5l0.4,4.8h-3.9l-1.7,2.8v1.9l2,1.1l-0.2,2.6l-1.5,1.3
	l-0.2,3v4.3l1.3,0.9h1.7l0.6,3l-1.9,2.4l-0.9,5.6l0.9,3l-1.1,0.9h-3.3l0.2,3.7l0.6,2h-2.2l0.7,3.3l0.6,2.2l0.4,1.7v2.8l-1.1,1.7
	l0.6,2.2l-0.4,1.7l-2-0.9l0.7,3.3h-0.9v2.2l1.7,1.5l0.6,2l-0.5,5.8l56.8,0l2.6-2l0.8-2.8l14-9.1l0.4,0.4l0.3,1l2,0.2l0.4,0.4l16.6-3
	l4.2,3.6l16.6,2.8l0.5,3l6.3,3l0.6,2.5l-0.2,0.3l0.5,3l0.7,0.6l0.2,1.4l0.7,0.2l4-3.5l1-3.4l4.8-2.2l0.1,0.1l1,2l1.6,0.7l0.2-0.1
	l0.6-1.7l4.4-0.5l0.8-3.4l0.8-3L421.7,557.2z"/>
<g>
	<polygon class="st13" points="465.9,520.8 464.4,520.8 463.1,519.9 462.9,520 461.7,529.8 462,530.6 463.5,530.4 466,521.1 
		466.1,520.8 	"/>
	<polygon class="st13" points="456.5,523.8 455.7,522.4 455.7,519.9 455.5,519.1 452.6,517.4 452.5,516.9 453.9,515.3 454,513.8 
		453.9,513.7 453.3,514 451.8,513.7 453.1,511.1 455.1,510.3 456.1,510.8 456.6,510.1 455.9,507.2 450.7,507.3 443.3,508.4 
		440.7,509 438.7,509 438,507.2 438,505.3 437.3,503.2 435.4,503.2 432.9,503.2 432.9,501.2 432,500.2 431,501.2 429.7,501.2 
		427.9,501.2 426.9,500.2 425.8,501.2 423.2,501.2 421.8,500.2 421.3,501 420.2,501.4 420.2,503.9 420.8,505.8 420.8,506.8 
		420,508.3 420.8,510.9 420.8,515.4 420.8,518.3 419.1,519.3 416,523.3 415.3,525.7 415.9,528.3 416,530.4 418.4,531.5 418.8,536.5 
		417.9,544.7 416,548.4 413.5,551.4 419.7,554.1 423.9,555.3 436.6,547.7 437.1,547.8 437.8,548.5 437.9,549.5 438.6,550 
		439.1,549.9 439.9,548.7 444,550.8 446.7,549.7 453.7,550.6 455.3,548.7 453.2,546.2 453.6,544.1 453.2,541.7 454.2,540.8 
		454.8,536.4 454.8,534.9 453.8,534.1 453.8,529.3 454.8,529.3 455.3,528.3 456.9,527.8 456.5,526 	"/>
	<polygon class="st13" points="462.7,518.8 463.5,512.3 463.8,508.8 463.7,508.3 463.4,508.2 462.4,508.6 460.9,509.4 462.6,518.9 	
		"/>
</g>
<polygon class="st14" points="462,530.6 462,530.6 461.7,529.8 461.7,529.8 "/>
<polygon class="st11" points="460.6,547.3 464.9,544.1 463.3,541.7 463,537.7 462.3,538.6 462,538.4 462,537.3 462.4,536.4 
	462.8,537.3 463.2,532.7 463,532.7 462.7,533.3 462.2,533.5 462,533.3 462.2,532.4 457.8,522.6 456.6,522.3 455.7,519.9 
	455.7,519.9 455.7,522.4 456.5,523.8 456.5,526 456.9,527.8 455.3,528.3 454.8,529.3 453.8,529.3 453.8,534.1 454.8,534.9 
	454.8,536.4 454.2,540.8 453.2,541.7 453.6,544.1 453.2,546.2 455.3,548.7 456.1,547.6 "/>
<g>
	<text transform="matrix(1 0 0 1 311.5625 503.2207)"><tspan x="0" y="0" class="st15 st16 st17">Southern</tspan><tspan x="-8.9" y="16" class="st15 st16 st17">Queensland</tspan><tspan x="3.7" y="32" class="st15 st16 st17">Country</tspan></text>
	<text transform="matrix(1 0 0 1 150.2822 146.1997)" class="st15 st16 st17">Cape York</text>
	<text transform="matrix(1 0 0 1 79.9805 253.5259)" class="st15 st16 st17">Gulf Savannah</text>
	<text transform="matrix(1 0 0 1 95.6768 408.4482)" class="st15 st16 st17">Outback Queensland</text>
	<text transform="matrix(1 0 0 1 208.585 221.1099)" class="st15 st16 st17">Cairns &amp; Tablelands</text>
	<text transform="matrix(1 0 0 1 255.6797 275.9819)" class="st15 st16 st17">Townsville</text>
	<text transform="matrix(1 0 0 1 311.459 306.9805)" class="st15 st16 st17">Whitsunday</text>
	<text transform="matrix(1 0 0 1 328.2881 351.3262)" class="st15 st16 st17">Mackay</text>
	<text transform="matrix(1 0 0 1 366.9082 388.2158)" class="st15 st16 st17">Capricorn</text>
	<text transform="matrix(1 0 0 1 399.2578 420.7363)" class="st15 st16 st17">Gladstone</text>
	<text transform="matrix(1 0 0 1 433.29 469.8604)" class="st15 st16 st17">Fraser Coast</text>
	<text transform="matrix(1 0 0 1 439.7363 500.2285)" class="st15 st16 st17">Sunshine Coast</text>
	<text transform="matrix(1 0 0 1 428.2695 446.5811)" class="st15 st16 st17">Bundaberg</text>
	<text transform="matrix(1 0 0 1 394.3398 527.7725)" class="st15 st16 st17">Brisbane</text>
	<text transform="matrix(1 0 0 1 397.4766 543.1836)" class="st15 st16 st17">Gold Coast</text>
</g>
</svg>
