<?xml version="1.0" encoding="utf-8"?>
<!-- Generator: Adobe Illustrator 22.0.1, SVG Export Plug-In . SVG Version: 6.00 Build 0)  -->
<svg version="1.1" id="圖層_1" xmlns="http://www.w3.org/2000/svg" xmlns:xlink="http://www.w3.org/1999/xlink" x="0px" y="0px"
	 viewBox="0 0 540 540" style="enable-background:new 0 0 540 540;" xml:space="preserve">
<style type="text/css">
	.st0{fill:#E5AC81;}
	.st1{fill:#BCD375;}
	.st2{fill:#C2B485;}
	.st3{fill:#E7D571;}
	.st4{fill:#99CF91;}
	.st5{fill:#7CD4DE;}
	.st6{fill:#6EC0B2;}
	.st7{fill:#4C70F2;}
	.st8{font-family:'jf-openhuninn-1.1';}
	.st9{font-size:8px;}
</style>
<g>
	<path data-id="Birkdale" class="st0" d="M105.3,169.8c-1.5-0.1-1.5-0.7,0-3.5c1.5-2.8-0.7-7-1.4-8.9c-0.7-1.9-0.3-1.9,0.6-2.3s-1.2-4.5-2-6.6
		c-0.6-1.5-0.4-2.2-0.2-3.3c-2.1,0-4-0.1-4.8-0.1c-1.4,0-5.6-1.1-7.8-2c-1.9-0.6-4.4,0.9-6.9,1.8c-0.4,1.2-1.5,4.3-1.8,4.6
		c-0.4,0.4,0.8,2.9,0.9,3.3c0.1,0.3,0.5,1.4,0.7,2.4s0.4,1.5-0.6,1.7s-1.1,0.6-2.3,0.6c-1.3,0-2-0.2-2,0.7c0,0.9,0.8,2-0.5,1.9
		s-2.5-0.4-3.5-0.7c-1.1-0.3-2.5-0.6-3.6-0.7c-1.1-0.1-2.4,0.1-4.3-1.2c-1.9-1.3-3.3-3.1-4.3-2.9c-1,0.2-1,0.6-4,0
		c-1.7-0.4-5.6-1.2-8.6-1.9c0.1,1.3-0.4,2.5,0.5,3.6c1.4,1.4,2.7,1.7,5.3,2.2c2.6,0.5,1.4,5.6-0.5,4.3c-2.7-1.7-3.2-0.4-4,0.4
		c-0.7,0.7-2.6,2.2-2.9,4.2c-0.2,1.5,1.2,2.4,0.1,3.4c-3.1,2.9-2.1,5.5-1.2,4.3c0.9-1.1,3.5-4.1,3.4-2.1s-2,2.2-1.9,3.1
		c0.2,1,1.7-1.1,3.7,1.7c1,1.4,3,1.6,3.4,2.2c0.5,0.6-2.6,0.5-1.6,2.7c0.4,0.9,3.7,0.2,5.3,0.6c1.5,0.2,0.9,1.1,0.1,2.2
		c-0.7,1.1-0.2,2.1,0.7,1.7c0.9-0.2,2.1-2.7,3.1-2.2s1.1,2.2,2,3.1c0.9,0.9,2.1-0.2,3.1,0.2c0.8,0.4,1.3,2.7-0.3,3.6
		c2.6,0.6,5.2,1.3,5.8,1.4c1.3,0.3,2,0.5,2-0.9c0.1-1.4,1.4-1,2.8-0.8c1.4,0.2,0.3,1.4,1,1.6c0.8,0.2,2.9-0.2,3.8-0.5
		c0.9-0.3,0.6-2.1,0.9-2.6c0.3-0.5,1.5,0.2,2.6,0.4s2.4,0.3,4.2,0.5c1.8,0.1,1.8,0.2,2.2,1c0.3,0.8,0,0,1.2,0.6
		c1.2,0.6,5.4,0.8,7.2,1.2c1.7,0.4,2.1,0.2,2.3-0.1c0.2-0.3,0.4-1.3,0.7-1.9c0.3-0.6,0.4-2.7,0.5-3.9c0.1-1.2,0.4-3.5,0.3-4.4
		s-2.8-0.8-4.7-1.2s-1.1-2.3,0.4-2.9c1.5-0.6,1.4-2.1,1.7-3.1c0.3-1,1.2-0.9,2.3-0.8c1.1,0.2,1.9-1.5,2.2-2.3s0.2-1.4,0.7-2.6
		C107.7,169.7,106.8,169.9,105.3,169.8z"/>
</g>
<g>
	<path data-id="Thorneside" class="st1" d="M61.2,154.5c1-0.2,2.4,1.6,4.3,2.9c1.9,1.3,3.2,1.1,4.3,1.2c1.1,0.1,2.6,0.4,3.6,0.7c1.1,0.3,2.3,0.6,3.5,0.7
		s0.6-1.1,0.5-1.9c0-0.9,0.7-0.6,2-0.7c1.3,0,1.3-0.4,2.3-0.6s0.8-0.7,0.6-1.7s-0.7-2.1-0.7-2.4c-0.1-0.3-1.2-2.9-0.9-3.3
		c0.3-0.3,1.4-3.4,1.8-4.6c-0.4,0.1-0.8,0.3-1.3,0.3c-3.1,0.6-8.4-3.4-9.8-4.7c-1.4-1.4-2-6.8-4.8-7.4c-1.4-0.2-3.5,1.4-4.2,2.1
		c-0.7,0.7,1.4,6.2,0.5,7c-0.7,0.7-5.6,2-9.3,2.5c-3.6,0.5-6.5,4.5-5.5,6.5c0.2,0.5,0.3,1,0.3,1.5c3,0.7,6.9,1.6,8.6,1.9
		C60.2,155.1,60.2,154.7,61.2,154.5z"/>
</g>
<g>
	<path data-id="Ormiston" class="st2" d="M133.8,163.8c-0.1,2.5-0.5,2.9,0.4,4.1s0.7,2.3-0.3,3.3c-0.9,1-1.5,1.8-0.3,1.9c1.3,0.1,2-0.1,2.1,0.8
		c0.1,0.9-0.3,2.3,0.2,3.1c0.4,0.8,0.6,1.1,1.2,1c0.6-0.1,0.6,0.2-0.1,0.9s-2.5,2.2-2.1,3.1s2,3,1,2.9c-1-0.2-2.2-0.6-2.7,0.2
		c-0.5,0.8,2.3,1.9,1.6,2.1c-0.7,0.2-0.5,0.4-2.2,0c-1.7-0.4-2.2-0.5-2.7-0.1c-0.6,0.4-1.6,2.1-3.1,1.7c-1.5-0.4-2.4-0.4-3.6,0.1
		c-1.2,0.4-2,0-1.6,1s1.3,1.9,1.6,3.1c0.3,1.2-0.1,2,0.9,2.6c1,0.7,1.6,0.3,1.1,1.5c-0.5,1.2-0.9,1.5,0.1,2c1,0.5,1.7,1,2,1.9
		c0.3,0.9,0.5,2,0.9,2.7c0.4,0.7,0.5,1,0,1.4c-0.5,0.4-1.7,1.4,0,1.8c1.7,0.4,4-0.3,6.1,0c2.1,0.3,10.2,1.1,11.3,1.1
		c1.1,0,1,0.2,1.6-0.5s0.4-0.7,1.4-0.5c1,0.3,1.2,0.7,2.5,0.5c1.3-0.3,2.5-0.3,1.8-1.6c-0.2-0.3-0.3-0.5-0.3-0.8
		c-0.4,0.3-1,0.6-1.8,0.4c-1.6-0.4-2.1-0.2-2-1.7c0.2-1.4,2.5,0.6,3.5,0c0.9-0.6-0.6-1.9-1.1-3.1c-0.5-1.2-0.2-3.8-0.2-4.7
		s-2-0.9-2.7-1.4c-0.7-0.5-2.4-2.6-1.9-5.7c0.4-2.2,1.1-3.8,2.7-5.3c1.6-1.5,0-3-0.6-4.3c-0.2-0.6-1.6-3.1-2.2-5.7
		c-0.6-3-0.7-6-0.5-7.3c0.2-1.5,0.7-1.7,0.2-4.1c-0.5-2.2-4.3-0.5-6.2-0.6c-0.5,0-2.7,0.4-4-1c-0.4-0.5-1.1-0.5-1.8-0.4
		C133.9,161.1,133.9,162.1,133.8,163.8z"/>
</g>
<g>
	<path data-id="Cleveland" class="st1" d="M129,209.3c-0.4,1.5,0.1,1.9,0.4,2.7s0.5,3,1.5,2.9c1,0,4.1-0.8,2.9,0.5c-1.2,1.2-3.1,2.4-2.1,2.6
		c1,0.2,3.9,0.7,2.5,1.6s-5.1,2-5,3.4c0.1,1.3,1.5,1,0.5,1.7c-1,0.7-1.1,1.5-1.2,2.2s-0.4,0.9-1.2,1.5c-0.8,0.6-1.7,0.5-2.3,0.8
		c-0.6,0.4-1.3,1.3,0,1.7c1.3,0.4,1.8,0.5,1.9,1.6c0.1,1.1,0.4,2.8-0.2,3.5s-1.3,1.4-1.3,2.1c0,0.7,0.4,1.6-0.9,1.7
		c-1.3,0.1-1.9-0.4-1.8,0.7c0.1,1,0.4,1.1,1.8,1.2c1.3,0.1,21.5,1.9,21.9,1.9c0.4,0,0.1-1.4,0.9-1.4c0.8-0.1,3.4-0.6,3.4,0
		c0,0.6-0.6,1.8,0,1.9c0.5,0,15.5,1.1,21.9,1.6c-0.3-0.6-1.1-2.5,0.1-3.8c1.4-1.5,3.4-1,4.8-0.5c0.3,0.1,0.4,0.1,0.5,0
		c0,0,0,0,0-0.1c0.2-0.5-1.1-2.2-1.5-2.8c-0.6-0.7-0.2-1.9-1.6-2.2c-1.4-0.5-4.6,0.6-6.2,0.7c-1.6,0.1-4.5,0.6-4-0.9
		c0.5-1.4,2.6-3.2,2.2-4.6c-0.4-1.4,0-3.7,2-3c2,0.7,3.6,0.1,3.6,0.1s1.7-2.5,3.4-3.4c1.5-0.9,2.1-2,1.9-3.2
		c-0.2-1.2-0.9-2.5-0.9-3.8s-1.2-1.6-1.9-2.9c-0.6-1.2,0.9-2.7,1.6-2.2c0.9,0.5,1.2,2.2,2.1,1.5c0.9-0.7,1.2-3.2,1.5-4.6
		c0.2-1.4,3.6-6.7,4.5-8.7c0.9-2,0.5-3.2,0.4-5.2s1.4-5.5,0.9-5.8c-1.1-0.9-1.4,2.1-3.4,2.2c-1,0-3.2,1.6-5.1,1.6c-1.2,0-2.9,0-4,0
		c0,0.7-0.1,1.9,0.2,2.1c0.6,0.2,1.1-0.5,2,0c0.5,0.2,0.6,0.5,1.1,0.6c0.4,0.1,1-0.1,1-0.1s0.4-0.2,0.6-0.6c0.4-0.2,1-0.6,1.7-0.4
		c0.6,0.1,0.5,1.1,0,1.4c-0.5,0.4-1.2,0.2-1.5,0.4s-0.6,0.4-1.5,0.5c-0.9,0.1-1.2-0.6-2.5-0.7s-1.6,0.5-1.6,0.5s-0.1,0.7-0.1,1.1
		c0,0.4,0.4,0.9,0.6,0.7c0.4,0,0.1-0.6,0.4-0.9c0.2-0.4,0.6-0.4,1.4-0.2c0.7,0.1,0.6,0.4,0.6,0.9s-0.7,0.5-1.2,0.5
		c-0.6,0-0.5,0.2-0.5,0.4s0,0.6,0,0.6s0.7,0.2,1.5,0.1c1.2-0.1,1-1.2,1.6-1.9c0,0,0.6-0.5,1.4-0.6c0.9-0.1,1-0.1,2.4,0.4
		c0.6,0.2,0.6,1.2,0.6,1.7s-0.1,0.7-0.6,0.9c-0.9,0.1-1-0.4-1.1-1.2c-0.1-0.6-0.7-0.6-1.5-0.5c-0.4,0-1,1.5-1,1.5s0.6,0.2,1.4,0.4
		s1.5,0,2,1c0.4,1-0.5,1.1-1.9,0.9c-0.6-0.1-0.6-0.9-1.5-1.1c-0.9-0.2-1.1-0.2-1.1-0.2s-0.2,0.4,0.1,1c0.4,0.5,0.7,0.4,1.4,1.2
		c0.1,0.1,0.5,1.2-0.6,1.1c-0.5,0-0.6-0.5-1.4-1.1c-0.7-0.6-0.9-1.2-0.9-1.7c-0.1-0.6,0.1-0.5-1.2-0.6c-1.4-0.1-1.1-0.4-1-1
		c0.1-0.5-0.4-0.7-0.6-0.9s-0.9,0.5-1.1,1s-0.6,1.7,0.2,1.6c0.7-0.1,0.9-0.2,1.7-0.4c0.9-0.1,1.1,0.5,1.4,1.4c0.2,0.9,0.2,0.5,0.7,1
		c0.5,0.5,0.7,0.6,0.9,1c0.2,0.9-0.4,0.7-1,1c-0.5,0.2-1-0.7-1-1.1c0-0.4-0.7-0.2-0.7-0.7c-0.1-0.5,0.5-0.7,0-1.2
		c-0.5-0.5-0.5-0.1-1.6,0c-1.1,0-1.5-0.4-1.5-0.1s-0.4,0.6-0.7,0.9c-0.5,0.2-0.5,0-0.5,0.4s0,1.4,0,1.4l1-0.4c0,0,0-0.4,0.5-0.6
		c0.4-0.1,0.9-0.2,1.5-0.2c0.9,0,0.9,0.1,1,0.5c0,0.1,0,0.5,0,0.7c0.1,0.7-0.1,0.9-0.7,1.1c-1,0.2-0.1-1.1-0.9-1.1
		c-0.6,0-0.5,0.2-0.6,0.5c-0.1,0.1-0.6,0-1.4,0.2c-0.6,0.2-0.2,0.7-0.5,1.1c-0.1,0.4-1,0.4-1.1-0.1c-0.1-0.4,0.1-3.4,0.1-3.8
		c0-0.5-0.7-0.1-1-0.1c-0.4,0.1-0.2,2.4-0.2,3c-0.1,0.6-0.4,0.5-0.9,0.5c-0.4,0-0.1-2.4-0.1-3.2c0-0.9-0.4-0.7-0.9-0.6
		c-0.5,0.1,0.2,2.9-0.2,3.4c-0.5,0.6-2.2,0.4-3.1,0.4c-1,0-1.1-0.5-1.1-1c0-0.5,0-0.7,1.4-0.7c0.2,0,0.2,0.5,0.9,0.5s1,0,1-0.5
		c0-0.4,0-1,0.1-1.5c0.1-0.5-0.4-0.6-1.2-0.5c-0.4,0.1-0.2,0.7-0.4,1.1s-1,0.4-2,0.4c-1,0-0.7-1.1-0.2-1.4c0.5-0.2,1.4-0.1,1.6-0.2
		c0.2-0.1,0.1-0.7,0.4-1.1c0.2-0.2,2.9-0.1,3.8-0.1c1.1,0,0.9,0.2,1.1,0.5s1,0.1,1.7,0.1c0.9,0,1.6-2.7,1.9-3.2
		c0.2-0.5-0.5-0.2-0.9-0.1c-0.4,0.1,0,1-0.5,1.6c-0.2,0.2-1.2,0.5-2.1,0.4c-1-0.1-0.5-1.2,0.4-1.2c1-0.1,0.6-0.6,0.4-0.9
		s-1.7-0.5-2,0.2c-0.1,0.5,0.4,1.4,0,1.7s-0.9,0.2-1.1-0.1c-0.2-0.4,0.1-1.1-0.6-1.1c-0.2,0-0.9,0.4-1.7,1c-0.9,0.5-2.5,0.6-3.2,0.5
		c-0.6-0.1-0.4,1-0.4,1.6c-0.1,0.6-0.4,0.7-0.9,0.5c-0.5-0.1-0.4-1-0.4-1.6s-0.1-0.9,0.1-1.4c0.2-0.5,0.7-0.4,1.6-0.4
		c0.9,0,1.7-0.2,1.7-0.2c0.2-0.2,0.1-1-0.1-0.9s-0.9,0.1-1.2-0.2c-0.4-0.2,0.4-1.1-0.4-1.1c-1.5-0.1-0.7,0.6-1,1.2s-1.4,0-1.2-0.9
		c0-0.7,0.4-1.5,0.6-1.6c0.4-0.1,0.9-0.2,1.5,0c0.6,0.2,0.4,0.6,1.1,0.7c0.6,0,0.7,0,1-0.6c0.1-0.4,0.7-0.2,1.4-0.2
		c0.6,0,1.4,0,1.5,0.6c0.2,1.1-0.7,1-1,1c-0.2,0-0.2-0.5-0.5-0.5c-0.5,0-1,0-1.2,0.4c-0.1,0.2-0.4,0.4-0.1,0.7c0,0,0.2,0.1,0.2,0.2
		c0.4,0.4,0.1,0.7,0.4,1.1s2.1-1.1,2.1-1.1s1.2-0.9,1.9-1c0.6-0.1,1.1,0,2.4,0c0.5,0,0.7-0.2,0.6-0.5s-0.9-0.4-1.2-0.4
		c-0.5,0-1.9,0.2-2.7-0.1c-1-0.4-0.1-1.1,0.6-1.2c0.7,0,1.2,0.1,2.6,0c1.2-0.1,1.6-0.2,2,0.2c0.4,0.4-0.1,1.5,0.2,1.7s1,0.7,1.2,0.4
		c0.2-0.4,0.6-2.1,0.7-3.2c0-0.4,0-0.7-0.1-1c-1.4,0.2-7.7,1.4-10.3,1.4c-2.9-0.1-3.8-1.4-6.2-0.7c-1.1,0.2-1.6,1.1-0.9,1.6
		c0.2,0.2,1.2,0.4,1.4,0.6c0.2,1-0.1,1.9-0.4,2.4c-0.1,0.4-1.7,1.4-2.2,0.5c-0.5-1,1-0.5,1.1-1.1c0.1-0.5,0.4-1.2-0.2-1.6
		c-0.5-0.4-2-0.1-2.5,0.1s0.9,2.7,1.1,3.2c0.1,0.5,3.2-0.1,3.1,0.7c-0.1,0.7-1.9,1-1.7,2.1c0,0.5,3.8,1.9,3.5,3.1
		c-0.5,1.4-2.5-1-4.1-1.2c-0.3-0.1-0.5,0.2-0.9,0.4c0,0.1,0.1,0.2,0.1,0.4c0.1,0.1,0.1,0.3,0.2,0.4c0.8,1.3-0.5,1.3-1.8,1.6
		c-1.3,0.3-1.5-0.2-2.5-0.5c-1-0.3-0.8-0.2-1.4,0.5s-0.5,0.5-1.6,0.5c-1.1,0-9.2-0.8-11.3-1.1c-2.1-0.3-4.4,0.4-6.1,0
		C128.9,207.7,129.4,207.9,129,209.3z"/>
</g>
<g>
	<path data-id="Thornlands" class="st3" d="M122.8,241.9c-0.8,0.4-0.6,0.2-2,0.1c-1.4-0.1-1.1,0-1.9,0.4s0,1.2,0.2,1.8s0.7,1.8-0.5,3.1
		c-1.1,1.3-2.3,1.7-2.1,2.5s1.3,0.8,0.9,1.6s-2,1.5-0.5,2.1c1.5,0.6,1.6,0.4,1.5,1.1s-0.4,2.6-1.5,4.2c-1.1,1.6-2.2,3.1-2.2,4.2
		c0,1.1,0.6,3.6,0.3,4.8s-1.6,1.8-1.6,3.3c-0.1,1.5-0.5,4.2-0.7,5.2c-0.2,0.9-0.2,2.3-0.3,3.2c0,0.9-0.5,3.9-1.3,5
		c-0.8,1.2-0.5,2.4-0.7,3.2s-1.3,4.1-2.5,6c-1.2,1.9-2.1,1.8-1,2.9c1.1,1.1,1.5,1.1,1.4,1.9c-0.2,0.8-0.2,2.6-1,3.2s-3.8,3-3.4,3.8
		c0.3,0.9,0.5,1.6,1.2,0.7c0.7-1,0.8-2.7,2.1-2.9c1.3-0.2,2.8-1,3.9-1.6s1.1-1.4,1.8-0.6s1.2,2,2.4,1.9s2.6-0.4,3.2,0
		c0.6,0.4,1,0.5,2.4,0.2s1.5,1.1,2.4,0.8c0.9-0.3,0.6-0.7,1.3-2.1c0.7-1.4,0.6-2.2,2.4-2.2c1.8,0,2.6-0.2,3.1,0.2
		c0.4,0.4,1,1.4,2.3,1.8c1.3,0.5,1.9,0.6,2.3,1.4c0.4,0.7,0.6,1.9,1.1,1.6c0.5-0.4,2.9-2.2,2.9-2.2s0.2-1.5,1.1-1.1s1.5,1.3,2.6,0.5
		c1.1-0.8,3.9-3.5,4.7-3.9s0.1-1.3,0.9-1.2s0.7,1.7,1.7,1.5c1.1-0.2,3.3-0.8,4.1-0.4c0.9,0.4,1.5,1.3,3,1.3c1.5,0,2.4-0.7,3.9,0.1
		c1.5,0.8,2.9,1.3,4.7,1c1.8-0.3,5.4-1.3,6.1-3.9c0.7-2.6,1.8-1.8,2.2-2c0.4-0.1,1.2,0.2,1.5-1.4c0.3-1.6,0.3-2.5,1.8-2.5
		c1.5,0,1.6,0.1,2.3-0.1s2.1-0.9,1.4,0.5c-0.7,1.3-0.8,2.8,0.2,1.8s1.5-1.7,2.5-1.4c1,0.3,0.9,0.2,1.1,0.6c0.1,0.4,0.8,0.9,1.2,0.5
		s0.1-1.1,1.4-0.9c1.2,0.2,1.4-1.8,2.4-1.6c1,0.3,2.4,1,2.8-0.1c0.5-1.1,1.4-1.2-0.4-2c-1.8-0.8-2.3-2.2-1.6-3.2
		c0.7-1,2.9-2.4,1.7-2.7c-0.7-0.2-4-1-6.6-1.6c-1.5,0.3-3.5,0.6-4.8-0.2c-0.9-0.4-0.2-2.1-0.9-3c-0.9-1.1-2.7-1.6-2.5-2.6
		c0.5-1.9,1.7-5.3,1.4-7.6c-0.4-2.2-3.1-5.5-2.1-8.2c1-2.7,1.7-0.9,4-2.7c1.4-1.1-1.5-1.6-2.7-1.9c-1.1-0.4-1-1.1-1.5-1.9
		c-1.1-1.9-1.7,0-3.7-0.1c-1-0.1-1.7-0.4-3.2-0.9c-1.4-0.5-3.5-0.5-2.9-1c0.7-0.5,2.6,0.5,5.6,0.5c2.9,0,1.2-0.1,1.6-2.4
		c0.2-2.2-1.1-2.4-1.1-2.4s0-0.1-0.1-0.2c-2.4-0.2-5.9-0.4-9.5-0.7c-0.1,0-0.3,0-0.4,0c-1.6-0.1-3.3-0.2-4.8-0.3c-0.1,0-0.3,0-0.4,0
		c-0.4,0-0.9-0.1-1.3-0.1c-0.4,0-0.8-0.1-1.1-0.1c-0.2,0-0.4,0-0.6,0c-0.4,0-0.8-0.1-1.1-0.1c-0.3,0-0.6,0-0.8-0.1
		c-0.2,0-0.3,0-0.5,0c-0.1,0-0.2,0-0.3,0c-0.4,0-0.8-0.1-0.9-0.1c0,0,0,0,0,0c-0.1,0-0.1,0-0.1,0c-0.6,0,0-1.3,0-1.9
		c0-0.6-2.5-0.1-3.4,0c-0.8,0.1-0.5,1.4-0.9,1.4c-0.4,0-20.6-1.7-21.9-1.9c-0.2,0-0.4,0-0.6-0.1c0,0,0,0,0,0c-0.2,0-0.3,0-0.4-0.1
		c0,0,0,0,0,0C123.2,241.7,123,241.8,122.8,241.9z"/>
</g>
<g>
	<path data-id="Victoria Point" class="st1" d="M140.2,303.5c0.8,1.2,3.7,3.7,4.2,4.8c0.6,1.1,1.6,4.8,1.6,6.4s-0.2,3.7-0.4,4.3c-0.2,0.6,0,1.9-0.8,2.6
		s-1.8,1.6,0,2.1s37,7.1,37,7.1s2.5,0.4,2.2-1.2c-0.3-1.6-2.5-8.9,0.2-9.5c2.7-0.6,4.6-1.7,5.3,0s0.6,1.6,1.6,1.1c1-0.6,1.5,0,0.7-1
		s-1.2-1.4,0-2.6c1.2-1.2,1.7-1.7,3.1-2s1.9,0.9,1.8-1.1c-0.1-1.8-0.4-4.3,2-3.6c0.1-0.1,0.2-0.2,0.3-0.4c1.9-1.5,4.2,1.6,5.6,2.2
		c1.4,0.6,1.1-2.6,5.2-7c4.1-4.5,1.7-2.1,4.5-0.9c0.5,0.2,1.5,1.4,1.6-0.2c0.1-1.7,0.4-2,0.5-4.3c0.1-2.4-0.2-2.6,3.4-4.5
		c2-1,3.7,0.2,4-2.5c0.1-1.4-1.9-4.6-3.2-3c-1.4,1.7-5.2,3.6-6.6,3.1c-1.4-0.6-6.1-7.9-7.2-10.7c-1.1-2.7-0.2-4.2,2.5-5.7
		c2.7-1.5,2.7-3.8,2.2-6.2c-0.5-2.2-2.6-2.9-3.8-3.1c-1.2-0.1-6.2-1.7-7.9-1.1c-0.9,0.4-2.4,1.1-4.1,1.6c-1.5,0.4-3.2,0.5-4.2,1
		c-2.4,1.2-4,4.2-4.2,6c-0.1,1.7,1.1,4.6-0.1,4.6c-0.3,0-0.8,0.1-1.4,0.2c2.6,0.6,5.9,1.3,6.6,1.6c1.2,0.4-1,1.8-1.7,2.7
		c-0.7,1-0.2,2.4,1.6,3.2c1.8,0.8,0.8,0.9,0.4,2c-0.5,1.1-1.8,0.4-2.8,0.1c-1-0.3-1.2,1.7-2.4,1.6c-1.2-0.2-1,0.5-1.4,0.9
		s-1-0.1-1.2-0.5c-0.1-0.4-0.1-0.3-1.1-0.6c-1-0.3-1.5,0.4-2.5,1.4s-0.9-0.5-0.2-1.8c0.7-1.3-0.7-0.7-1.4-0.5s-0.8,0.2-2.3,0.1
		c-1.5,0-1.5,0.9-1.8,2.5c-0.3,1.6-1.1,1.3-1.5,1.4c-0.4,0.1-1.5-0.6-2.2,2c-0.7,2.6-4.3,3.6-6.1,3.9c-1.8,0.3-3.2-0.2-4.7-1
		c-1.5-0.8-2.4-0.1-3.9-0.1c-1.5,0-2.2-0.9-3-1.3c-0.9-0.4-3,0.2-4.1,0.4c-1.1,0.2-0.9-1.4-1.7-1.5s-0.1,0.8-0.9,1.2
		s-3.6,3.1-4.7,3.9c-0.1,0.1-0.3,0.2-0.4,0.2c0,0-0.1,0-0.1,0c-0.1,0-0.2,0-0.2,0.1c0,0-0.1,0-0.1,0c-0.1,0-0.1,0-0.2,0
		c0,0-0.1,0-0.1,0c-0.1,0-0.1,0-0.2-0.1c0,0-0.1,0-0.1,0c-0.1,0-0.2-0.1-0.2-0.1c0,0,0,0,0,0c-0.2-0.1-0.4-0.2-0.6-0.3
		C140,302.5,140,303.3,140.2,303.5z"/>
</g>
<g>
	<path data-id="Redland Bay" class="st0" d="M149.4,404.4c0,0,3.6,1.2,8.2,1.1c1.7,0,4.5,1.1,7,1.5c4.2,0.6,8.2,0.7,8.6,1c0.5,0.5-0.2,6.6-0.2,7.4
		c0,0.9,3.1,5.6,2.4,6.1c-0.7,0.5-2.1,2.5-1.9,3.1c0.2,0.6,2.4,3.5-0.4,4.2c-0.7,0.2,0.4,0.7,0.7,1.2c0.2,0.5-0.4,1-0.2,1.1
		c0.2,0.5,1.6-0.2,2.6,1.2c0.9,1.5-3.1,11.2-2.1,12c0.5,0.5,1.6,0.7,1.9,2.1c0.2,1.4-0.7,3.1,0,3.6c1.4,0.9,2.1,0.2,3.6,0.2
		c3.2,0,5,0.7,5,0.7s3.2,2.5,1.4,2.2c-1.9-0.2-2.1-0.1-2.4-1.1c-0.2-0.9-3.8-0.4-2.6,0.5c0.5,0.4,1.2,0.2,1.6,0.7
		c0.6,0.7,0.9,2,1.1,2.9c0.2,0.9-0.9,2.2-2,2.9c-1.7,1,0,2.5,0.7,1.9c0.7-0.6,4.1-3.6,6.2-3.6s0.9,8.4,1.4,9.6
		c0.5,1.1,3.4,6,5.6,8.3c2.2,2.2,3.5,6.3,4.7,7.6c1.2,1.2,2.7,1.7,4.2,2.6c1.4,0.9,3.1,1,5.2,0.5s4.6-0.9,6.3-2.2
		c1.6-1.4,5.3-1.7,7.2-3.4c1.9-1.6,3.2-2.4,3.6-3.4c1.1-2.7,2.5-2.2,2.5-3.4c0.2-0.5-2.2,0.1-2.6-0.6c-0.4-0.7-1.4-2.4-1.9-4.2
		c-0.5-1.7,0.9-3.2,0.9-5.1c0-1.9-0.6-2.1,0.2-4.2c0.9-2.1-1.7-3.1-2.7-6.1c-1.1-2.9-0.2-1.4-0.5-3.6c-0.2-2.2-5.3-2-4.7-3.5
		c0.6-1.5,2-2.5,1.5-4.7c-0.5-2.1-1.9-1.4-2.1-3.6s2.1-0.9,2.1-2.9c0-2-2.1-2.9-0.7-4.6c1.4-1.7,2.5-2,3.2-4.5
		c0.7-2.5-2.5-3.5-5-5.2c-2.5-1.6-3.2-3.1-5.7-7c-1.4-2.2-1.1-2.2-0.4-4c0.7-1.7,0.1-1.5-1-2.6c-1.1-1.1-0.7-2.1,0.2-4.1
		c0.9-2,1.4-1.7,1.9-3.6s-0.6-1.5-1.9-4.1c-1.2-2.6-0.6-3.6,2.1-7.3c2.7-3.6,4.2-2.5,5.1-3c0.9-0.5,0.9-1.4,0.9-3
		c0-1.6,1.9-0.7,1.4-2.2s-1.4-0.2-2.5-0.6c-1.1-0.4-0.9-0.2-1.6-2.1c-0.7-1.9-1.5-2.7-1.4-5c0.1-2.2,1.5-2.1,1.5-4.8s-2-3-2.5-5.8
		c-0.6-2.9-0.1-2.1-0.6-5.2c-0.5-3.1,1.2-1.9,2.5-3.2c1.2-1.4,0.4-2.5-0.7-2.7c-1.6-0.4-2.7,1.2-2.2-0.7c0.2-1,2.4-0.4,2.7-1.1
		c1-1.9-2.6-2.7-3.5-5c-1.4-3.4-4.1-3.1-6-5.2c-1.2-1.4-1.4-3-1.7-4c-0.9-2.6,1.7-3,1.5-5.1s-3.8-3.5-5.3-7.4
		c-1.2-3.2,0.5-2.9,0.6-4.2c0.1-1.4-1.9-4.2-1.9-4.2s-1-1.4,0.1-2.8c-1.5-0.4-2,0.4-2.1,1.5c0,0,0,0,0,0c0,0.1,0,0.2,0,0.3
		c0,0,0,0,0,0c0,0.1,0,0.2,0,0.3c0,0,0,0,0,0c0,0.1,0,0.2,0,0.3c0,0,0,0,0,0c0,0.4,0,0.7,0.1,1.1c0.1,2-0.5,0.9-1.8,1.1
		s-1.9,0.8-3.1,2c-1.2,1.2-0.8,1.7,0,2.6s0.3,0.4-0.7,1c-1,0.6-0.9,0.6-1.6-1.1s-2.6-0.6-5.3,0c-2.7,0.6-0.5,7.9-0.2,9.5
		c0.3,1.6-2.2,1.2-2.2,1.2s-0.1,0-0.2,0c-0.2,0-0.7-0.1-1.3-0.2c-0.2,0-0.5-0.1-0.8-0.2c0,0,0,0,0,0c-0.3,0-0.5-0.1-0.8-0.2
		c-0.1,0-0.1,0-0.2,0c-0.6-0.1-1.3-0.2-2-0.4c-0.3-0.1-0.6-0.1-0.8-0.2c-0.1,0-0.1,0-0.2,0c-8.2-1.6-22.1-4.2-28-5.4l-5.7,34.8
		c0,0-1.7,1.9,1.8,2.4s5.7,0.2,5.4,3c-0.3,2.9-4,23.9-4.3,26.9s-1,3.4,1,4c2,0.6,2.7,0.4,2.7,1.4c0,0.5-0.2,2.5-0.4,4.5
		c0.2,0.1,0.4,0.2,0.6,0.4C149.4,402.1,149,403.8,149.4,404.4z"/>
</g>
<g>
	<path data-id="Capalaba" class="st4" d="M62.9,263.9c1.8,1.5,4.2,1.7,6,2c1.8,0.3,4.3,0.2,6.4,1.1s5,3.7,6.9,5.3c1.9,1.7,2.7,1.2,5.3,1.3
		c2.6,0.1,4.1-0.4,5.3-0.9c1.1-0.4,2.5-0.1,3.5-0.3s6.7-3,8.5-3.6c1.8-0.6,2.6-0.5,4.7-0.3s2.3,0.3,3,0.2c0.6-0.1-0.7-3.6-1-4.7
		c-0.3-1.1-0.3-2-0.3-3c0-1-0.8-4.5-1-5.5c-0.3-1-1.3-2.8-1.7-3.3c-0.4-0.6-0.4-1.6-0.7-2.6c-0.3-0.9-4.1-4-5.3-4.9
		c-1.2-0.9-5.5-1.6-7.2-1.9c-1.6-0.3-3.3-2.9-4.5-4.6c-1.2-1.7-3.7-4.2-5.3-5.8c-1.6-1.6-7.5-7.2-8.8-8.1c-1.3-0.9-0.9-2.5-1-3.3
		c0-0.8,2-0.8,2.2-1.8c0.3-1-1.1-2.4-2-3.1s-0.3-0.5,1.5-0.7c1.7-0.2,1.1-1,1.1-1.3c0-0.3,1.4-9,1.5-9.8s-0.7-2-1.7-4
		c-1-2,0.7-3.6,1.2-4.7s-0.2-0.6-1.4-0.7c-1.2-0.1,0.5-1.5,0.5-1.5c-0.8-0.2,0.4-1.4-1-1.6c-1.4-0.2-2.7-0.6-2.8,0.8
		c-0.1,1.4-0.7,1.1-2,0.9c-0.6-0.1-3.2-0.8-5.8-1.4c-0.1,0-0.1,0.1-0.2,0.1c-1.1,0.5-2,0.2-2.4,0.6c-1,1.1-2,1.7-3,2.2
		c-1,0.5-1.7-1.9-3.7-1.7s-0.2,2.9-0.6,3.6c-0.5,0.7-3.7,0.9-5.2,0.2c-1.5-0.6-2.1,0.6-3.1,1.6c-0.9,0.9-4.2,3.1-4.1,4.8
		c0,1.7,1.9,4.7,1.5,7.9c-0.1,1.1,0,3.4-2.4,3.5c-2.5,0.1-2.7-0.9-4.3-0.5c-0.4,0.1-2.6,3.4-5,5.2c-1.4,1.1-4.8,2.5-5.5,3.4
		c-0.6,0.7-0.5,3.2,1,5.2c1.2,1.6,1.5,3.4,1.5,4.5c0,1.1,1,1,2,1c1,0,1.9,1.2,3.8,0.4c2-0.9,0.5-2.7,4.2-2.1
		c2.2,0.4,0.4,1.4,0.6,2.7c0.2,1.4,1,4.3,0.2,6.7c-0.7,2.2-1.2,3.2,0.1,4.2c1.4,0.9,7.8,2,8.7,2.6c1.1,0.7,0.5,4.7,0.9,6.3
		c0.4,1.5,0.9,2.6,1.6,3.8c0.4,0.6,0.6,1.4,0.6,2c1.9,0.1,3.6,0.3,4.2,0.4C60.1,261.3,61.1,262.4,62.9,263.9z"/>
</g>
<g>
	<path data-id="Alexandra_Hills" class="st5" d="M114.1,269.4c0.4-0.6,0.8-1,1-1.7c0.3-1.2-0.3-3.7-0.3-4.8c0-1.1,1.1-2.6,2.2-4.2c1.1-1.6,1.4-3.5,1.5-4.2
		s-0.1-0.5-1.5-1.1c-1.5-0.6,0.1-1.4,0.5-2.1s-0.8-0.8-0.9-1.6s1-1.2,2.1-2.5c1.1-1.3,0.7-2.4,0.5-3.1s-0.9-1.5-0.2-1.8
		s0.5-0.4,1.9-0.4c1.4,0.1,1.2,0.2,2-0.1c0.2-0.1,0.4-0.2,0.6-0.2c0,0,0,0,0,0c-0.5-0.1-0.7-0.4-0.7-1.1c-0.1-1,0.6-0.6,1.8-0.7
		c1.3-0.1,0.8-1,0.9-1.7c0-0.7,0.7-1.4,1.3-2.1s0.4-2.4,0.2-3.5c-0.1-1.1-0.6-1.2-1.9-1.6c-1.3-0.4-0.6-1.3,0-1.7
		c0.6-0.4,1.5-0.3,2.3-0.8c0.8-0.6,1.2-0.8,1.2-1.5s0.1-1.5,1.2-2.2c1-0.7-0.4-0.4-0.5-1.7c-0.1-1.3,3.5-2.5,5-3.4s-1.5-1.4-2.5-1.6
		c-1-0.2,0.9-1.4,2.1-2.6c1.2-1.2-1.9-0.5-2.9-0.5c-1,0-1.2-2-1.5-2.9s-0.8-1.3-0.4-2.7c0.4-1.5-0.1-1.6-0.8-2.3
		c-1.7-0.4-0.5-1.4,0-1.8c0.5-0.4,0.4-0.7,0-1.4c-0.4-0.7-0.6-1.7-0.9-2.7c-0.3-0.9-1-1.4-2-1.9c-1-0.5-0.6-0.8-0.1-2
		c0.5-1.2,0-0.8-1.1-1.5c-1-0.7-0.6-1.4-0.9-2.6c-0.3-1.2-1.2-2.1-1.6-3.1s0.4-0.6,1.6-1c1.2-0.4,2.1-0.5,3.6-0.1
		c1.5,0.4,2.5-1.3,3.1-1.7c0.6-0.4,1-0.3,2.7,0.1c1.7,0.4,1.5,0.2,2.2,0c0.7-0.2-2-1.3-1.6-2.1c0.5-0.8,1.7-0.4,2.7-0.2
		c1,0.2-0.7-1.9-1-2.9s1.5-2.4,2.1-3.1s0.7-1,0.1-0.9c-0.6,0.1-0.8-0.2-1.2-1c-0.4-0.8-0.1-2.2-0.2-3.1c-0.1-0.9-0.8-0.7-2.1-0.8
		c-1.3-0.1-0.7-0.8,0.3-1.9c0.9-1,1.2-2.1,0.3-3.3s-0.5-1.6-0.4-4.1c0-1.7,0.1-2.7,0-3.6c-0.4,0.1-0.9,0.2-1.3,0.4
		c-1,0.4-1.1,1.4-2.4-0.1c-2-2.2,3.1-3.5,4.1-4.5c1-1,5.2-3.8,6.5-4.7c1.2-0.9-4.5-3.4-5.8-5.1c-1.4-1.9-2.6-0.5-6.6-0.6
		s-8.2-0.7-9.2-0.7c-1.1,0,0-2.9-0.6-3.2c-0.6-0.2,0.2-4.2-0.5-3.5c-0.7,0.7-2.4,2.6-4,3c-2.9,0.6-4.5,3.4-7.4,3.8
		c-1.3,0.2-2.9,0.3-4.4,0.3c-0.3,1.1-0.5,1.7,0.2,3.3c0.9,2.1,2.9,6.2,2,6.6s-1.3,0.4-0.6,2.3c0.7,1.9,2.9,6.1,1.4,8.9
		c-1.5,2.8-1.5,3.4,0,3.5c1.5,0.1,2.4-0.1,1.9,1.2c-0.5,1.2-0.4,1.9-0.7,2.6s-1.1,2.5-2.2,2.3c-1.1-0.2-2-0.2-2.3,0.8
		c-0.3,1-0.2,2.5-1.7,3.1c-1.5,0.6-2.4,2.6-0.4,2.9s4.7,0.2,4.7,1.2s-0.2,3.2-0.3,4.4c-0.1,1.2-0.2,3.3-0.5,3.9
		c-0.3,0.6-0.5,1.6-0.7,1.9c-0.2,0.3-0.6,0.5-2.3,0.1c-1.7-0.4-6-0.6-7.2-1.2c-1.2-0.6-0.8,0.2-1.2-0.6c-0.3-0.8-0.4-0.8-2.2-1
		c-1.8-0.1-3.2-0.2-4.2-0.5s-2.3-0.9-2.6-0.4c-0.3,0.5,0,2.3-0.9,2.6c-0.9,0.3-3.1,0.7-3.8,0.5c0,0-1.7,1.4-0.5,1.5
		c1.2,0.1,1.9-0.3,1.4,0.7s-2.2,2.7-1.2,4.7c1,2,1.8,3.2,1.7,4s-1.4,9.4-1.5,9.8c0,0.3,0.6,1-1.1,1.3c-1.7,0.2-2.4,0-1.5,0.7
		s2.3,2.1,2,3.1c-0.3,1-2.3,1-2.2,1.8c0,0.8-0.4,2.4,1,3.3c1.3,0.9,7.2,6.5,8.8,8.1c1.6,1.6,4.1,4.1,5.3,5.8
		c1.2,1.7,2.8,4.3,4.5,4.6c1.6,0.3,5.9,1,7.2,1.9c1.2,0.9,5,4,5.3,4.9c0.3,0.9,0.2,2,0.7,2.6c0.4,0.6,1.4,2.3,1.7,3.3
		c0.3,1,1,4.5,1,5.5c0,1,0,1.9,0.3,3c0.3,1.1,1.6,4.6,1,4.7h2.2C114.4,269,114.3,269.2,114.1,269.4z"/>
</g>
<g>
	<path data-id="Mount_Cotton" class="st6" d="M148.9,364.5c0.3-2.9-1.8-2.5-5.4-3s-1.8-2.4-1.8-2.4l5.7-34.8c-1.4-0.3-2.4-0.5-2.7-0.6
		c-1.9-0.5-0.8-1.4,0-2.1s0.6-2,0.8-2.6c0.2-0.6,0.4-2.6,0.4-4.3s-1-5.4-1.6-6.4c-0.6-1.1-3.5-3.6-4.2-4.8c-0.1-0.2-0.1-1,0-2.2
		c-0.1-0.1-0.2-0.1-0.4-0.2c-0.9-0.3-1.1,1.1-1.1,1.1s-2.4,1.9-2.9,2.2c-0.5,0.4-0.7-0.8-1.1-1.6c-0.4-0.7-1-0.9-2.3-1.4
		c-1.3-0.5-1.9-1.5-2.3-1.8c-0.4-0.4-1.3-0.2-3.1-0.2c-1.8,0-1.7,0.8-2.4,2.2c-0.7,1.4-0.4,1.8-1.3,2.1c-0.9,0.3-1-1.1-2.4-0.8
		s-1.8,0.3-2.4-0.2c-0.6-0.4-2-0.1-3.2,0s-1.8-1.2-2.4-1.9s-0.7,0.1-1.8,0.6s-2.6,1.3-3.9,1.6c-1.3,0.2-1.4,2-2.1,2.9
		c-0.7,1-0.9,0.2-1.2-0.7c-0.1-0.2,0.1-0.6,0.4-1c-0.4,0.1-0.8,0-1-0.2c-1.1-1.1-1.5-2-3.5-1.7c-2,0.3-7.5,1.4-7.5,1.4
		s-1.9,0.4-2,1.9s0.1,5.1-0.6,6c-0.7,0.9-3.1,3.1-4.5,3.6s-2,1.3-2.4,1.8c-0.4,0.5-0.6,0.8-1.6,1.6c-1,0.8-1.6,1.3-2,2.3
		c-0.3,1-3.8,6.6-4.9,7.4c-1.1,0.8-1.4,3.5-1.5,4.4c-0.1,1-0.2,4.8-2.9,4.9c-2.7,0.1-22.7-3.6-24.2-3.7c-1.5-0.1-1.7-0.5-2,1
		c-0.1,0.5-0.3,1.3-0.5,2.1c0.6,0.6,0.9,1,0.9,1s-2,16.3-3.1,17.4c-1.1,1.2-6.3-0.6-7.7-0.5c-0.6,0.1-0.9,3.7-1.4,7.4
		c-0.6,4.2-1.7,8.4-1.5,8.9c0.2,0.7,5,1.7,6,0.1c0.9-1.5,2.5-0.9,4.2-1.2c1.9-0.2,3.5,1.9,3.4,3c-0.1,1.1-2,2.6-1.1,3.5
		c0.9,0.9,3.8,1.7,5,2.1c1.2,0.5,1.5,2.5,1.5,2.5s6.2,1.2,7.4,1.2c1.2,0-0.2-3,0.5-3.5c0.5-0.4,4.5,0.9,8.6,1.4
		c3.6,0.5,7.3,0.5,8.2,0.9c2.5,1-1.1,2.6-0.2,4.8c0.5,1.1,11.5,2.5,22.5,4.2c10.4,1.6,20.5,3.7,21.1,3.5c1.2-0.5,0.2-2.9,0.7-2.9
		c0.5,0,19.4,3.1,20,3.8c0.6,0.7-0.5,5,2,5.1c1.7,0.1,5.5,0,7.8,1.2c0.2-2,0.4-4,0.4-4.5c0-1-0.7-0.8-2.7-1.4c-2-0.6-1.4-1.1-1-4
		S148.6,367.4,148.9,364.5z"/>
</g>
<g>
	<path data-id="Sheldon" class="st2" d="M45.8,334.1c1.5,0.1,21.6,3.8,24.2,3.7c2.7-0.1,2.8-3.9,2.9-4.9c0.1-1,0.4-3.6,1.5-4.4
		c1.1-0.8,4.6-6.4,4.9-7.4c0.3-1,0.9-1.6,2-2.3c1-0.8,1.2-1.1,1.6-1.6c0.4-0.5,1-1.3,2.4-1.8s3.8-2.7,4.5-3.6c0.7-0.9,0.5-4.5,0.6-6
		s2-1.9,2-1.9s5.5-1.1,7.5-1.4c2-0.3,2.5,0.6,3.5,1.7c0.2,0.2,0.5,0.2,1,0.2c0.7-0.9,2-2,2.7-2.5c0,0,0,0,0.1-0.1
		c0.1-0.1,0.2-0.1,0.2-0.2c0.9-0.6,0.9-2.4,1-3.2c0.2-0.8-0.3-0.8-1.4-1.9c-1.1-1.1-0.2-1,1-2.9c1.2-1.9,2.3-5.2,2.5-6
		s-0.1-2.1,0.7-3.2c0.8-1.2,1.3-4.2,1.3-5c0-0.9,0.1-2.2,0.3-3.2c0.2-0.9,0.6-3.6,0.7-5.2c0-0.2,0.1-0.4,0.1-0.6
		c0-0.1,0-0.1,0.1-0.2c0-0.1,0.1-0.2,0.2-0.4c0-0.1,0.1-0.1,0.1-0.2c0.1-0.1,0.1-0.2,0.2-0.3c0.1-0.2,0.3-0.4,0.4-0.6h-2.2
		c-0.6,0.1-0.8,0-3-0.2s-2.9-0.3-4.7,0.3c-1.8,0.6-7.4,3.4-8.5,3.6s-2.4-0.1-3.5,0.3c-1.1,0.4-2.7,1-5.3,0.9
		c-2.6-0.1-3.4,0.4-5.3-1.3c-1.9-1.7-4.8-4.5-6.9-5.3s-4.6-0.7-6.4-1.1c-1.8-0.3-4.2-0.5-6-2c-1.8-1.5-2.8-2.6-4.2-2.9
		c-0.1,0-0.2,0-0.3-0.1c0,0-0.1,0-0.1,0c-0.1,0-0.2,0-0.3,0c-0.1,0-0.1,0-0.2,0c-0.1,0-0.2,0-0.3,0c-0.1,0-0.2,0-0.3,0
		c-0.1,0-0.2,0-0.3,0c-0.1,0-0.2,0-0.4,0c0,0-0.1,0-0.2,0c-0.6,0-1.2-0.1-1.9-0.1c0,0.6-0.3,1.1-0.9,1.3c-2.4,1-3.8-0.7-6-1
		s-3.1,2.2-5.2,2.7c-2.1,0.5-1.6,1.9-1.1,4.2c0.5,2.2,0,0-1.6,3.1c-0.4,0.7,0.2,1,0,1.5c-0.7,1.6-1.5,2.7-0.7,4.2
		c1.1,2,4.1,3.5,4,4.6c-0.1,1.1-1.5,1.5-2.7,3.2c-0.6,0.9-3.2,2.5-3.8,3.7c-0.6,1.2,1.9,4.1,1.9,4.1s0,0.5-2,1.5
		c-2,1-0.9,3.8-0.9,4.7s1.5,1.9,1.1,2.2c-0.5,0.5-2.7,0.9-3.6,1.4c-0.9,0.6-0.4,2.7-1,3c-0.6,0.2-1.6-0.5-2.7,0.1
		c-1.1,0.6-1.5,4.1-0.6,4.5c0.9,0.4,1.4,0.9,2.7,1c1.4,0.1,0.5,3.5-0.5,4.6c-0.9,1.1-1.1,1.6-2.7,3c-0.7,0.7-0.1,1.9,0.2,2.7
		c0.4,0.9,0.5,1.6,0.9,2c0.6,0.7,1.5-0.9,2.4-1.9c0.9-0.9,1.7,1.7,2.9,2.6c1.2,0.9,0.6,2.4,2.4,2.9c1.4,0.4-0.1,2.6-1.1,2.2
		c-2-0.9-3.4,0.9-2.4,1.1c1,0.2,4.5,1.4,7.3,4.5c1.1,1.2,2,2.2,2.7,2.8c0.2-0.8,0.4-1.6,0.5-2.1C44.1,333.6,44.3,334,45.8,334.1z"/>
</g>
<g>
	<path data-id="North_Stradbroke_Island" class="st1" d="M396.8,6.6c-2,0.1-3.7-0.7-5.7,0.5c-2,1.2-3,2.2-3,2.7s0.5,0.9,0.4,1.4c-0.1,0.5,0.1,0-1.1,0.9
		c-1.2,0.7-1.1,2-2,3.6s0,1-0.2,2.1c-0.1,1.1-2.4-0.4-1.7,1.2c0.1,0.4-0.2,0.9-0.2,1.4c0,0.6-0.9,1.4-0.5,1.7
		c0.5,0.2,1.6,0.6,1.6,1.5c0,0.7-0.1,3-1.1,4c-1,1-2.1,2.2-0.5,3.4c1.6,1.1,1.7,1.7,2,2.1c0.6,1.5,1.2,3.1,1.6,4.6
		c0.5,1.5-1.2,1.1-0.2,3c0.9,1.9,0.2,2.5-0.5,3.8c-0.9,1.4-0.5,7.2-1.1,8.2c-0.6,1.1-2,5-2,6.1c0,1.1,0.5,3.5,0.5,5
		s-0.1,2.7-1.1,3.7c-0.9,1.1-1.4,2.4-1.6,3.2c-0.2,0.6-1,3.6-1.7,5.8c-0.2,1-0.6,1.5-0.7,2.2c-0.1,0.4-0.2,0.9-0.4,1.4
		c-0.9,2.6-2.7,6.2-3.1,7.8c-0.5,2-1.6,3.2-1.6,4.7c0,1.5,0.5,1.7-0.2,3.7c-0.7,2-0.7,3.8,0.5,3.6c1.2-0.2,1.4-0.9,1.4,0
		c0.2,2.2-1.1,0.7-2.1,2.1c-1,1.1-1.1,3.1-1.6,3.8c-1.1,1.7-0.4,4.3-1.4,6c-0.5,0.9-2.2,4.3-2.5,7c-0.1,1.2-1.1,1.9-1,2.2
		c0.5,1.1,1.7-0.4,1.7,1.1c0,1.5-2.6,5.6-4,7.4c-0.7,1-2.2,3-4.5,4.5c-2,1.4-4.5,2.2-5.5,3.1c-2.1,1.9-2.9,2.4-5.2,5.8
		c-2.2,3.5-1.2,4-3,6.1c-1.9,2.2-2.7,2.9-2.7,4.2s0.5,3-0.7,3.8c-1.2,0.9,0,2.4-1.9,3.2s-1.6,0-2.7,1.6c-1,1.4-1.9,3-2.7,3.5
		c-0.9,0.5-4-0.1-3.2,1.6c0.7,1.9,2.1,2.4,2.2,3c0.1,0.6-1.4,2.2-0.6,2.5c1.4,0.2,3.4,2.1,2.7,2.7c-0.6,0.6-2.1,2.6-1,3.2
		c1.9,0.9,1.6-2.4,3.2-2.2c1.7,0.1,2.9,0.1,6.1,3.2s3.1,2.5,2.9,3.7s0.1,1.6,1.2,2.2c1.1,0.6,1.6,1.6,2.4,3c0.7,1.4-0.4,2.4-1.1,3.6
		c-0.6,1.2,1.2,3.1,0.7,4.7c-0.5,1.7-1.1,2.6-2.2,4.1c-0.4,0.5,0,1.9-0.4,3.2c-0.7,2.6-2.1,5.8-1.4,6.3c1.2,0.7,1.6,1,1.4,1.5
		c-0.4,1.4-1,0.9-1.2,2.1c-0.2,1.2,0.7,2.2,0.4,3.2c-0.2,0.7,0.9,1.9,0.4,3.1c-0.9,2.4-3,6.8-1,9.8c2,3.1,0.2,4.1,0.4,4.7
		c0.4,1.1,0.7,1.6,0.6,2.5c0,1,0,2.5,0.6,3.7c1.1,2.2,1.7,5.7,1.1,8.1c-0.6,2.5-1.7,2.5-0.7,4.8c0.9,2.5,0.6,2.9,0,4.2
		c-0.2,0.6,0,2.9-0.5,5c-0.6,2.6-1.9,5.2-1.5,7.1c0.6,3.4,2.6,9.8,3.6,10.6c1.1,0.7,1.7,1.9,1.2,2.7c-0.5,0.7-3-1.4-4.1-0.1
		c-1.1,1.2-2.4,2.7-1.2,4.1c1.1,1.4,2.2,1.7,3.4,2.4c1.2,0.6,2.9,1,1,3.4c-1.9,2.2-2.4,5.1-1.1,11.7s1.6,7,1.6,9.7
		c0,2.7-0.7,3.2-0.5,4.6c0.2,1.4,0.9,1.1,1.9,0.6c0.4-0.2,0.5,0.1,0.1,0.7c-1,1.5-2.2-0.5-3.5,4.6c-2,8.6-3.1,9.2-3.8,8.8
		c-0.7-0.5-2-0.5-2.6,1.2c-0.7,2.4,0,3.8,0.2,5.1c0.2,1.2,2.5,4.5,1.7,6.2c-0.7,1.9-2,2.7,0.5,5.1c1.4,1.2,1.7,0.5,3,2.2
		c1.2,1.7,6.8,10.2,6.5,13c-0.2,2.9-0.1,3.5,0.5,4.1c1.6,1.7,1.7,4.1,3,6.1c1.2,2,1.6,2,2.9,5.2c1.2,3.2,0.1,9.4-1.1,10.8
		c-0.5,0.4,0,1.4-0.7,2.2c-1.6,1.7-5,3.6-6.2,5.2c-0.6,0.9-0.1,1.5-0.9,2.1c-1.5,1.2-4.2,2.2-5.5,3.6c-0.6,0.6-2,2.1-3.5,3
		c-1.5,0.9-3.2,1.2-4.7,2.2c-1.6,1-4.1,2.4-4.6,3.1c-1.7,2.2-0.5,6,0,6.7s2.5,2,2.6,3.2c0.1,0.7-0.7,3.1-1.2,6
		c-0.2,1.7-0.1,4.2-0.4,5c-0.5,2-2,4-0.2,4.1c1.9,0.1,2.2-3.1,2.4,0.5s-1.4,3.4-1.2,5c0.1,1.5,1.1,2,1,3.5c-0.1,1.5-0.9,1.2-0.9,2.6
		c0,1.4,1.4,1.7,1.4,2.5c0,0.7-0.1,1.1-0.9,2.6c-0.7,1.5-0.6,3.7-0.4,5.6c0.2,1.9-0.6,2.2-0.9,4.6c-0.2,2.2,0.5,7.1-1,8.9
		c-1.4,1.9-14.5,5.8-9.8,9.8c3.1,2.6,3.6,2.7,6.8,6.3c3.2,3.6,10.4,15.8,10.2,19.6c-0.2,3.8-1.4,6.1-0.9,8.3
		c0.4,1.6,1.2,4.7,5.3,7.9c1.6,1.4,3.5,3,6.6,4.1c7.1,2.7,7.6,1.9,8.3,1.1c0.7-0.7,3.5,2,5.6,0.7c2.1-1.2,10.9-5.7,12.8-6
		c0.7-0.1,0.9-1.1,1.9-2c1.2-1.1,3.2-2.2,2.7-3.4c-0.2-0.7-1.5-0.5-2.5-1c-2-0.9-1.7-1.6-3-2.9c-0.6-0.6-1.7-1.9-2-3.4
		c-0.2-1.5,0.2-2.2,0.9-2.6c1.4-0.7,2.9-6.6,3.1-8.7c0.2-2.1,1.6-5,3.6-4.7c5.7,0.5,10.1-4.2,10.6-1.6s-2.2,3.4-1.2,7.6
		c0.9,3.6-0.5,3.2-1,4.2c-0.2,0.5,0.2,1.5-0.1,3c-0.2,1-1.2,2.5-1.4,3.4c0,0.7,0.6,1.2,0.6,1.7c-0.1,1.7,1.1,3.1-0.7,3.7
		s-5.3-0.7-5.5,0.7c-0.2,2.7,4.7,0.6,4.7,0.6s3.7-1.2,6-1.2c1.2,0,3.2,0.6,4.3-1.7c0.7-1.6,1.9-3.5,3.1-5.7c0.6-1.1,1.7-2.4,2-3.6
		c0.1-1.1-1.9-7.7-2.1-12c-0.1-2,0.1-11.5,0.9-20c1.1-10.7,2.9-20.5,3.1-22.6c0.1-2.4,5.5-34.5,10.7-61.5c3.4-17.3,6.2-33,6.8-36.6
		c1.7-9.2,23.6-88.5,27.4-98.6c3.8-10.1,33.9-93.7,37.1-103.2c2.1-6.1,7.3-22.7,14.5-38.9c7.8-17.5,18.6-35.1,19.5-36.9
		c1-2.2,2.4,1,3.2-0.1c0.6-0.7-1.5-1.9-1-2c0.9-0.2,2.9,2.1,4.1,1.4c2-1.2-1.9-2.2-1.4-3.4c0.1-0.4,2.6,0.9,2.5,0.2
		c-0.4-2.2-3.5-3.7-4.5-5.7c-1.2-2.4,2.4-7.8,0.4-8.7c-2-0.9-7.8-1-8.9-1.2c-1.2-0.2-1.2-1.7-2.5-0.7c-0.7,0.6-1.1,2-2.1,2.2
		c-1.4,0.4-2.9,0.2-5,0.5c-1.9,0.2-3.5,0.9-5.2,0.6c-3.6-0.2-13.4-9.2-15.9-8.7c-1.1,0.2-0.7,0.6-1.9,0.7c-1.4,0.1-4-0.1-4-0.1
		s-0.7,0.7-1.9,0.7c-1.6,0-4-0.5-7-0.7c-7-0.5-16.5-1.5-22-4.2c-11.2-5.7-21-18.4-23.8-22.3c-1.9-2.5-7.3-9.8-11.7-15.3
		c-2.7-3.4-4.2-6.3-6.5-6.2c-1.4,0.1-2.5,0.2-3.2,0.2c-0.9,0.1-0.9,0.7-1.9,1c-1.4,0.2-2.9-1.1-3.5,0.9
		C398.9,8.8,398.3,6.6,396.8,6.6z"/>

	<path data-id="North_Stradbroke_Island" class="st1" d="M333.8,402.3c-1.2,1.2-2.5,2.9-3.5,4.2c-1,1.4-2.6,2.4-3.1,3.1c-0.5,0.7-1.7,2.4-1.7,3.8s-0.4,3.7,1,3.2
		c1.4-0.5,3-3.7,3.2-4.7c0.2-1,0.9-3.5,1.6-4.1c0.7-0.7,1.6-2.1,3-2.1c1.4-0.1,3.6,0.2,5.3,0.6c1.7,0.4,1.7-1.2,2.5-1.5
		c0.7-0.2,1.7,0.2,2.2-0.6c0.5-0.7,0.9-2.4,1.2-3.4c0.5-1.6,2.1-3.1,1.1-3.5c-1.7-0.7-3-0.6-4.6,0.4c-1.6,1-2.9,1.1-3.6,1.5
		c-0.7,0.2-1.7,0.1-2.9,0.6C335,400,334.7,401.4,333.8,402.3z"/>
</g>
<g>
	<path data-id="Russell_Island" class="st5" d="M337.8,385c-0.7,0.4-3,3.1-3.5,4.1c-0.5,1-1.5,3-2.5,3.8s-2.1,1.2-3.5,1.7c-1.4,0.5-1.9,0.4-2.1,1.7
		c-0.2,1.4,0.5,0.4,0,2.2c-0.5,1.9,0.2,2.1-2.1,3s-5.8,3.2-7.3,2.7c-1.5-0.5-2,0.1-2.6,1.1c-0.6,1-0.6,1.1-1.5,1.7
		c-0.9,0.7-2.1,2-0.5,3c0,0,1.2-0.1,2.1,0.5c0.7,0.7,0.7,2,1.1,2.7c0.2,0.7,0.9,1.1,1.5,1.9c0.6,0.7,1.5,1.9,0.5,2.5
		c-1,0.6-0.9,0.7-1.1,1.7c-0.2,1,1.4,1.7,1.2,2.2c-0.1,0.5-0.5,1.5-0.1,2.1c0.2,0.7,1.4-0.1,2.1,0.7c0.7,0.9-0.5,1.6-0.2,3.2
		c0.2,1.7,1.1,2.1,1.5,3.5c0.5,1.5,0.2,3.4-0.9,3.8c-1.1,0.5-1.1,1.9-0.7,2.4c0.4,0.5,0.7-0.5,1.4,1.2c0.6,1.6-0.9,10.8-1,12.2
		c-0.1,1.2-1.1,3.7-0.7,5.8c0.4,2.1,0.9,1.9,1.5,3c0.7,1.1,1.2,2.1,0.4,3.6c-0.9,1.5,0.9,0.7,0.5,2c-0.4,1.2-2.4,4.1-2.5,4.6
		s-2.1,4-1.9,4.7c0.1,0.9,0.5,3.2-1.1,3.7s-1.5,0-2.5,1.1c-1.1,1.1-3.1,4.3-4,4.3c-1.4,0-1.4-1-2.1-0.7c-0.9,0.2-0.4,1.1-1.4,0.7
		c-1-0.2-0.2-1.2-1.9-1.5c-1.6-0.2-3.8-0.5-5-0.5c-1.1,0.1-3,0-4-1.4c-0.9-1.4-1-3.7-2.7-4.2c-1.6-0.6-1.9-0.1-2.5-1.2
		c-0.5-1.1-0.6-2.5-1.7-2.7s-2.5-1.1-2.7-2s-0.2-2.2-0.9-3.1c-0.5-0.9-0.7-1.7-0.5-2.5s0.7-1.4,1.1-1.5c0.4-0.1,1.9-0.1,2.2-0.2
		c0.5-0.1,1.5-1,2.2-1.5c0.7-0.5,0.2-1.2,0.6-1.6c0.4-0.2,1.9-0.6,3-1.5c1.1-0.9,1.4-1.7,1.9-2.5c1-1.6-0.9-3-0.6-3.6
		c0.2-0.7,1.2-1.4,1.4-2.5c0.1-1.1-2.5-5.5-1.2-7.1c1.2-1.7,2.2-2.9,3.5-3.2c1.2-0.5,2.9-1.5,3.1-2.1c0.1-0.6-0.2-2.1,0.7-2.6
		s0.2-3.1-0.2-4.2c-0.5-1.2-5.7-8.3-7.4-7.7c-1.7,0.6-2.5,2.6-3.4,3.5c-0.9,0.7-1.4,2.6-2.6,2.6s-2,0.9-2.5-0.2
		c-0.4-0.7,0.2-2.2,0.4-3.5c0.1-1.1-0.2-3.2-0.2-3.2c-0.1-0.9-0.1-3.6,0-4.1c0.1-0.5-1.2-3.8-1.2-4.8c-0.1-1-1-6.5-0.7-8.7
		s0.2-3.6,0.9-4.5c0.4-0.5,1.6-2.2,3.1-4.5c1-1.4,1.9-3.2,3.4-4c3.4-1.6,5.8,0.2,7,0c1.2-0.2,3.1-0.5,3.7-0.5c0.6,0,3.8-1.7,5.2-0.2
		c1.2,1.5,1.2,1.4,3.1,1.7c0.7,0.1,1.9-0.2,2.9-0.1c1,0.2,1,1.2,1.6,1.5c1.1,0.5,3.4,0.1,4.1,0.2c1.1,0.1,0.5-1.5,0-2.1
		c-0.5-0.7-0.1-2-0.6-2.4c-0.5-0.2-2.1-1.4-2.1-2.4c-0.1-1.1-0.1-2.6,1-2.9c1.1-0.1,2,2.2,3.5,3.7c1.5,1.5,7.8,2.1,9.4,1.4
		s4.1-3.1,4.7-4.1c0.6-1.1,0.6-1.9,0.5-3.7c-0.1-1.9-1.4-4.2,0-4.1c1.4,0.1,1.6,2.1,2.9,3.1c1.1,0.9,4.7,0.7,5.2,1.7
		c0.5,0.9,1.1,1.7,2,1.6c0.9-0.1,3.1-1.4,4.7-0.7c1.6,0.6,1.9,0.7,0.7,1.5c-0.5,0.4-1.1,0.6-2.1,0.9c-1.4,0.4-2,0.9-3.1,0.5
		c-0.7-0.2-1.5-1-2.2-1.2c-1.6-0.7-4.2-0.1-4.2-0.1L337.8,385z"/>
</g>
<g>
	<path data-id="Long_Island" class="st1" d="M267.8,444.5c0.5-1.1,0.9-1.7,1.1-2.5s-0.6-1.7-0.5-2.2c0-0.5,0.5-1.4,0.6-1.9c0.1-0.5-0.2-2.1-0.1-2.2
		c0.1-0.2,0.5-0.6,0.4-1.2c-0.1-0.6,2.2-19.5,2.3-19.8c0.1-0.4,0.2-0.9,0.4-1.4c0.2-0.4,0.4-0.9,0.7-1.1c0.4-0.2,1.2-1.4,2-0.6
		s1,1,1.6,1.2c0.6,0.2-1.1,19.8-0.7,21c0.4,1.1,1.1,1.5,0.9,2.2c-0.2,0.7,1.2,2.1,1.6,2.9c0.5,0.7,1.6,2,1.2,2.9
		c-0.4,0.9-0.6,1.2,0.1,1.9c0.7,0.5,1.2,1.2,1.1,2.4s-0.2,1.9-1.6,2.7c-1.4,0.9-2,2-3.4,2.2c-1.2,0.2-2.2,0.7-4.1-0.4
		c-1.9-1.1-3.4-2.7-3.8-3C267.3,447.1,267.2,445.8,267.8,444.5z"/>
</g>
<g>
	<path data-id="Lagoon_Island" class="st1" d="M235.8,446.5c1,0.2,0.5-1.9,0-2c-0.5-0.1-0.5-2.2,0-2.9c0.5-0.5,0.7-1.2,1.7-0.9c1.1,0.4,1.7,0.6,2,1.4
		c0.2,0.7,0.5,1.7,0,2.2c-0.5,0.6-1.2,0.5-0.7,1.1c0.5,0.6,0.6,2,1,2.1c0.4,0.1,0.9-0.2,0.7-1c-0.1-0.7-0.6-1,0-1.1
		c0.6-0.1-0.4-1.1,0-1.4c1-0.9,1.7-0.4,2.1,0.4c0.4,0.7,0.4-0.5,1.1-0.1c0.4,0.2,0.1,1.1,0.2,1.7c0.4,1.1,1.1,1,1.9,1.2
		s1.6,0.9,1.5,1.5c-0.1,0.6,1.1,0.2,1.1,1c0,0.7-1,1.2-0.9,2.5c0.1,1.1,0.5,0.7,1.7,1.5c1.2,0.7,1.1,1.1,1.6,1.4
		c0.5,0.2,1.6,0.6,1.6,1.9c-0.1,1.1-1.6,1.4-2.5,2c-0.9,0.6-1.2,1.7-1.9,2.1c-0.6,0.5,1.2,1,0.5,1.9s-1.6,0.2-4-0.1
		c-2.5-0.4-5.2-0.6-6-0.1c-0.7,0.5-1.6,1.2-2.2,1.2c-1.1-0.1-2.1-1-1.9-1.5c0.2-0.5-0.2-1.7-1-2.5s-1.5-2.1-1.4-3.4
		c0-1.1,1.5-2.5,1.6-3.4c0.1-0.9-0.9-0.7-1.6-1.7c-0.7-1-0.4-2.7-0.7-3.4c-1-1.6-4.6-4.8-3.5-5.5c1.1-0.6,1.5,0.5,1.9,1
		c0.4,0.5,1.1,0.9,1.5,1.5c0.4,0.6,0.9,0.7,1.5,1.5s0.5-1,0.9-1.2c0.2-0.2,0.7,0.4,1.2,0.2C235.5,445.6,235.2,446.3,235.8,446.5z"/>
</g>
<g>
	<path data-id="Pannikin_Island" class="st1" d="M237.5,374.5c-1,0.6,0.1,1.4,0,2.1c-0.1,0.7-0.5,1-0.6,1.9s0.2,0.7,0.2,1.5s-0.6,1.6-0.9,2.5
		c-0.2,0.9-0.2,2-0.2,2.9c0.1,0.9-0.7,1.6-1.2,3c-0.5,1.4,0,2.2-0.5,3.4c-0.5,1.1-1.7,0.5-2,1.6c-0.2,1.1,0.1,1-0.2,1.7
		c-0.4,0.9-1.7,0.9-1.7,1.7s-0.4,1.4-0.5,1.9c-0.1,0.4-0.5,1.6,0.4,2.2c0.9,0.7,1.4,0.7,1.7,1.7c0.4,1,2.6,2.6,2.9,4.1
		c0.2,1.4,0.2,2.4,0.6,3.6c0.4,1.4,0.2,3.1,0.9,4.6s1.1,2.1,1,3.6c-0.1,1.5,0.1,3.4,0,4.1c-0.1,0.7,0.2,1,0,2
		c-0.1,1-0.1,1.7,0.7,2.2c1.5,0.9,2.6-0.1,3.1-1.1c0.5-0.9,1-2.2,1.1-3c0.1-0.9-0.5-3.5,0.5-4.5c1-0.9,1-2.1,1.7-3.4
		c0.7-1.4,1.5-3.4,2.5-3.8c1-0.5,1.7-2.1,2.1-3.6c0.4-1.4,0.4-1.5,1.7-2.1c1.4-0.6,1.4-5.8,2-6c0.7-0.1,1.2-6.5,1.1-6.8
		c-0.9-2.1-2-3.8-3.6-5.6s-0.7-3.2-1.9-3.8c-1.1-0.7-1.7-2.2-3.1-3.1c-1.4-0.9-1.7-3-2.9-3.8c-1.2-0.9-1.1-1.4-2.5-1.1
		C238.9,375.1,238.5,373.8,237.5,374.5z"/>
</g>
<g>
	<path data-id="Lamb_Island" class="st6" d="M300.2,355c-0.7,0.7-1.9,1.2-2,1.7c-0.1,0.5-0.7,1-0.4,1.6c0.2,0.6,0.4,0.5,0.2,1.2c-0.1,0.7-0.4,0.6,0,1.1
		c0.2,0.5,0.5-0.2,0.5,0.4c0,0.7-0.4,0.5-0.9,1.2c-0.4,0.9-0.9,1.2-0.9,2.2s0.2,1.2,0,2.2c-0.2,1.1,0.5,1.2,1.7,0.9s1.7-1.6,2.4-1.4
		c0.6,0.2,1.6,0.4,1.9,1c0.2,0.6,0.2,2.2,1.2,2c1-0.2,2.4-2.5,2.9-3.2c0.6-0.7,1.7-1,2.2-1.6c0.4-0.6,0.5-2.1,1.1-2.2
		c0.6-0.1,0.7,0.2,1.2-0.4c0.5-0.6,0.7-5.3,1.7-5.6c1-0.2,2.5-1.7,3.1-1.9c0.5-0.1,1.5-0.9,1.4-1.5c-0.2-0.7-1.9-1.1-2.5-1.7
		c-0.6-0.5-1.4-1.1-1.9-1.2c-0.5-0.1-0.4-1.5-0.5-2.2c-0.1-0.7-1-1.2-1.7-0.4c-0.6,0.9-0.6,0.1-1.1,1.4c-0.4,1.2-0.1,2.5,0.5,2.6
		c0.6,0.2,1.1,0.9,0.4,1.6c-0.9,0.6-3.5,2.1-3.5,2.1s-1.7,0.4-2.9,0.1s-2.4-1.7-3.4-1.1C300.5,354.2,300.5,354.7,300.2,355z"/>
</g>
<g>
	<path data-id="Macleay_Island" class="st1" d="M277,303.6c0,0.9-1.1,1.6-1.7,2.2c-0.6,0.6-0.1,0.2-1.4,1.2c-1.2,1-2.1,1.2-2,1.9c0.2,0.6,0.6,1.4,0.6,2.5
		c0,1-0.9,3.1-1.4,4.5c-0.6,1.4-1,1.7-1,3.1c0,1.4-0.1,1.5-1.4,3.2s-4.2,1.4-3.7,3.2c0.4,1.9,1.7,1.4,1,3.2c-0.9,1.9-0.6,6.3,0,7.4
		c0.6,1.1,0.6,3.4,0.5,4.5c-0.2,1.1-2.4,2.6-1.5,4.8c1,2.2,2.6,2.2,3.2,3.2c0.6,0.9,2.5,1.5,1,3.1c-1.4,1.6-3.6,2.2-4.2,3.1
		c-0.5,0.9,0.7,2.5,1.6,2.7c0.9,0.2,1.1-0.2,2.2,0.2c1,0.5,3.1,1.1,4,1.1c0.9,0.1,2.5,1.4,3.6,2.7c1.1,1.4,2.5,1.4,3,2.2
		c0.4,0.9,0.6,1.9,0.7,3.1c0.1,1.4-0.2,1.5,0.9,2.6s1.4,0.6,1.9,0.1c0.4-0.4,0.2-1.5,1.6-1.6c1.4-0.2,1.4,0.9,2.6,0.4
		c1.2-0.4,3.1-3.1,3.4-3.7c0.2-0.6,1-2.4,1.4-2.6c1.5-1.1,0-2.5,1.6-2.5c1.5,0,2.4-0.6,2.6-1.6c0.2-1-0.2-2.1-0.2-3
		c0-0.9-1-2.2-0.7-3s0.4-2,1.4-1.6c0.9,0.2,1.1,0.6,1.9,0.9c0.9,0.1,0.7-0.1,1.4-0.6c0.7-0.6,0.9-2.2,0-2.5
		c-0.9-0.2-0.9-0.6-1.4-1.4c-0.4-0.7-1.4-3.2-2.4-2.4c-0.9,0.9-0.9,1-1,2.4c-0.1,1.4,0.9,1,0,2.4c-0.9,1.4-1.4,2-2.1,2
		c-0.7-0.1-2.2-0.9-2.2-0.9s-0.9,1-1.4,0.9c-0.5-0.1,0.2-2.1-0.6-2.6c-0.9-0.5-3.7-2.9-4.2-2.5c-0.5,0.2-0.4,1.5-1.4,0.9
		c-1-0.6,0.6-1.4-0.6-2.1s-2.7-0.9-3-1.2c-0.2-0.4,0.1-1.2,0.1-2.1c0-0.9,0-1-0.4-2.5c-0.4-1.4-0.5-1.1,0.2-1.9
		c0.9-0.7,1.1-0.9,0.9-1.6c-0.2-0.7-1.6-2-2.2-3.2s-0.1-2,0-2.5c0.1-0.5,0.6-0.7,1.4-1c0.9-0.2,0.1-2.5,0.2-3.4
		c0.2-0.9,1.1-1.1,2.2-1.6c1-0.5-0.1-3.1-0.2-3.5c-0.1-0.4,0.1-3.8,0.6-4.8c0.5-1-0.4-3.7,0.4-4.3c0.9-0.6,2.5-2.2,3.1-2.4
		c0.6-0.2,1.2-1.1,2.6-1c1.4,0.1,0.9-1,0.4-1.4s-1.1,0-1.9,0.4c-0.7,0.2-3,0-3.7-0.5c-0.9-0.5-2.5-3.1-2-4.1
		c0.5-0.9,0.6-2.2,1.5-2.4c0.9-0.2,1.9,0.1,2.1-0.4c0.2-0.5-0.1-2.1-0.4-2.9c-0.2-0.9,0.1-1.6-1-1.6c-1.1,0-2-0.1-2.1-0.6
		c-0.2-0.5,0.4-1.4-0.4-1.5c-0.9-0.1-0.9,0-1.6,0.6s-1.1,0.4-1.4,1.1c-0.5,1.4,0.9,1.7,0.1,2.5c-0.9,1-1.6,0-2.1,1.5
		c-0.5,1.4,0.2,2.2,0,2.7s0.9,1,0.9,1.4C277,302.7,277,302.8,277,303.6z"/>
</g>
<g>
	<path data-id="Coochiemudlo_Island" class="st7" d="M238.9,276.4c0.4-0.7,1-2.6,1.6-4.2c0.5-1,1.2-1.9,1.2-2.1c0-1.5-0.9-3.2,1.2-3.2c2.1-0.1,3.2,1.2,4.5,1.6
		c1.2,0.5,4.5-0.5,5,0.5c0.4,0.7,0.5,2.5,0.2,4.2c-0.2,1.9,0.6,1.9,0.2,3.2c0,0.1-0.6,0.5-0.6,0.7c-0.6,1.7-0.5,4.6-2.9,5.8
		c-1.2,0.6-3.7-0.4-6.8,0.2c-3.1,0.6-3.1,0.5-4.7,0.5c-2.7-0.1-3.2-0.5-4.5-0.5s-2.1-1.2-2.9-1.5c-0.7-0.2-4.6-0.1-3.8-1
		c1.1-1.4,1.4-0.1,2.6-0.9c0.6-0.4-0.1-1.4,0.6-1.2s1.2,1.4,2.1,1.4s1.9-1.6,2.6-1.6C236.5,278.5,237.9,278.4,238.9,276.4z"/>
</g>
<g>
	<path data-id="Pell_Island" class="st1" d="M259.9,162c-1.6,0.1-2.4,1.9-2.2,3.2c0.1,1-0.6,2.5,0.2,2.9s1.4,1,1.7,2.1c0.2,1.1,0.1,2.1,0.4,3
		c0.2,0.9,1.4,2.4,1.1,3.2c-0.2,0.9-1,1.6-1.5,2c-0.5,0.4-1.2,0.9-1.1,2c0.1,1,0.5,2.2,0.5,3.1c0,0.9,0,2-1,2.9
		c-0.4,0.4,0,0.9-0.1,1.2c-0.2,0.7-1.1,0.9-1.1,1.6c0,0.5,1.1,0.6,1.7,0.6c0.6,0,0,1.1,0.6,1.5c0.6,0.2,2,1.1,2.7,0
		c0.2-0.4,0.9-1,0.9-1.5c0.1-0.9-0.1-1.7,0.5-2.1c1-0.7,2.5-2.1,3.2-3.1c0.6-1,1.6-3.4,3.4-4.6c1.7-1.4,6.7-5.6,10.2-6.6
		c3.6-0.9,10.9-3.6,12.9-2.6c2,1-0.2,2.1,0.7,2.7c1.5,0.7,2.5-1.1,2.9-1.7c0.5-0.6-0.2-1.1,1.2-1.4c1.5-0.2,1.5-1.9,1.5-1.9
		s-0.6-1.6-0.5-3c0.1-1.4-0.1-4.1-0.5-4.7c-0.2-0.2-0.6-0.5-1.1-0.7c-0.5-0.2-1-0.7-1.9-0.6c-1.7,0.1-0.9,0-2.7-1.5
		c-0.4-0.4-1-0.5-1.4-0.7c-1.1-1-1.6-1.7-3.2-1.4c-1.7,0.4-3.4,1.5-3.2,2.6c0.1,1.1-1.2,0.9-2.5,0.9c-1.4,0-3.2-0.2-5.1,0.4
		s-3.6,1.4-4.5,1.4s-1.2-0.2-3,0.4c-1.4,0.5-1.6,0.7-2.2,0.9c-0.7,0.1-1.7-0.9-2.9-0.4c-1.1,0.5-0.5,0.6-1.7,0.6
		C261.6,162.7,261.3,161.8,259.9,162z"/>
</g>
<g>
	<path data-id="Karragarra_Island" class="st0" d="M277.5,376.4c0.5-0.2,0.2-0.7,1-0.9c0.7-0.1,1.1,0.1,1.5,0c0.2-0.1,0.5-0.6,1.1-0.6s2,0,4,0.5s2.7,0,3.2,0.2
		c0.5,0.2-0.1,0.7,1,0.7c1.1,0,4.7-0.6,5.7,0c0.5,0.2,2,1.9,2.6,2c0.6,0.1,3.8,1.4,4.5,1.7c0.5,0.5,0.4,1.5,1.9,1.5
		c1.5,0,4.1,0.1,4.3,0.6c0.1,0.4-0.9,0.9-1.7,1.1c-0.4,0.1-0.9-0.2-1.6-0.2c-0.6,0-1.6,0.6-1.6,0.6s-0.6,1.1-0.7,1.4
		c-0.1,0.6-0.1,0.6-0.6,0.7c-0.5,0.1-0.9,0.4-0.9-0.6c0-1,0-2.1-0.4-2.4c-1.1-0.9-1.7-0.2-2.7-0.7c-0.4-0.1-2.1-1.2-2.1-1.2
		s-1.7-2.2-2.9-2.1c-1.1,0.2-2,0.7-2.6,1.2c-0.6,0.5-2.1-0.6-2.1-0.6s-4.7-1.6-5.3-1.1c-0.7,0.6-1.2,1.1-2.2,1.2
		c-0.9,0.1-1.4-0.2-2.1-1.2C277.6,377.6,276.1,377.1,277.5,376.4z"/>
</g>
<g>
	<path data-id="Wellington_Point" class="st6" d="M124.2,195.7c-1-0.7-0.6-1.4-0.9-2.6c-0.3-1.2-1.2-2.1-1.6-3.1s0.4-0.6,1.6-1c1.2-0.4,2.1-0.5,3.6-0.1
		c1.5,0.4,2.5-1.3,3.1-1.7c0.6-0.4,1-0.3,2.7,0.1c1.7,0.4,1.5,0.2,2.2,0c0.7-0.2-2-1.3-1.6-2.1c0.5-0.8,1.7-0.4,2.7-0.2
		c1,0.2-0.7-1.9-1-2.9s1.5-2.4,2.1-3.1s0.7-1,0.1-0.9c-0.6,0.1-0.8-0.2-1.2-1c-0.4-0.8-0.1-2.2-0.2-3.1c-0.1-0.9-0.8-0.7-2.1-0.8
		c-1.3-0.1-0.7-0.8,0.3-1.9c0.9-1,1.2-2.1,0.3-3.3s-0.5-1.6-0.4-4.1c0-1.7,0.1-2.7,0-3.6c-0.4,0.1-0.9,0.2-1.3,0.4
		c-1,0.4-1.1,1.4-2.4-0.1c-2-2.2,3.1-3.5,4.1-4.5c1-1,5.2-3.8,6.5-4.7c1.2-0.9-4.5-3.4-5.8-5.1c-1.4-1.9-2.6-0.5-6.6-0.6
		c-4-0.1-8.2-0.7-9.2-0.7c-1.1,0,0-2.9-0.6-3.2c-0.6-0.2,0.2-4.2-0.5-3.5c-0.7,0.7-2.4,2.6-4,3c-2.9,0.6-4.5,3.4-7.4,3.8
		c-1.3,0.2-2.9,0.3-4.4,0.3c-0.3,1.1-0.5,1.7,0.2,3.3c0.9,2.1,2.9,6.2,2,6.6s-1.3,0.4-0.6,2.3c0.7,1.9,2.9,6.1,1.4,8.9
		c-1.5,2.8-1.5,3.4,0,3.5c1.5,0.1,2.4-0.1,1.9,1.2c-0.5,1.2-0.4,1.9-0.7,2.6s-1.1,2.5-2.2,2.3c-1.1-0.2-2-0.2-2.3,0.8
		c-0.3,1-0.2,2.5-1.7,3.1c-0.7,0.3-1.3,0.9-1.5,1.5c0.2,0.4,0.3,0.8,0.5,1.2c0.2,0.1,0.4,0.2,0.6,0.2c2,0.4,4.7,0.2,4.7,1.2
		s-0.2,3.2-0.3,4.4c-0.1,0.9-0.1,2.4-0.3,3.2l3.7,0.9c0,0-0.1,2,0.6,2.1s5.8,1,6.2,1.1c0.4,0.1,0.5-0.4,0.7,0.6c0.2,1,0.1,1,1.1,0.5
		s2.5-1.5,3.1-1.3c0.5,0.2,1,0,0.9,0.6c-0.1,0.4,3.1,0.8,5,1C125.8,196,125.2,196.3,124.2,195.7z"/>
	<path data-id="Wellington_Point" class="st6" d="M119.3,119.3c-0.5,1-1,2.7-1,2.7s-1.4-0.9-1.6,0c-0.2,1.1-0.9,1.9-0.9,2.7c-0.1,0.9,0.7,1,0.9,2.1
	c0.1,1.1,1.1,1.2,1.2,2c0.1,0.7-0.4,1.6-0.2,2.1c0.1,0.5-0.9,0.4-0.9,1.5s0.7,1.2,0.9,1.7c0.1,0.5,0.9,0.4,0.7,1.6
	c-0.1,1.2-0.1,1.9-0.1,1.9s1.4,0,1.9-0.7c0.5-0.7,0.2-0.7,0.6-1.1s1.5-1.6,1-1.9c-0.5-0.2-1.2-0.7-1.4-1.1c-0.1-0.5,0-0.6-0.7-1.6
	c-0.7-1-1.1-1.6-0.9-2.4c0.2-0.7,0.5-2.5,1.2-3.1c0.7-0.5,1.2-0.7,1.2-1.7c0-1-0.9-1.9-0.9-1.9s1.1-0.4,1.1-1
	c-0.1-0.6-0.1-2.5-0.5-2.6C120.4,118.6,119.7,118.6,119.3,119.3z"/>
</g>
<g>
	<text transform="matrix(1 0 0 1 388.4087 236.8212)"><tspan x="0" y="0" class="st8 st9">North</tspan><tspan x="-9.9" y="9.6" class="st8 st9">Stradbroke</tspan><tspan x="-1.3" y="19.2" class="st8 st9">Island </tspan></text>
	<text transform="matrix(1 0 0 1 101.3965 155.8597)"><tspan x="0" y="0" class="st8 st9">Wellington</tspan><tspan x="10.3" y="9.6" class="st8 st9">Point</tspan></text>
	<text transform="matrix(1 0 0 1 141.3592 179.186)" class="st8 st9">Ormiston</text>
	<text transform="matrix(1 0 0 1 132.9192 224.8727)" class="st8 st9">Cleveland </text>
	<text transform="matrix(1 0 0 1 125.8858 266.5568)" class="st8 st9">Thornlands</text>
	<text transform="matrix(1 0 0 1 148.9604 310.7534)" class="st8 st9">Victoria Point</text>
	<text transform="matrix(1 0 0 1 159.3034 377.5591)" class="st8 st9">Redland Bay</text>
	<text transform="matrix(1 0 0 1 65.4003 358.0407)" class="st8 st9">Mount Cotton</text>
	<text transform="matrix(1 0 0 1 53.8034 305.1808)" class="st8 st9">Sheldon</text>
	<text transform="matrix(1 0 0 1 48.0981 241.6381)" class="st8 st9">Capalaba </text>
	<text transform="matrix(1 0 0 1 65.4003 179.1861)" class="st8 st9">Birkdale </text>
	<text transform="matrix(1 0 0 1 30.5092 150.6471)" class="st8 st9">Thorneside</text>
	<text transform="matrix(1 0 0 1 88.4054 213.0306)"><tspan x="0" y="0" class="st8 st9">Alexandra</tspan><tspan x="10" y="9.6" class="st8 st9">Hills </tspan></text>
	<text transform="matrix(1 0 0 1 259.6642 374.9561)"><tspan x="0" y="0" class="st8 st9">Karragarra</tspan><tspan x="0" y="9.6" class="st8 st9">Island</tspan></text>
	<text transform="matrix(1 0 0 1 290.6295 430.7424)"><tspan x="0" y="0" class="st8 st9">Russell</tspan><tspan x="0" y="9.6" class="st8 st9">Island</tspan></text>
	<text transform="matrix(1 0 0 1 231.2768 468.6341)"><tspan x="0" y="0" class="st8 st9">Lagoon</tspan><tspan x="3" y="9.6" class="st8 st9">Island</tspan></text>
	<text transform="matrix(1 0 0 1 225.74 396.9489)"><tspan x="0" y="0" class="st8 st9">Pannikin</tspan><tspan x="5" y="9.6" class="st8 st9">Island</tspan></text>
	<text transform="matrix(1 0 0 1 264.5189 452.3132)"><tspan x="0" y="0" class="st8 st9">Long </tspan><tspan x="-1.5" y="9.6" class="st8 st9">Island</tspan></text>
	<text transform="matrix(1 0 0 1 248.0123 327.657)" class="st8 st9">Macleay Island </text>
	<text transform="matrix(1 0 0 1 300.3142 365.7545)" class="st8 st9">Lamb Island</text>
	<text transform="matrix(1 0 0 1 214.8847 253.203)"><tspan x="0" y="0" class="st8 st9">Coochiemudlo</tspan><tspan x="15.9" y="9.6" class="st8 st9">Island</tspan></text>
	<text transform="matrix(1 0 0 1 273.9878 184.1142)" class="st8 st9">Pell Island</text>
</g>
</svg>
